<svg id="Camada_1" data-name="Camada 1" xmlns="http://www.w3.org/2000/svg" viewBox="0 0 47.94 41.12"><defs><style>.cls-1{fill:#e51e57;}.cls-2{fill:#ea6034;}.cls-3{fill:#f6e71d;}.cls-4{fill:#ce0b58;}.cls-5{fill:#9d135c;}.cls-6{fill:#56ae48;}.cls-7{fill:#54277d;}.cls-8{fill:#154f9d;}</style></defs><path class="cls-1" d="M179.81,32.27a6.8,6.8,0,0,0-2,.17,9,9,0,0,0-4.52,3,11.53,11.53,0,0,0-2.78,7.37c-1.81-.13-3.37-.44-5.18.22a23.84,23.84,0,0,0-2.56-1.15,13.15,13.15,0,0,0-8.26-.85c-3.31.8-7.28,3.28-8.17,6.61a5.81,5.81,0,0,0-.2,1.27c-.9-4.81,5.29-12.66,12.44-16.1C166,29.2,175,30.06,179.81,32.27Z" transform="translate(-146.06 -30.35)"/><path class="cls-2" d="M165.33,43a6.82,6.82,0,0,0-1.09.49c-4.56,2.52-3.33,7.72-7.65,9.52-3.47,1.45-8.63-.09-10.08-3a4.26,4.26,0,0,1-.37-1.11,5.81,5.81,0,0,1,.2-1.27c.89-3.33,4.86-5.81,8.17-6.61a13.15,13.15,0,0,1,8.26.85A23.84,23.84,0,0,1,165.33,43Z" transform="translate(-146.06 -30.35)"/><path class="cls-3" d="M168.76,50a18.72,18.72,0,0,0-8,3.9c-2.28,1.78-4.89,3.81-4.52,5.75a3.68,3.68,0,0,0,2,2.27c-8-2.63-12.31-8.56-12.09-13a4.26,4.26,0,0,0,.37,1.11c1.45,2.93,6.61,4.47,10.08,3,4.32-1.8,3.09-7,7.65-9.52a6.82,6.82,0,0,1,1.09-.49,6.73,6.73,0,0,1,3.56,3.74A5.18,5.18,0,0,1,168.76,50Z" transform="translate(-146.06 -30.35)"/><path class="cls-4" d="M176.24,41.9a11.67,11.67,0,0,1-5.73.86,11.53,11.53,0,0,1,2.78-7.37,9,9,0,0,1,4.52-3,6.8,6.8,0,0,1,2-.17c1.87.86,3.08,1.93,3.28,3C183.5,37.63,179.36,40.62,176.24,41.9Z" transform="translate(-146.06 -30.35)"/><path class="cls-5" d="M187.74,66.84a9.78,9.78,0,0,0,.63-8.28,9.53,9.53,0,0,0-4.7-4.67,18.77,18.77,0,0,0-11.41-4.24,13.36,13.36,0,0,1-1.75-6.78v-.11a11.67,11.67,0,0,0,5.73-.86c3.12-1.28,7.26-4.27,6.85-6.6-.2-1.1-1.41-2.17-3.28-3,5,.29,9.37,5.72,10.18,6.77a20.06,20.06,0,0,1,4,11.31C194.3,58.75,189.22,65.59,187.74,66.84Z" transform="translate(-146.06 -30.35)"/><path class="cls-6" d="M168.76,50a26.51,26.51,0,0,1-3.12,5.59,33.92,33.92,0,0,1-5.86,6.79c-.53-.14-1-.29-1.55-.46a3.68,3.68,0,0,1-2-2.27c-.37-1.94,2.24-4,4.52-5.75A18.72,18.72,0,0,1,168.76,50Z" transform="translate(-146.06 -30.35)"/><path class="cls-7" d="M187.74,66.84c-.18.16-.31.23-.36.2-.22-.1,1-1.61.69-3.65-.72-4.22-7.25-3.9-12.69-9.56a19.61,19.61,0,0,1-3.12-4.18,18.77,18.77,0,0,1,11.41,4.24,9.53,9.53,0,0,1,4.7,4.67A9.78,9.78,0,0,1,187.74,66.84Z" transform="translate(-146.06 -30.35)"/><path class="cls-8" d="M187.74,66.84a13.9,13.9,0,0,1-3.9,4.63c-.46-2.28-1.47-5.26-4-6.78-2.79-1.69-5.12-.2-10.62-.37-3.53-.11-8.3-.89-11-2.41.51.17,1,.32,1.55.46a33.92,33.92,0,0,0,5.86-6.79A26.51,26.51,0,0,0,168.76,50a15.27,15.27,0,0,1,1.69-.26,16,16,0,0,1,1.81-.08,19.61,19.61,0,0,0,3.12,4.18c5.44,5.66,12,5.34,12.69,9.56.35,2-.91,3.55-.69,3.65C187.43,67.07,187.56,67,187.74,66.84Z" transform="translate(-146.06 -30.35)"/></svg>