<svg id="Camada_1" data-name="Camada 1" xmlns="http://www.w3.org/2000/svg" viewBox="0 0 84 69.65"><defs><style>.cls-1{fill:#f45dbb;}.cls-2{fill:#f251bc;}.cls-3{fill:#a00d6f;}.cls-4{fill:#d6c1d0;}.cls-5{fill:#160812;}.cls-6{fill:#f4edf2;}.cls-7{fill:#110f10;}</style></defs><title>AVATAR CÉREBRO TRISTE</title><path class="cls-1" d="M38.31,69.61A12.56,12.56,0,0,1,36.75,68l.23.3a6.21,6.21,0,0,1-.72-1.18l.15.36a3.62,3.62,0,0,1-.25-.91l.05.4a3.53,3.53,0,0,1,0-.65l-.05.4a3.1,3.1,0,0,1,.11-.51,1.5,1.5,0,0,0-1.05-1.84,1.52,1.52,0,0,0-1.84,1c-.8,2.52,1.06,4.76,2.81,6.33a1.53,1.53,0,0,0,2.12,0,1.51,1.51,0,0,0,0-2.12Z" transform="translate(-8 -10)"/><path class="cls-1" d="M36.61,64.36A6,6,0,0,1,35.36,64l.35.15a6.63,6.63,0,0,1-1.43-.84l.31.24a6.37,6.37,0,0,1-1.07-1.07l.23.3a3.53,3.53,0,0,1-.24-.34,1.58,1.58,0,0,0-.9-.69,1.5,1.5,0,0,0-1.7,2.2,7.81,7.81,0,0,0,4.9,3.33A1.67,1.67,0,0,0,37,67.1a1.49,1.49,0,0,0,.68-.89,1.5,1.5,0,0,0-1-1.85Z" transform="translate(-8 -10)"/><path class="cls-1" d="M33.61,61.26a3.48,3.48,0,0,1-.72,0l.4.06A4.79,4.79,0,0,1,32.17,61l.35.15a5.08,5.08,0,0,1-1.05-.62l.31.24a5,5,0,0,1-.86-.86l.24.31a4.56,4.56,0,0,1-.57-1l.15.36a4.54,4.54,0,0,1-.26-1l.06.4a4.07,4.07,0,0,1,0-.5,1.5,1.5,0,0,0-3,0,6,6,0,0,0,6.1,5.76,1.5,1.5,0,0,0,0-3Z" transform="translate(-8 -10)"/><path class="cls-1" d="M33.9,57.16a4.85,4.85,0,0,1-.85,0l-.31,0-.31-.06c-.52-.1-1-.24-1.55-.38s-.94-.24-1.41-.38c0,0-.37-.13-.19,0s-.17-.08-.16-.1.31.24.15.09,0-.08,0,0,0,.06,0-.09c-.11-.52-.23-1-.32-1.54s-.18-1.08-.22-1.39a32.73,32.73,0,0,1-.22-3.43,1.54,1.54,0,0,0-1.5-1.5,1.52,1.52,0,0,0-1.5,1.5,32.83,32.83,0,0,0,.29,4c.1.69.2,1.38.33,2.07a7.16,7.16,0,0,0,.54,1.87c.63,1.24,2,1.5,3.2,1.82a11.66,11.66,0,0,0,4,.62,1.5,1.5,0,1,0,0-3Z" transform="translate(-8 -10)"/><path class="cls-1" d="M26.46,45.58a4.77,4.77,0,0,0,1.19,6.64c1.13.78,2.19.69,3.46.93.61.11.74.56,1.1,1a7.19,7.19,0,0,0,1.37,1.33A11.65,11.65,0,0,0,41,57.4c2.47-.07,5.56-1,7.75.53,1.6,1.09,3.1-1.51,1.52-2.59-4-2.71-9.09.09-13.39-1.45a5,5,0,0,1-2.36-1.65,4.15,4.15,0,0,0-2.29-2c-1-.26-2.15.06-3-.65a1.8,1.8,0,0,1-.15-2.55c1.09-1.6-1.51-3.1-2.59-1.51Z" transform="translate(-8 -10)"/><path class="cls-1" d="M36.19,66.9a6.64,6.64,0,0,0,2.26-.26,6.16,6.16,0,0,0,2-1,1.65,1.65,0,0,0,.69-.89,1.5,1.5,0,0,0-1.05-1.85,1.51,1.51,0,0,0-1.16.15,5.35,5.35,0,0,1-1.06.62l.36-.16a5.79,5.79,0,0,1-1.41.39l.39-.05a6.14,6.14,0,0,1-1.05,0,1.46,1.46,0,0,0-1.06.44,1.5,1.5,0,0,0-.44,1.06,1.52,1.52,0,0,0,.44,1.06,1.64,1.64,0,0,0,1.06.44Z" transform="translate(-8 -10)"/><path class="cls-1" d="M38.19,64.84c2.24,1.72,5.62,1.16,8.14.47a4.41,4.41,0,0,0,3.3-3c.62-1.47,1.2-2.95,1.8-4.43a1.5,1.5,0,0,0-1-1.84,1.53,1.53,0,0,0-1.84,1L47,60.79a6.86,6.86,0,0,1-.28.65c-.06.12-.12.24-.19.36s-.2.27-.11.17a1.94,1.94,0,0,1-1.09.49A14.64,14.64,0,0,1,42.3,63a3.48,3.48,0,0,1-2.6-.7,1.51,1.51,0,0,0-2.05.54,1.53,1.53,0,0,0,.54,2.05Z" transform="translate(-8 -10)"/><path class="cls-1" d="M28,47.93a20.62,20.62,0,0,1,3.79-5.3,56.74,56.74,0,0,1,4.81-4.75,29.23,29.23,0,0,1,2.49-1.75,16.76,16.76,0,0,0,2.43-2.19A12.16,12.16,0,0,1,44,32a8.28,8.28,0,0,1,1.43-.71c.24-.07.46-.1.7-.15.45-.11.19.23.19,0a1.5,1.5,0,0,0,3,0,2.91,2.91,0,0,0-2-2.76,5.27,5.27,0,0,0-4,.65,15.2,15.2,0,0,0-3.36,2.31,24.5,24.5,0,0,1-3,2.64,37.69,37.69,0,0,0-6.45,5.72,25.55,25.55,0,0,0-5,6.72c-.81,1.74,1.78,3.26,2.59,1.51Z" transform="translate(-8 -10)"/><path class="cls-1" d="M33.93,43.89l.43-1.22a1.22,1.22,0,0,0,0-.6,1.16,1.16,0,0,0-.18-.56,1.21,1.21,0,0,0-.39-.42,1.14,1.14,0,0,0-.51-.27l-.4,0a1.42,1.42,0,0,0-.75.21l-.31.23a1.57,1.57,0,0,0-.38.66L31,43.09a1.22,1.22,0,0,0,0,.6,1.34,1.34,0,0,0,.57,1,1.14,1.14,0,0,0,.51.27l.39.05a1.51,1.51,0,0,0,.76-.2l.31-.24a1.45,1.45,0,0,0,.38-.66Z" transform="translate(-8 -10)"/><path class="cls-1" d="M35.37,41.1a.52.52,0,0,1,0-.11l0,.39a2,2,0,0,1,0-.49l0,.4a1.91,1.91,0,0,1,.14-.52l-.15.36a2.13,2.13,0,0,1,.27-.46l-.23.3a1.75,1.75,0,0,1,.36-.36l-.3.23.2-.14a1.53,1.53,0,0,0,.69-.89,1.22,1.22,0,0,0,0-.6,1.12,1.12,0,0,0-.18-.56,1.52,1.52,0,0,0-.9-.69,1.54,1.54,0,0,0-1.15.15,3.56,3.56,0,0,0-.8.65,3.13,3.13,0,0,0-.56.82,3.66,3.66,0,0,0-.25.62,4,4,0,0,0-.12.69,3.44,3.44,0,0,0,.07,1,1.26,1.26,0,0,0,.27.51,1.31,1.31,0,0,0,.42.39,1.14,1.14,0,0,0,.56.17,1.11,1.11,0,0,0,.6,0,1.59,1.59,0,0,0,.9-.69l.15-.36a1.55,1.55,0,0,0,0-.8Z" transform="translate(-8 -10)"/><path class="cls-1" d="M34.73,46c2.34.13,3.61-2.24,4.59-4a14.09,14.09,0,0,0,2.09-6.46,1.5,1.5,0,1,0-3,0c0,.23,0,.46,0,.69s0-.19,0,.07l-.06.3A11,11,0,0,1,38,37.94c-.07.23-.16.45-.25.67s.08-.16,0,.08-.09.19-.13.29c-.21.44-.43.86-.66,1.29-.41.74-.85,1.46-1.3,2.18-.12.19.14-.16,0,0l-.17.2c-.07.08-.15.15-.22.22s-.1.08,0,0A1.37,1.37,0,0,1,35,43c-.14.1-.08,0,0,0s-.37.08-.15,0-.14,0-.16,0a1.51,1.51,0,0,0-1.5,1.5,1.54,1.54,0,0,0,1.5,1.5Z" transform="translate(-8 -10)"/><path class="cls-1" d="M38.09,42.87a7.31,7.31,0,0,0,1.44.53,7.2,7.2,0,0,0,1.54.18,1.52,1.52,0,0,0,1.06-.44,1.54,1.54,0,0,0,.44-1.06A1.56,1.56,0,0,0,42.13,41a1.61,1.61,0,0,0-1.06-.44,5.32,5.32,0,0,1-.69,0l.4.05a5.17,5.17,0,0,1-1.28-.35l.36.15-.25-.11a1.16,1.16,0,0,0-.56-.18,1,1,0,0,0-.6,0,1.51,1.51,0,0,0-.9.69A1.54,1.54,0,0,0,37.4,42a1.49,1.49,0,0,0,.69.9Z" transform="translate(-8 -10)"/><path class="cls-1" d="M42.28,40.78a5.54,5.54,0,0,1,.33-.51l-.23.31a4.18,4.18,0,0,1,.84-.84l-.31.23A5.47,5.47,0,0,1,44,39.34l-.36.15.25-.1a1.52,1.52,0,0,0,.9-.69,1.49,1.49,0,0,0,.15-1.15,1.51,1.51,0,0,0-.69-.9,1.46,1.46,0,0,0-1.15-.15A8.36,8.36,0,0,0,42,37a6.88,6.88,0,0,0-1,.71,4.78,4.78,0,0,0-.6.59,6.72,6.72,0,0,0-.7,1,1.49,1.49,0,0,0-.15,1.15,1.51,1.51,0,0,0,.68.9,1.56,1.56,0,0,0,1.16.15,1.59,1.59,0,0,0,.9-.69Z" transform="translate(-8 -10)"/><path class="cls-1" d="M42,35.19a4.76,4.76,0,0,0,.34,2.86A5.4,5.4,0,0,0,43.76,40a12.8,12.8,0,0,0,4.46,2.26,1.5,1.5,0,1,0,.8-2.89l-.84-.3-.42-.16-.2-.08c-.22-.08-.05,0,.07,0A8.25,8.25,0,0,1,46.08,38l-.14-.1c-.26-.18.26.22,0,0l-.3-.27a4.12,4.12,0,0,1-.28-.31l-.11-.12c.28.31.13.16.07.07s-.15-.23-.22-.34L45,36.76s-.13-.29,0,0,0,0,0,0L45,36.48c0-.14-.06-.28-.08-.42l.05.4a3.37,3.37,0,0,1,0-.71l-.06.4,0-.16a1.67,1.67,0,0,0-.15-1.16,1.5,1.5,0,0,0-2.74.36Z" transform="translate(-8 -10)"/><path class="cls-1" d="M44,36.05c2.67-1,4,2.12,4.44,4.16a61.66,61.66,0,0,1,1.29,9.57c.12,1.92,3.12,1.93,3,0s-.34-4-.63-6.05A37.29,37.29,0,0,0,51,38.2a7.91,7.91,0,0,0-2.85-4.28,5.46,5.46,0,0,0-5-.77,1.55,1.55,0,0,0-1,1.85,1.51,1.51,0,0,0,1.84,1Z" transform="translate(-8 -10)"/><path class="cls-1" d="M49.6,35.53a6.17,6.17,0,0,0,.08-1.29,5.81,5.81,0,0,0-1.42-3.52,1.52,1.52,0,0,0-1.06-.44,1.54,1.54,0,0,0-1.07.44,1.49,1.49,0,0,0-.43,1.06l0,.39a1.54,1.54,0,0,0,.38.67l.11.13L46,32.66a4.45,4.45,0,0,1,.55.94l-.15-.36a4.67,4.67,0,0,1,.31,1.15L46.66,34a4.87,4.87,0,0,1,0,1.08l.05-.4v.06a1,1,0,0,0,0,.59,1.12,1.12,0,0,0,.18.56,1.53,1.53,0,0,0,.89.69,1.51,1.51,0,0,0,1.16-.15,1.45,1.45,0,0,0,.69-.9Z" transform="translate(-8 -10)"/><path class="cls-1" d="M35.39,48.28a4,4,0,0,1,.91,0l-.4,0a4.52,4.52,0,0,1,1,.27l-.36-.15.32.15a1.54,1.54,0,0,0,1.15.15,1.49,1.49,0,0,0,.9-.69,1.5,1.5,0,0,0-.54-2A5.66,5.66,0,0,0,37,45.4a5.84,5.84,0,0,0-1.56-.12,1.06,1.06,0,0,0-.58.13,1.08,1.08,0,0,0-.48.31,1.52,1.52,0,0,0-.44,1.06,1.5,1.5,0,0,0,.44,1.06,1.47,1.47,0,0,0,1.06.44Z" transform="translate(-8 -10)"/><path class="cls-1" d="M39.83,49.18a2.14,2.14,0,0,1-.3-.17c-.2-.12.29.26.12.1L39.53,49a1.06,1.06,0,0,0-.1-.12s.24.35.11.13a1.59,1.59,0,0,1-.15-.29l.15.36a2.42,2.42,0,0,1-.17-.64l.05.4a3.05,3.05,0,0,1,0-.74l-.05.4a3,3,0,0,1,.2-.73l-.15.36a2.3,2.3,0,0,1,.23-.44c0-.07.21-.3,0-.07s0,0,.08-.07a1.29,1.29,0,0,1,.17-.16c.14-.12-.13.12-.15.12s.1-.07.13-.09a3.66,3.66,0,0,1,.59-.31l-.36.15a4.22,4.22,0,0,1,1-.27l-.4.06a5.63,5.63,0,0,1,1.36,0l-.4,0a6,6,0,0,1,1.55.43l-.36-.16.34.16a1.5,1.5,0,0,0,1.51-2.59,6.71,6.71,0,0,0-6-.2,4.39,4.39,0,0,0-2.21,4.79,3.46,3.46,0,0,0,1.81,2.35,1.67,1.67,0,0,0,1.16.15,1.5,1.5,0,0,0,.36-2.74Z" transform="translate(-8 -10)"/><path class="cls-1" d="M39.94,49.67a11.82,11.82,0,0,0,10.68,1.62,1.5,1.5,0,1,0-.8-2.89,11.72,11.72,0,0,1-1.16.32l-.6.11c.28,0-.29,0-.35,0a8,8,0,0,1-1.2,0l-.6,0-.3,0c.15,0,.13,0,0,0a8.63,8.63,0,0,1-4.11-1.74,1.5,1.5,0,0,0-2.05.53,1.55,1.55,0,0,0,.54,2.06Z" transform="translate(-8 -10)"/><path class="cls-1" d="M49,50.86,51,55.28s.27.46.16.36a.69.69,0,0,1,.22-.8c.18-.15.19-.18,0-.08a.61.61,0,0,1,.4,0c-.17,0-.21-.06-.13,0s0,0-.11-.07a5.59,5.59,0,0,1-.53-.43c-.33-.26-.66-.52-1-.76a13,13,0,0,0-8.27-2.2,1.5,1.5,0,0,0,0,3,10.12,10.12,0,0,1,4.53.61,10.35,10.35,0,0,1,2,1c.61.41,1.11,1,1.81,1.38a2.85,2.85,0,0,0,2.81.1,2.22,2.22,0,0,0,1.1-2.59,8.91,8.91,0,0,0-.61-1.38L52.81,52l-1.27-2.69a1.5,1.5,0,0,0-2-.54,1.53,1.53,0,0,0-.54,2Z" transform="translate(-8 -10)"/><path class="cls-1" d="M55.07,49.55c-.73-1.94-1.46-3.87-2.18-5.82-.58-1.57-1-3.07.21-4.42a1.53,1.53,0,0,0,0-2.12,1.51,1.51,0,0,0-2.12,0,6.44,6.44,0,0,0-1.27,6.53c.74,2.24,1.64,4.43,2.47,6.63a1.53,1.53,0,0,0,1.84,1,1.52,1.52,0,0,0,1-1.85Z" transform="translate(-8 -10)"/><path class="cls-1" d="M52.65,38.6a7.4,7.4,0,0,1-.53-4.4A8.36,8.36,0,0,0,52,31.61a4.5,4.5,0,0,0-.53-1.26,2.09,2.09,0,0,0-.27-.39c-.13-.23-.13-.16,0,.21a.42.42,0,0,1-.12.37c-.06.07,0,0,.09-.08-.08.07-.05.06.1,0,.38-.17-.13,0,.3-.12a2.78,2.78,0,0,1,1-.16,7.38,7.38,0,0,1,2.26.37c1.75.51,3.44,1.19,5.15,1.8a1.5,1.5,0,1,0,.8-2.89,50.45,50.45,0,0,0-6-2c-2-.45-4.75-.5-6.12,1.31a2.32,2.32,0,0,0-.5,1.6,3.18,3.18,0,0,0,.67,1.55,2.69,2.69,0,0,1,.16.29c0-.11,0-.08,0,.1s.12.58.1.4a7.72,7.72,0,0,1,0,1.36A17.85,17.85,0,0,0,49,36.85a8.51,8.51,0,0,0,1,3.26,1.5,1.5,0,0,0,2.59-1.51Z" transform="translate(-8 -10)"/><path class="cls-1" d="M54.94,37.26a4.42,4.42,0,0,0,.67-.56,4,4,0,0,0,.52-.71c.07-.12.12-.26.18-.39a2.78,2.78,0,0,0,.16-.4,1.84,1.84,0,0,0,.05-.25c0-.21.07-.42.08-.63a1.15,1.15,0,0,0-.13-.58,1.17,1.17,0,0,0-.31-.48,1.14,1.14,0,0,0-.48-.31,1.08,1.08,0,0,0-.58-.13l-.4,0a1.44,1.44,0,0,0-.66.39l-.24.3a1.57,1.57,0,0,0-.2.76.88.88,0,0,1,0,.17l.06-.4a2.31,2.31,0,0,1-.15.53l.15-.36a2.12,2.12,0,0,1-.27.49l.23-.31a2.52,2.52,0,0,1-.4.4l.31-.23-.09.06a1.18,1.18,0,0,0-.42.38,1.13,1.13,0,0,0-.26.51,1,1,0,0,0,0,.6,1.12,1.12,0,0,0,.18.56,1.5,1.5,0,0,0,.89.69l.4.05a1.57,1.57,0,0,0,.76-.2Z" transform="translate(-8 -10)"/><path class="cls-1" d="M54.36,35.62l2,.84a1.12,1.12,0,0,0,.55.18,1.22,1.22,0,0,0,.6,0,1.14,1.14,0,0,0,.51-.27,1,1,0,0,0,.39-.42,1.52,1.52,0,0,0,.15-1.16l-.15-.35a1.4,1.4,0,0,0-.54-.54l-2-.84a1.16,1.16,0,0,0-.56-.18,1.12,1.12,0,0,0-.6,0,1.06,1.06,0,0,0-.51.27,1.13,1.13,0,0,0-.39.42,1.54,1.54,0,0,0-.15,1.15l.15.36a1.64,1.64,0,0,0,.54.54Z" transform="translate(-8 -10)"/><path class="cls-1" d="M56.31,32.36a2.17,2.17,0,0,0,.24.07c-.23-.1-.27-.12-.13,0l.07,0,.21.13.14.09-.18-.13c0,.06.13.11.18.16a1.37,1.37,0,0,0,.16.18c-.28-.24-.13-.16,0,0a1,1,0,0,0,.11.21c-.1-.24-.11-.28-.06-.13L57,33a1.82,1.82,0,0,1,.07.25c0,.16.1.33.16.49a3.15,3.15,0,0,0,1,1.39c1.41,1.09,3.32.5,4.75-.22a1.5,1.5,0,0,0,.54-2.05,1.54,1.54,0,0,0-2-.54,3.9,3.9,0,0,1-.42.2s.4-.16.07,0l-.19.07a2.77,2.77,0,0,1-.41.12l-.23.06c-.16,0-.29,0,.1,0-.13,0-.27,0-.4,0-.3,0,.17,0,.16,0a1,1,0,0,1-.2,0q-.15-.06.06,0c.14.06.16.07.06,0s-.15-.18.08.09l-.12-.12c-.08-.08,0,0,.11.16l-.06-.11c-.13-.22,0,0,0,.08a1,1,0,0,0-.07-.24c0-.16-.09-.31-.14-.46a4.18,4.18,0,0,0-.74-1.34,4.11,4.11,0,0,0-2.06-1.33,1.5,1.5,0,0,0-.8,2.9Z" transform="translate(-8 -10)"/><path class="cls-1" d="M60.05,32.55l.49.18c.3.12-.33-.15,0,0l.24.11a10.18,10.18,0,0,1,.92.5l.43.29a1.16,1.16,0,0,0,.21.16c-.1-.05-.26-.2-.07-.05a7.16,7.16,0,0,1,.77.69c.23.23.45.48.66.73s-.21-.29,0,0l.15.21c.1.14.19.28.28.43a9.58,9.58,0,0,1,.49.89,1.6,1.6,0,0,0,.1.23c-.05-.09-.12-.31,0-.08s.13.34.19.52a1.5,1.5,0,0,0,2.89-.8,10.85,10.85,0,0,0-6.85-6.86A1.52,1.52,0,0,0,59,30.7a1.54,1.54,0,0,0,1,1.85Z" transform="translate(-8 -10)"/><path class="cls-1" d="M65.21,34.51c-.21.25-.28-.07.05.19a9.69,9.69,0,0,0,.92.6,20.39,20.39,0,0,1,2,1.48,17,17,0,0,1,3.37,3.75A37.17,37.17,0,0,1,74,45.12c.62,1.3,1.55,3.11.89,4.56a1.53,1.53,0,0,0,.54,2,1.51,1.51,0,0,0,2.05-.54c1.06-2.31.47-4.57-.52-6.8a35,35,0,0,0-3.29-6.12,22.06,22.06,0,0,0-4.76-4.74c-1.48-1.1-4.12-3.09-5.77-1.14a1.5,1.5,0,0,0,2.12,2.12Z" transform="translate(-8 -10)"/><path class="cls-1" d="M59.13,57.08c0,.36,0,0,0-.09a1.91,1.91,0,0,1,.1-.34c-.11.32,0,0,.06-.08l.2-.3c-.15.21,0,0,.08-.08l.22-.23.3-.26c.12-.1-.17.11.06,0a11,11,0,0,1,1.41-.82l.38-.17c-.2.09,0,0,.08,0l.76-.28c2.11-.77,4.52-1.7,5.56-3.87A1.5,1.5,0,0,0,65.78,49a3.69,3.69,0,0,1-.39.66c.2-.26,0,0-.1.08L65,50c-.07.06-.31.23-.1.08l-.33.23c-.23.14-.46.27-.7.39s-.5.24-.75.35L63,51.1l-.39.15c-.53.2-1.07.39-1.59.6-2.34,1-4.62,2.5-4.87,5.23a1.51,1.51,0,0,0,1.5,1.5,1.54,1.54,0,0,0,1.5-1.5Z" transform="translate(-8 -10)"/><path class="cls-1" d="M66,51.14a3.41,3.41,0,0,0,1.06.61,3.31,3.31,0,0,0,.89.14,3.79,3.79,0,0,0,1.77-.46,4.17,4.17,0,0,0,2-2.86,12,12,0,0,0,.22-2,1.52,1.52,0,0,0-1.5-1.5,1.54,1.54,0,0,0-1.5,1.5c0,.39,0,.77-.09,1.16l.05-.4a4.76,4.76,0,0,1-.28,1.11l.15-.36a2.7,2.7,0,0,1-.36.64l.24-.31a2.4,2.4,0,0,1-.39.39l.3-.23a2.84,2.84,0,0,1-.56.33l.36-.15a2.4,2.4,0,0,1-.57.15l.4-.05a1.7,1.7,0,0,1-.45,0l.4.06a1.56,1.56,0,0,1-.37-.1l.36.15a1.11,1.11,0,0,1-.3-.17l.3.23,0,0A1.61,1.61,0,0,0,67,48.58a1.5,1.5,0,0,0-1.5,1.5A1.48,1.48,0,0,0,66,51.14Z" transform="translate(-8 -10)"/><path class="cls-1" d="M71,47.7a4.47,4.47,0,0,0,1-.07,2.52,2.52,0,0,0,.65-.18,4.25,4.25,0,0,0,.91-.44,4.13,4.13,0,0,0,.78-.66,1.56,1.56,0,0,0,.44-1.06,1.5,1.5,0,0,0-2.56-1.06,2.9,2.9,0,0,1-.36.34l.3-.24a2.51,2.51,0,0,1-.61.36l.36-.15a3.17,3.17,0,0,1-.73.2l.4-.05a3.1,3.1,0,0,1-.61,0,1,1,0,0,0-.57.13,1.11,1.11,0,0,0-.49.31,1.56,1.56,0,0,0-.44,1.06A1.54,1.54,0,0,0,70,47.26l.31.23a1.42,1.42,0,0,0,.75.21Z" transform="translate(-8 -10)"/><path class="cls-1" d="M55.2,54.86A15.81,15.81,0,0,1,54.73,53c0,.24,0-.23,0-.24s0-.27,0-.41,0-.55,0-.32,0-.1,0-.15a2.25,2.25,0,0,1,.09-.35c0-.08.18-.38,0-.09.06-.1.11-.21.17-.32s.26-.34,0-.09l.24-.26s.3-.22.13-.11l.2-.11-.05,0,.22-.07c.12,0,.25-.06.37-.09.33-.08-.1,0,.21,0s.78-.09,1.16-.15a7.23,7.23,0,0,0,1.51-.43,8.24,8.24,0,0,0,3-2A1.5,1.5,0,0,0,60,45.61c-.2.21-.42.4-.63.6s-.07.06,0,0l-.22.16-.34.22c-.24.14-.48.26-.73.38.28-.13-.08,0-.14,0l-.39.13-.47.11-.29.06h-.1l-.31,0c-.23,0-.47,0-.7.09a4.44,4.44,0,0,0-1.87.68,4.79,4.79,0,0,0-2,3.11,9.66,9.66,0,0,0,.5,4.42,1.5,1.5,0,0,0,2.89-.79Z" transform="translate(-8 -10)"/><path class="cls-1" d="M55,46.43a12.94,12.94,0,0,0,2.24-.11,4.57,4.57,0,0,0,1.95-.72,4.29,4.29,0,0,0,1.53-1.94,3,3,0,0,0-.16-2.4,1.49,1.49,0,0,0-.9-.69,1.54,1.54,0,0,0-1.15.15,1.52,1.52,0,0,0-.69.9,1.7,1.7,0,0,0,.15,1.15l0,.06-.16-.36a1.58,1.58,0,0,1,.11.37l-.06-.4a1.28,1.28,0,0,1,0,.39l0-.4a1.8,1.8,0,0,1-.12.44l.16-.36a2.62,2.62,0,0,1-.3.51l.23-.31a2.37,2.37,0,0,1-.47.48l.31-.24a2.53,2.53,0,0,1-.62.35l.36-.15a4.79,4.79,0,0,1-1.05.28l.4-.06a12.58,12.58,0,0,1-1.84.06,1.5,1.5,0,0,0-1.5,1.5,1.52,1.52,0,0,0,1.5,1.5Z" transform="translate(-8 -10)"/><path class="cls-1" d="M60.59,44.58a3.85,3.85,0,0,1,.88-.25l-.4.06a3.69,3.69,0,0,1,1,0l-.4-.06a4.49,4.49,0,0,1,1.07.3l-.36-.16a5.12,5.12,0,0,1,.57.3l.26.18c-.43-.28-.09-.07,0,0l.22.23a1.27,1.27,0,0,0,.1.12s-.25-.35-.11-.13a4.59,4.59,0,0,1,.32.57l-.15-.35s0,.07,0,.11a1.64,1.64,0,0,0,.69.9,1.5,1.5,0,0,0,2.21-1.69,4.76,4.76,0,0,0-1.16-1.83,5.66,5.66,0,0,0-1.86-1.18,5.22,5.22,0,0,0-3.79,0,1.72,1.72,0,0,0-.9.69,1.61,1.61,0,0,0-.15,1.16,1.54,1.54,0,0,0,.69.89,1.44,1.44,0,0,0,1.16.16Z" transform="translate(-8 -10)"/><path class="cls-1" d="M64.21,45.06a4.37,4.37,0,0,0,2.23-.64,4.87,4.87,0,0,0,.9-.73,3.85,3.85,0,0,0,.65-.94,1.09,1.09,0,0,0,.18-.55,1.22,1.22,0,0,0,0-.6,1.49,1.49,0,0,0-.69-.9,1.54,1.54,0,0,0-1.15-.15,1.43,1.43,0,0,0-.9.69,2.69,2.69,0,0,1-.28.46l.23-.3a2.78,2.78,0,0,1-.48.49l.3-.23a4,4,0,0,1-.67.39l.36-.15a2.94,2.94,0,0,1-.72.19l.4-.05-.33,0a1.5,1.5,0,0,0-1.06.44,1.52,1.52,0,0,0-.44,1.06,1.5,1.5,0,0,0,.44,1.06,1.54,1.54,0,0,0,1.06.44Z" transform="translate(-8 -10)"/><path class="cls-1" d="M60.77,38.89l-1-.7a1.09,1.09,0,0,0-.55-.18,1.22,1.22,0,0,0-.6,0,1.14,1.14,0,0,0-.51.27,1.06,1.06,0,0,0-.39.42l-.15.36a1.51,1.51,0,0,0,0,.79l.15.36a1.4,1.4,0,0,0,.54.54l1,.7a1.09,1.09,0,0,0,.55.18,1,1,0,0,0,.6,0,1,1,0,0,0,.51-.26,1.31,1.31,0,0,0,.39-.42l.15-.36a1.55,1.55,0,0,0,0-.8l-.15-.36a1.64,1.64,0,0,0-.54-.54Z" transform="translate(-8 -10)"/><path class="cls-1" d="M58.3,40.58a3,3,0,0,0,.78.14,3,3,0,0,0,.79-.06,1.82,1.82,0,0,0,.4-.11,4.32,4.32,0,0,0,.72-.34,3.59,3.59,0,0,0,.61-.48,4.08,4.08,0,0,0,.5-.6,2.22,2.22,0,0,0,.21-.37,3.34,3.34,0,0,0,.26-.71,2.75,2.75,0,0,0,.07-.81,3.13,3.13,0,0,0-.1-.6,3.83,3.83,0,0,0-.22-.56,1.31,1.31,0,0,0-.39-.42,1.26,1.26,0,0,0-.51-.27,1.11,1.11,0,0,0-.6,0,1.16,1.16,0,0,0-.56.18,1.5,1.5,0,0,0-.69.89l0,.4a1.57,1.57,0,0,0,.2.76.25.25,0,0,1,0,.07l-.15-.36a1.77,1.77,0,0,1,.08.31l0-.4a1.53,1.53,0,0,1,0,.37l.06-.4a1.42,1.42,0,0,1-.12.4l.15-.35a1.79,1.79,0,0,1-.25.42l.24-.3a2.11,2.11,0,0,1-.4.39l.3-.23a2.07,2.07,0,0,1-.45.27l.35-.15a1.93,1.93,0,0,1-.47.13l.39-.05h-.38l.4.05a1.06,1.06,0,0,1-.35-.09,1.11,1.11,0,0,0-.6,0,1.14,1.14,0,0,0-.56.17,1.59,1.59,0,0,0-.69.9,1.61,1.61,0,0,0,.15,1.16l.24.3a1.59,1.59,0,0,0,.66.39Z" transform="translate(-8 -10)"/><path class="cls-1" d="M60.86,39.13l.21,0c.17,0,.14,0-.09,0a1.41,1.41,0,0,1,.41.07l.82.17a13.56,13.56,0,0,1,1.52.51q.17.06-.12-.06l.19.09.37.17c.25.13.49.26.72.4a6.2,6.2,0,0,1,.69.44,1.12,1.12,0,0,1,.33.24l-.06-.05.16.13a1.5,1.5,0,0,0,2.12,0,1.53,1.53,0,0,0,0-2.12,13.43,13.43,0,0,0-7.27-3,1.51,1.51,0,0,0-1.5,1.5,1.54,1.54,0,0,0,1.5,1.5Z" transform="translate(-8 -10)"/><path class="cls-1" d="M63.91,56.66a3,3,0,0,1,.52,0l-.4-.05a2.83,2.83,0,0,1,.69.19l-.36-.15A2.55,2.55,0,0,1,65,57l-.3-.23a2.62,2.62,0,0,1,.44.44l-.23-.3a2.39,2.39,0,0,1,.28.49L65,57.05c.13.31.21.63.33.93a3.09,3.09,0,0,0,1.08,1.46,2.31,2.31,0,0,0,2.94-.21,1.5,1.5,0,0,0,0-2.12,1.53,1.53,0,0,0-2.12,0l-.07.07.3-.23-.13.08.36-.16-.15.05.4-.06h-.27l.4,0a1.11,1.11,0,0,1-.26-.07l.36.15a1.38,1.38,0,0,1-.24-.14l.3.23a1.7,1.7,0,0,1-.19-.19l.23.3a2.08,2.08,0,0,1-.2-.36l.15.36c-.19-.47-.31-.95-.53-1.41a3.34,3.34,0,0,0-.86-1.08,4.14,4.14,0,0,0-2.92-1,1.5,1.5,0,0,0,0,3Z" transform="translate(-8 -10)"/><path class="cls-1" d="M65.82,57.21a7.27,7.27,0,0,0,6.39-3.78,1.5,1.5,0,1,0-2.59-1.52,4.37,4.37,0,0,1-.32.55l-.1.15c-.13.18.07-.12.09-.12s-.16.19-.19.23a4.89,4.89,0,0,1-.46.45s-.26.19-.26.22.3-.22.12-.1l-.15.11c-.18.12-.37.23-.56.34l-.28.13-.14.07c.41-.2.21-.09.11,0a6.36,6.36,0,0,1-1.3.33l.4-.06a6.47,6.47,0,0,1-.76.05,1.5,1.5,0,0,0,0,3Z" transform="translate(-8 -10)"/><path class="cls-1" d="M70.57,52c.08.08.15.17.23.26L70.56,52a3.25,3.25,0,0,1,.38.65l-.15-.36a3.84,3.84,0,0,1,.23.82L71,52.69a3.47,3.47,0,0,1,0,.91l.06-.4a3,3,0,0,1-.22.78l.16-.35a3.77,3.77,0,0,1-.41.7,1.52,1.52,0,0,0-.16,1.16,1.54,1.54,0,0,0,.69.89,1.52,1.52,0,0,0,1.16.16l.36-.16a1.61,1.61,0,0,0,.54-.53A4.51,4.51,0,0,0,74,52.94a4.79,4.79,0,0,0-1.3-3A1.5,1.5,0,1,0,70.57,52Z" transform="translate(-8 -10)"/><path class="cls-1" d="M73.09,53.72a3.07,3.07,0,0,0,.77-.52,3.46,3.46,0,0,0,.62-.7,4.06,4.06,0,0,0,.4-.84,3.22,3.22,0,0,0,.15-.92,1.06,1.06,0,0,0-.13-.58,1.36,1.36,0,0,0-.79-.79,1.06,1.06,0,0,0-.58-.13,1.46,1.46,0,0,0-1.06.44l-.23.3a1.45,1.45,0,0,0-.21.76.86.86,0,0,1,0,.16l0-.39a1.51,1.51,0,0,1-.13.46l.15-.36a1.5,1.5,0,0,1-.26.44l.24-.3a2.1,2.1,0,0,1-.37.36l.3-.23a2,2,0,0,1-.43.25,1.12,1.12,0,0,0-.42.39,1.14,1.14,0,0,0-.27.51,1.08,1.08,0,0,0,0,.59,1,1,0,0,0,.17.56,1.55,1.55,0,0,0,.9.69l.4.06a1.58,1.58,0,0,0,.76-.21Z" transform="translate(-8 -10)"/><path class="cls-1" d="M72.49,52.61l.39.51a1,1,0,0,0,.38.42,1.26,1.26,0,0,0,.51.27,1.22,1.22,0,0,0,.6,0,1.12,1.12,0,0,0,.56-.18l.3-.24a1.39,1.39,0,0,0,.39-.66l0-.4a1.5,1.5,0,0,0-.2-.75l-.39-.52a1.21,1.21,0,0,0-.39-.42,1.14,1.14,0,0,0-.51-.27,1.22,1.22,0,0,0-.6,0,1.09,1.09,0,0,0-.55.18l-.31.24a1.51,1.51,0,0,0-.38.66l-.06.4a1.48,1.48,0,0,0,.21.76Z" transform="translate(-8 -10)"/><path class="cls-1" d="M55.73,56.82a6.78,6.78,0,0,0,5,6c3.07,1,6.44,0,9.17-1.52,1.7-.92.18-3.51-1.52-2.59C66.41,59.77,64,60.61,61.82,60a4.79,4.79,0,0,1-2.16-1.22,2.91,2.91,0,0,1-.93-2,1.54,1.54,0,0,0-1.5-1.5,1.51,1.51,0,0,0-1.5,1.5Z" transform="translate(-8 -10)"/><path class="cls-1" d="M69.25,61.6A6,6,0,0,0,73.32,60a5.54,5.54,0,0,0,1.87-3.83,1.5,1.5,0,0,0-3,0l0,.31,0-.4A3.31,3.31,0,0,1,72,57l.15-.36a4.35,4.35,0,0,1-.55,1l.23-.31a4.77,4.77,0,0,1-.84.84l.3-.23a5.11,5.11,0,0,1-1,.6l.36-.15a4.21,4.21,0,0,1-1.09.3l.4,0a4.64,4.64,0,0,1-.64,0,1.51,1.51,0,0,0-1.5,1.5,1.53,1.53,0,0,0,1.5,1.5Z" transform="translate(-8 -10)"/><path class="cls-1" d="M72.59,57.67a5.69,5.69,0,0,0,2.48-.75,6.45,6.45,0,0,0,1.83-1.7,5.22,5.22,0,0,0,.89-4.45,1.5,1.5,0,1,0-2.89.79A3.58,3.58,0,0,1,75,52l0-.4a4.41,4.41,0,0,1,0,.89l0-.4a4.22,4.22,0,0,1-.27,1l.15-.36a4.68,4.68,0,0,1-.37.7l-.11.16c-.18.25.07,0,.07-.09s-.24.28-.29.33l-.29.27s-.26.21,0,0,0,0,0,0a4,4,0,0,1-.73.41l.36-.15a4.24,4.24,0,0,1-1,.29l.4-.06-.21,0a1.68,1.68,0,0,0-1.06.44,1.56,1.56,0,0,0-.44,1.06,1.52,1.52,0,0,0,1.5,1.5Z" transform="translate(-8 -10)"/><path class="cls-1" d="M45.68,64.68A4.06,4.06,0,0,0,47,67.08a6.51,6.51,0,0,0,2.47,1.19,1.88,1.88,0,0,0,.3.12c.23,0,.06.07-.08-.2,0-.1.09-.29,0-.09a1.32,1.32,0,0,0-.09.3,5.64,5.64,0,0,0-.2.81,3.47,3.47,0,0,0,1.19,2.91c1.38,1.51,3.18,2.78,5.32,2.34,1.89-.39,3.29-2.25,4.17-3.85a4.06,4.06,0,0,0-1.75-5.76v2.59a9.15,9.15,0,0,0,4.36-4.94,1.51,1.51,0,0,0-1.05-1.85,1.54,1.54,0,0,0-1.85,1.05,6,6,0,0,1-3,3.15,1.51,1.51,0,0,0,0,2.59c.54.24.93.63.86,1.17a5.05,5.05,0,0,1-1.16,1.92c-.37.47-.88,1-1.53,1a2.88,2.88,0,0,1-1.76-1c-.18-.18-.75-.62-.82-.88s.08-.43.14-.67a2.7,2.7,0,0,0-.67-2.78c-1.08-1-3-.64-3.29-2.33a1.5,1.5,0,0,0-1.84-1.05,1.54,1.54,0,0,0-1,1.85Z" transform="translate(-8 -10)"/><path class="cls-1" d="M60.36,71.32a17.23,17.23,0,0,1,5.35-2.13,18.85,18.85,0,0,0,5.61-1.63,7.79,7.79,0,0,0,3.62-8.75c-.54-1.85-3.44-1.06-2.89.8a4.83,4.83,0,0,1-3.14,5.77c-1.6.56-3.3.71-4.94,1.14a19.54,19.54,0,0,0-5.12,2.21c-1.65,1-.14,3.61,1.51,2.59Z" transform="translate(-8 -10)"/><path class="cls-1" d="M61.11,66.49a18.17,18.17,0,0,1,9.09-2.64,1.5,1.5,0,0,0,0-3,21.3,21.3,0,0,0-10.6,3A1.52,1.52,0,0,0,59.06,66a1.51,1.51,0,0,0,2,.53Z" transform="translate(-8 -10)"/><path class="cls-1" d="M38.18,68.29l8.87-.24a1.5,1.5,0,0,0,0-3l-8.87.24a1.5,1.5,0,1,0,0,3Z" transform="translate(-8 -10)"/><path class="cls-2" d="M75.77,46a35.54,35.54,0,0,0-6.48-10.63,6.34,6.34,0,0,0-2.58-2.07,2.73,2.73,0,0,0-1.95.05,6,6,0,0,0-.62.37,12.89,12.89,0,0,0-2.29-1.8,14.44,14.44,0,0,0-2-1.44,16.36,16.36,0,0,0-6.71-2.23,1.39,1.39,0,0,0-1.22.55,3.21,3.21,0,0,0-1.78.46,1.42,1.42,0,0,0-.77,1.46,1.39,1.39,0,0,0,1,1.11c0,.07.05.2.06.24l0,.35c0-.31,0,0,0,.1,0,.34-.05.68-.06,1a16.23,16.23,0,0,0,.53,4.86,1.68,1.68,0,0,0,.42.75l0,.13c0,.16-.16.54-.23.8a7.06,7.06,0,0,0-.28,1.29A8.29,8.29,0,0,0,52,46a20.9,20.9,0,0,0,1.74,4.73,7.42,7.42,0,0,0-.56,2.58,8.34,8.34,0,0,0-.9-1.44l-1.13-1.52c-.38-3-.68-6-1.14-9a13.48,13.48,0,0,0-.5-2.09,12.29,12.29,0,0,0-1.23-4l-.1-.22a2.67,2.67,0,0,0-.39-2,2.38,2.38,0,0,0,.34-1.52,2.19,2.19,0,0,0-1.74-1.72,4.13,4.13,0,0,0-2.38.26,11,11,0,0,0-3.89,2.59c-.51.49-1,1-1.48,1.53a2,2,0,0,0-.38.2,12.34,12.34,0,0,0-3.32,3.16,32.09,32.09,0,0,0-2.74,2.33,34.71,34.71,0,0,0-3.52,3.85c-.52.66-1,1.34-1.5,2.06a4.79,4.79,0,0,0-.8,2.92,5.45,5.45,0,0,0,.79,2.63,1.64,1.64,0,0,0-.36.55,4.77,4.77,0,0,0,.86,4.61A4.93,4.93,0,0,0,29,57.77c0,.06,0,.12,0,.19a8.69,8.69,0,0,0,.07,1.77,4.35,4.35,0,0,0,1.81,2.75,5.38,5.38,0,0,0,1.39.67A6,6,0,0,0,35,65.43,4.81,4.81,0,0,0,35,68.36a5,5,0,0,0,2.86,2.78,9.33,9.33,0,0,0,4.48.41c.78-.07,1.57-.18,2.35-.21a6.68,6.68,0,0,1,2,.23,1.49,1.49,0,0,0,.86,0,3,3,0,0,0,1.78-.07A2.83,2.83,0,0,0,51,67.78a3.23,3.23,0,0,0-1.56-1.45c-.22-.12-.46-.21-.69-.31l-.35-.14c-.09,0-.13-.07-.11,0a.41.41,0,0,0-.11-.07l-.32-.24-.11-.09s0,0-.08-.1L47.38,65,47.32,65l0-.09a2.53,2.53,0,0,1-.18-.37,2.07,2.07,0,0,0-.09-.24c0-.11,0-.21-.06-.32s0-.56,0-.31v-.14a4.63,4.63,0,0,0,.48-.4,4.31,4.31,0,0,0,1.14-1.91,4.66,4.66,0,0,0,.81-3.66c1.08.37,2.36.58,3.11-.52a1.76,1.76,0,0,0,.32-1.11,1.15,1.15,0,0,0,.22-.22,2.19,2.19,0,0,0,.31-.55,6.38,6.38,0,0,0,.79,2,1.41,1.41,0,0,0,1.07.79,1.32,1.32,0,0,0,1.23-.55,5.6,5.6,0,0,0,.85-2.4,2.61,2.61,0,0,0,.5.11,2.77,2.77,0,0,0,.5,0,3.84,3.84,0,0,0-1.06,3.07,1.36,1.36,0,0,0,1.29,1.14A3.19,3.19,0,0,0,59.81,61a4.28,4.28,0,0,0,1.57.59c-.56,1.1-1.15,2.18-1.76,3.25a2.1,2.1,0,0,0-1.32.7.71.71,0,0,0,.63,1.23,1.09,1.09,0,0,0-.06.44,1.4,1.4,0,0,0,.12.52A2.48,2.48,0,0,0,58.77,69a1.06,1.06,0,0,0,1.46.82c.57-.22,1.07-.55,1.66-.74,2.12-.69,4.46-.7,6.36-1.92l.73,0a5.21,5.21,0,0,0,3.85-2,4,4,0,0,0,.61-3.42,4.54,4.54,0,0,0,.19-1,2.94,2.94,0,0,0-.36-1.78,1.74,1.74,0,0,0-.38-.47,6.69,6.69,0,0,0,.71-2.27,5.51,5.51,0,0,0,2.26-2.46,5.41,5.41,0,0,0,.42-3.07,4.59,4.59,0,0,0,.31-2.68A3.44,3.44,0,0,0,75.77,46ZM29,48.48a1.63,1.63,0,0,1,0-.39A2.56,2.56,0,0,0,29,48.48Zm5.3,10.32-.68-.32h.28c.15.07.29.15.43.23Zm11.5-4.35a.35.35,0,0,0-.05-.08s.07,0,.06.08S45.89,54.65,45.81,54.45Zm15-1.07,0,.07-.15,0Z" transform="translate(-8 -10)"/><path class="cls-2" d="M60.6,63.28a.81.81,0,0,0,.15-.35,1.24,1.24,0,0,0,.16-1c-.18-.79-1-.91-1.6-1.36a2.77,2.77,0,0,1-1-1.71.76.76,0,0,0-.17-.36,14.45,14.45,0,0,0,.07-2.71.69.69,0,0,0-1.12-.43,3.92,3.92,0,0,0-1,1.38c-.16.33-.32.87-.66,1.07s-.83-.19-1.07-.48c-.4-.49-.58-1.16-1.13-1.5a1,1,0,0,0-1.56.64c0,.1-.05.2-.07.3a.63.63,0,0,0-.37.47,8.58,8.58,0,0,0-.82.37l-.09.06a.75.75,0,0,0-.78-.14.73.73,0,0,0-.35.94,3,3,0,0,1-.52,2.71,7.35,7.35,0,0,1-1.25,1,2.65,2.65,0,0,0-.93,1.41c-.26,1.21.71,2,1.73,2.31a7.87,7.87,0,0,1,2.28.72,3.45,3.45,0,0,1,.86,2.23c0,.25,0,.47-.07.65a2.2,2.2,0,0,0-.44.65c-.31.79.32,1.47.89,1.91a4.28,4.28,0,0,0,1.31.67,3,3,0,0,0,2.92.38,4.61,4.61,0,0,0,2.78-3.07,3.46,3.46,0,0,0-.18-2.25A9.57,9.57,0,0,0,57.93,66a.79.79,0,0,0,.69-.28,8.77,8.77,0,0,0,.56-.68l1-1.21Zm-12.44,1.1a.45.45,0,0,1-.12-.66c0,.07,0,.14,0,.21a.78.78,0,0,0,.14.46Zm11-1.89a.63.63,0,0,0-.07-.38c.07,0,.24.16.37.22A.52.52,0,0,0,59.13,62.49Zm-2.33-4,0,.27-.13-.08A1.46,1.46,0,0,0,56.8,58.52Zm-3.88-1h0c0,.08.09.16.12.22l.09.14-.2-.11a.54.54,0,0,1-.07-.13Zm2.82,13.67v-.08l.06,0Zm1.06-1.13,0-.35a.76.76,0,0,0,.22-.11A2.54,2.54,0,0,1,56.8,70.08Z" transform="translate(-8 -10)"/><path class="cls-3" d="M46.84,56.3A24.32,24.32,0,0,0,42.75,55a9.58,9.58,0,0,0-2.14-.19c-.74,0-1.46.22-2.2.27a4.75,4.75,0,0,1-2.66-1,6.3,6.3,0,0,0-3.23-1.21c-.8,0-1.59.23-2.38.18a1.13,1.13,0,0,1-1.1-.62.83.83,0,0,0-.6-.52l0,0a.14.14,0,0,0-.26,0,.94.94,0,0,0-.34.08,1,1,0,0,0-.46,1.24,3.09,3.09,0,0,0,3.24,1.71,11.53,11.53,0,0,1,2.19-.15,4.13,4.13,0,0,1,1.34.51,13.65,13.65,0,0,0,3,1.58c1.44.39,2.84-.22,4.29-.1A17.62,17.62,0,0,1,46.17,58,.93.93,0,0,0,46.84,56.3Z" transform="translate(-8 -10)"/><path class="cls-3" d="M40.92,46.11a2.29,2.29,0,0,0-2.58,1.18,4.34,4.34,0,0,0,.09,3.61c.25.68,1.26.21,1-.47a3.56,3.56,0,0,1-.23-2.38c.18-.49.74-1,1.31-.9S41.61,46.28,40.92,46.11Z" transform="translate(-8 -10)"/><path class="cls-3" d="M48.22,40.45a2.2,2.2,0,0,0-2.72-1.4,6.75,6.75,0,0,0-1.67.77A4.18,4.18,0,0,1,42,36.43c0-.47-.74-.56-.73-.08a4.86,4.86,0,0,0,.19,1.33L39.5,38a.38.38,0,0,0,.12.74l2.06-.33a5,5,0,0,0,1.4,1.78,2.18,2.18,0,0,1-1.38.14c-.7-.18-.93.92-.24,1.1a4.45,4.45,0,0,0,3.25-.85c.68-.36,2.18-.93,2.46.24C47.33,41.51,48.39,41.15,48.22,40.45Z" transform="translate(-8 -10)"/><path class="cls-3" d="M37.56,37.88A8.33,8.33,0,0,1,33,43.34a.37.37,0,0,0,.31.68,9,9,0,0,0,5-5.87C38.38,37.69,37.69,37.42,37.56,37.88Z" transform="translate(-8 -10)"/><path class="cls-3" d="M38.37,42.36a.78.78,0,0,1-.72-.55.37.37,0,0,0-.67.31,1.46,1.46,0,0,0,1.31,1,.38.38,0,0,0,.41-.33A.38.38,0,0,0,38.37,42.36Z" transform="translate(-8 -10)"/><path class="cls-3" d="M57.09,33.21a1.91,1.91,0,0,0-2.09,0,4.3,4.3,0,0,0-1.5,2c-.21.44.49.71.69.28.4-.84,1.34-2.4,2.46-1.63C57.05,34.08,57.48,33.48,57.09,33.21Z" transform="translate(-8 -10)"/><path class="cls-3" d="M64.45,33.35c-.32-.35-.9.12-.58.47a5,5,0,0,1,1.33,3.54c0,.48.72.57.73.09A5.76,5.76,0,0,0,64.45,33.35Z" transform="translate(-8 -10)"/><path class="cls-3" d="M73.1,45.05a2.36,2.36,0,0,1-1.43,2.13l-.09,0-.1,0a.38.38,0,0,0-.26.26,1.08,1.08,0,0,0-.11,1,1.54,1.54,0,0,1-.35,1.4,1.56,1.56,0,0,1-1.59.39.77.77,0,0,0-.55.11.89.89,0,0,0-1.1.53,2,2,0,0,1-1.18.91c-.68.27-1.41.43-2.1.66a21,21,0,0,0-4.65,2.18,7.62,7.62,0,0,0-.9.64,1.27,1.27,0,0,0-1.85,0,3.57,3.57,0,0,0-.68,1.31c-.19.51-.46,1.14-1.11,1-1.31-.2-1.29-2.15-1.34-3.14A23.77,23.77,0,0,1,53.82,51a.35.35,0,0,0,.21-.19,4.58,4.58,0,0,1,1.52-1.66A8.84,8.84,0,0,1,58,48.29c1.24-.35,2.58-1.08,2.71-2.53a.37.37,0,0,0-.73-.08c-.15,1.66-2.28,1.87-3.5,2.25a5.15,5.15,0,0,0-2.77,2,.37.37,0,0,0-.08-.22,4.65,4.65,0,0,1-.54-1.5,4.43,4.43,0,0,0-.66-1.3,6.6,6.6,0,0,1-1.36-3,7.17,7.17,0,0,1,.31-3.22,27.17,27.17,0,0,0,1-3.05c.09-.48-.65-.56-.74-.09a5.75,5.75,0,0,1-.22.84c-.85-2.41-1.56-5.26.25-7.37.31-.36-.29-.8-.6-.44-2.19,2.56-1.08,6.1,0,8.9-.12.3-.24.61-.34.93Q49.57,38.17,48.24,36a.38.38,0,0,0,.34-.42,5.64,5.64,0,0,0-1.08-3.19A2.45,2.45,0,0,0,45,31.56c-.45.13-.34.87.12.74a1.8,1.8,0,0,1,2,.79,5.34,5.34,0,0,1,.73,2.48.25.25,0,0,0-.17,0,.3.3,0,0,0-.16-.26,4.82,4.82,0,0,0-5-.05c-.4.25-.1.94.31.69a4.07,4.07,0,0,1,4.29,0,.34.34,0,0,0,.35,0,.38.38,0,0,0,.07.22,56,56,0,0,1,2.77,5,.31.31,0,0,0,.17.17,7.54,7.54,0,0,0-.06,2.8A6.6,6.6,0,0,0,51,46.11a.42.42,0,0,0,0,.23,7.65,7.65,0,0,1-.09,3.3,5.37,5.37,0,0,0-.71-.57,2.46,2.46,0,0,0-2-.17,11.05,11.05,0,0,1-2,.46,8.24,8.24,0,0,1-4.74-1c-.63-.34-1,.71-.4,1a9.19,9.19,0,0,0,6.86.74c.74-.22,1.38-.5,2,.06a6.75,6.75,0,0,1,2.57,4.06c.15,1.38-.82,3-2.35,2.62a.47.47,0,0,0-.47.15c-1.28-1-2.55-2-3.86-2.94-1.1-.82-2.52-1.51-3.84-.78-.42.23-.11.92.3.68,1.31-.72,2.61.32,3.62,1.09l3.68,2.81a.35.35,0,0,0,.3.07l.14,0a3,3,0,0,0,3.16-1.59l0-.1a3,3,0,0,0,.76,1.5,1.64,1.64,0,0,0,2.5-.09A6,6,0,0,0,57,56.34a1.22,1.22,0,0,1,.54-.68.39.39,0,0,1,.57.21,2.8,2.8,0,0,0-.25.41,3.38,3.38,0,0,0-.25,2.08,4.53,4.53,0,0,0,2.92,3.27,7.72,7.72,0,0,0,1.47.43l-.12,0a1,1,0,0,0-.77,1.07.94.94,0,0,0,1.06.78,29.55,29.55,0,0,0,5.6-2.11,1.8,1.8,0,0,1,1.14-.2,4.56,4.56,0,0,0,1.33-.08,4.46,4.46,0,0,0,2.27-1.26A1,1,0,0,0,72.68,59a.91.91,0,0,0-1.3-.13,2.83,2.83,0,0,1-1.82.93c-.42,0-.83-.07-1.26,0a3.31,3.31,0,0,0-1.26.39l-.43.21a1,1,0,0,0-1.13-.3,6.35,6.35,0,0,1-4-.07,2.7,2.7,0,0,1-2-2.15c-.06-1.23,1.42-1.8,2.31-2.27a21.45,21.45,0,0,1,4.06-1.61,5.34,5.34,0,0,0,3.14-1.82h0A3.32,3.32,0,0,0,72.22,51a3.49,3.49,0,0,0,.58-3.31.68.68,0,0,0-.14-.25,3,3,0,0,0,1.17-2.31C73.84,44.65,73.11,44.56,73.1,45.05ZM53,52.33a8.26,8.26,0,0,0-1.26-1.79l-.25-.28a8.38,8.38,0,0,0,.37-2.85,4.4,4.4,0,0,1,.63,1.39,4.23,4.23,0,0,0,.59,1.42.28.28,0,0,0,.1.09C53.07,51,53,51.66,53,52.33Z" transform="translate(-8 -10)"/><path class="cls-3" d="M70.83,54.68A5.75,5.75,0,0,1,66.48,56a.35.35,0,0,0-.39.32A3.49,3.49,0,0,0,65,56.27c-.48,0-.36.78.11.74a2.87,2.87,0,0,1,2.26.81c.33.34.91-.13.57-.47a3.63,3.63,0,0,0-.69-.55,6.47,6.47,0,0,0,4.08-1.54C71.67,55,71.2,54.37,70.83,54.68Z" transform="translate(-8 -10)"/><path class="cls-3" d="M68.79,64.28c-3.57-2.06-7.32.52-10.7,1.68-.45.16-.14.84.31.68,3-1,6.72-3.62,9.95-1.75C68.76,65.13,69.2,64.52,68.79,64.28Z" transform="translate(-8 -10)"/><path class="cls-3" d="M65.21,42.47A8.07,8.07,0,0,1,63.64,44a3.56,3.56,0,0,0-4.13-1.2c-.44.17-.14.86.3.68a2.88,2.88,0,0,1,3.31,1,.38.38,0,0,0,.21.35,2,2,0,0,1,.16.4c.13.45.87.34.73-.12a3,3,0,0,0-.19-.5,8.78,8.78,0,0,0,1.78-1.72C66.11,42.53,65.51,42.09,65.21,42.47Z" transform="translate(-8 -10)"/><path class="cls-4" d="M65.86,55.7a7.62,7.62,0,0,0-7.07-7.89,7.24,7.24,0,0,0-5.26,2.09,7.43,7.43,0,0,0-2.31,5.16A8.28,8.28,0,0,0,53.5,60.7a8.53,8.53,0,0,0,2.35,1.78,2.28,2.28,0,0,0,1.89.12l.18,0a7.1,7.1,0,0,0,5.44-1.86A7.62,7.62,0,0,0,65.86,55.7Z" transform="translate(-8 -10)"/><path class="cls-4" d="M49.45,49.69a7.22,7.22,0,0,0-5.53-1.29,7.39,7.39,0,0,0-4.86,3A7.49,7.49,0,0,0,37.9,57a7.41,7.41,0,0,0,3,4.78,8,8,0,0,0,5.9,1.16,8.49,8.49,0,0,0,2.76-1,2.39,2.39,0,0,0,1.14-1.55l.11-.13a7.35,7.35,0,0,0,1.45-5.64A7.64,7.64,0,0,0,49.45,49.69Z" transform="translate(-8 -10)"/><path class="cls-5" d="M46,51a1.39,1.39,0,0,0-1.64-.29c-.65.37-.64,1.11-.57,1.77L44,54.84c.09.79.17,1.58.27,2.37.08.62.39,1.27,1.09,1.33,1.79.15.89-2.65.59-3.52a.57.57,0,0,0-.58-.41l-.14-1.26a.69.69,0,0,0,1.16-.43A2.4,2.4,0,0,0,46,51Z" transform="translate(-8 -10)"/><path class="cls-5" d="M59.53,50.91a1.37,1.37,0,0,0-1.64-.29c-.66.36-.64,1.11-.57,1.77l.27,2.37c.09.79.16,1.58.27,2.37.08.62.39,1.27,1.09,1.33,1.79.15.89-2.65.58-3.52a.55.55,0,0,0-.57-.42l-.15-1.26A.69.69,0,0,0,60,52.84,2.39,2.39,0,0,0,59.53,50.91Z" transform="translate(-8 -10)"/><path class="cls-6" d="M42.93,59.92A4,4,0,0,1,42,55.77a.6.6,0,0,0-1.12-.44A5.22,5.22,0,0,0,42,60.7C42.54,61.25,43.48,60.48,42.93,59.92Z" transform="translate(-8 -10)"/><path class="cls-6" d="M56.3,59.93a4.39,4.39,0,0,1-2.44-3c-.19-.75-1.38-.57-1.19.2a5.71,5.71,0,0,0,3.19,3.89C56.57,61.39,57,60.25,56.3,59.93Z" transform="translate(-8 -10)"/><path class="cls-3" d="M66.49,39.59a3,3,0,0,1-2.06-1.12,8.86,8.86,0,0,0-2-1.64c-2.07-1.08-4.21.41-6.15,1.07a.42.42,0,0,0,.27.8c1.89-.64,4.09-2.24,6-.8,1.26,1,2.22,2.57,4,2.53C67.08,40.42,67,39.58,66.49,39.59Z" transform="translate(-8 -10)"/><path class="cls-7" d="M45.59,46a11.62,11.62,0,0,1-6.8,3.22c-.68.07-.68,1.14,0,1.06a12.78,12.78,0,0,0,7.55-3.52A.53.53,0,0,0,45.59,46Z" transform="translate(-8 -10)"/><path class="cls-3" d="M47.84,45.91a3.13,3.13,0,0,0-3.63-2.41c-.67.12-.38,1.15.29,1a2.05,2.05,0,0,1,2.31,1.67C46.94,46.87,48,46.58,47.84,45.91Z" transform="translate(-8 -10)"/><path class="cls-3" d="M36,69.82a114.1,114.1,0,0,1-19.09,7.31,1.59,1.59,0,0,0-.41-.36,23.42,23.42,0,0,0-5.68-2.44,1.22,1.22,0,0,0-.85,0,1.81,1.81,0,0,0-1.91,1.1c-.35,1.08.83,1.77,1.67,2.28a14,14,0,0,0,5.92,1.92.88.88,0,0,0,.7-.25,118.21,118.21,0,0,0,20.89-7.84C38.59,70.89,37.36,69.16,36,69.82Z" transform="translate(-8 -10)"/><path class="cls-3" d="M87.4,73.74a1.53,1.53,0,0,0-2.05-.68c-1.94,1.09-3.92,2.14-5.92,3.15a3,3,0,0,1-.68-.23c-1.58-.76-3.07-1.69-4.55-2.55q-4.56-2.66-8.9-5.5a1.68,1.68,0,0,0-2,0,1,1,0,0,0,0,1.62c3.4,2.22,6.87,4.37,10.43,6.41l2.68,1.51a8,8,0,0,0,2.69,1.06h0a.88.88,0,0,0,.5.11,11.17,11.17,0,0,0,1.74-.2,4,4,0,0,0,2.67-.9,10.07,10.07,0,0,0,3.11-2.34,1.27,1.27,0,0,0,.2-.31A1.15,1.15,0,0,0,87.4,73.74Zm-2.76.31c0-.16.26-.08,0,0Z" transform="translate(-8 -10)"/><path class="cls-3" d="M19.72,44.68a17.57,17.57,0,0,1,7.64-.3,1.25,1.25,0,0,0,1-.28,5.43,5.43,0,0,0,3.26-1.34c.42-.37,0-1-.56-.9a4.11,4.11,0,0,0,.27-.51c.19-.44-.47-.85-.89-.61a9.54,9.54,0,0,0-2.44,2,.32.32,0,0,0-.14,0,21.48,21.48,0,0,0-8.15.13,8.74,8.74,0,0,0-5.12,3.45,5.65,5.65,0,0,0,.19,6A14.6,14.6,0,0,0,17,55.09a11.6,11.6,0,0,0,2.76,2.18c2.38,1.33,5.33,1.5,8.09,1.38a.87.87,0,1,0,0-1.74,15,15,0,0,1-6.12-.69,10.88,10.88,0,0,1-4.54-3.78c-1.07-1.43-1.86-3.19-1.09-4.87A6.08,6.08,0,0,1,19.72,44.68Z" transform="translate(-8 -10)"/><path class="cls-5" d="M63.14,47.82a6,6,0,0,1-7.1-3c-.31-.61-1.23-.07-.92.54a7.07,7.07,0,0,0,8.3,3.49C64.07,48.64,63.79,47.61,63.14,47.82Z" transform="translate(-8 -10)"/><path class="cls-3" d="M91,71l-3.69,0c-.59,0-1.18,0-1.76,0s-.7-.3-1-.64a33,33,0,0,1-3.84-5,39.25,39.25,0,0,1-2.81-5.52,23.93,23.93,0,0,0-3-5.46,1.14,1.14,0,0,0-1.45-.35,1,1,0,0,0-.39,1.35c2.16,2.73,3.06,6.1,4.68,9.1a34.9,34.9,0,0,0,2.85,4.41c.54.7,1.1,1.39,1.68,2.06a6.14,6.14,0,0,0,2,1.79,8.22,8.22,0,0,0,3.13.24L91,73A1,1,0,1,0,91,71Z" transform="translate(-8 -10)"/><path class="cls-7" d="M55.14,63.91l-6.32.24c-.68,0-.69,1.09,0,1.07L55.14,65C55.82,65,55.83,63.89,55.14,63.91Z" transform="translate(-8 -10)"/><path class="cls-3" d="M36.06,65.37A8.36,8.36,0,0,1,43,67a.37.37,0,0,0,.47-.58A9,9,0,0,0,36,64.63C35.52,64.73,35.59,65.47,36.06,65.37Z" transform="translate(-8 -10)"/><path class="cls-3" d="M36.2,58.4a8,8,0,0,1-1.56,1.52,3.58,3.58,0,0,0-4.14-1.2c-.44.18-.14.86.31.68a2.87,2.87,0,0,1,3.3,1,.44.44,0,0,0,.22.36,2.26,2.26,0,0,1,.15.39c.14.45.87.34.73-.12a3.54,3.54,0,0,0-.18-.49,9.06,9.06,0,0,0,1.77-1.73C37.1,58.47,36.5,58,36.2,58.4Z" transform="translate(-8 -10)"/><path class="cls-5" d="M48.44,11.76a20.85,20.85,0,0,1,6.37-.7c.91,0,.91-1,0-1a22.45,22.45,0,0,0-6,.54,12.65,12.65,0,0,0-4.78,1.92c-1.07.84-1.46,2-.6,3.06a5.19,5.19,0,0,0,2.36,1.4c-.16.15-.31.29-.45.45-.49.57-1,1.39-.75,2.08s1.15.88,1.91,1.12l.9.26c-.66,1.29.53,2.87,2.37,3.14.88.13,1.26-.88.37-1-1-.15-1.88-1.07-1.38-1.83a7.39,7.39,0,0,0,3.67-.22.45.45,0,0,0,.14-.82A4.24,4.24,0,0,0,48.3,20l-.73-.2c-.55-.16-1.68-.34-1.57-.89a2.77,2.77,0,0,1,.89-1.27,3.27,3.27,0,0,1,.35-.3l.12,0a24.8,24.8,0,0,0,3.13.42,12.75,12.75,0,0,0,2.83,0c1.35-.21,2.56-1.33,1-2a8.6,8.6,0,0,0-7.38.38c-1.24-.32-2.54-.88-2.54-1.85C44.4,12.94,47,12.15,48.44,11.76Zm5.07,4.88c-.69.38-3.43.06-4.72-.12A7.09,7.09,0,0,1,53.51,16.64Z" transform="translate(-8 -10)"/></svg>