<svg id="Camada_1" data-name="Camada 1" xmlns="http://www.w3.org/2000/svg" viewBox="0 0 45.75 67.28"><defs><style>.cls-1{fill:#ea5876;}.cls-2{fill:#c03455;}.cls-3{fill:#671129;}.cls-4{fill:#e52452;}.cls-5{fill:#6163a9;}.cls-6{fill:#f0dde3;}.cls-7{fill:#beaeb3;}.cls-8{fill:#f9f2a7;}.cls-9{fill:#fff;}.cls-10{fill:#28151b;}</style></defs><path class="cls-1" d="M32.27,49.46c-.85-.38-1.11-1.83-1.41-2.64a8.86,8.86,0,0,1-.58-2.53,9.3,9.3,0,0,1,1-4.83,10.69,10.69,0,0,1,3.52-3.74c1.16-.84,1.22-2.16,1.83-3.38A11.49,11.49,0,0,1,44,26.48c.19-.05,1-.34,1.16-.24s0,.92,0,1.17c-.17,1-.31,2.07-.51,3.09-.34,1.68-2,2.55-2.42,4.22,0,.18-.12,1.11-.25,1.2l-.62-.41c-.52-.1-.72-.36-.61-.79,0-.13,0-.28,0-.41a1.49,1.49,0,0,0-.6-1.14,1.43,1.43,0,0,0-1.39.18c-1,.5-2,1.09-3,1.63a.11.11,0,0,0,.11.2,21.19,21.19,0,0,1,2.8-1.53c2.55-.91,1.46,1.23,2,2.25.25.47,1,1,1.47.45.13-.14.12-.69.16-.89a6.86,6.86,0,0,1,.32-1.18c.38-1,1.17-1.47,1.74-2.3A5.63,5.63,0,0,0,45,29.74l.6-3.63a.12.12,0,0,0-.14-.14,12.14,12.14,0,0,0-7.11,3.58,10.59,10.59,0,0,0-2.16,3.26c-.25.59-.36,1.29-.66,1.85-.42.78-1.34,1.17-2,1.71a9.63,9.63,0,0,0-3.45,6.46,8.79,8.79,0,0,0,.48,3.87c.33.91.6,2.51,1.59,3,.13.06.24-.14.11-.2Z" transform="translate(-30 -17.92)"/><path class="cls-1" d="M32.34,50a1.27,1.27,0,0,0,.95-1.2c.08-.53,0-1.13.35-1.57a2.39,2.39,0,0,1,1.28-.55,6.84,6.84,0,0,0,2.31-.93A14.47,14.47,0,0,0,39,44.08a1.22,1.22,0,0,1,1.06-.4c.19,0,.39.08.58.09a.92.92,0,0,0,.58-.17c.49-.36.53-1.25.84-1.74a2.1,2.1,0,0,0,.55-1.62.9.9,0,0,0-.9-.76l.1.17A2.31,2.31,0,0,0,41,36.5a.11.11,0,0,0-.11.2,2.08,2.08,0,0,1,.8,2.83.11.11,0,0,0,.09.17c.6,0,.81.66.67,1.13a4,4,0,0,1-.57,1c-.33.55-.36,1.66-1.17,1.71-.56,0-.93-.26-1.47.1a15,15,0,0,0-1.35,1.3,6.09,6.09,0,0,1-2,1.22c-.56.2-1.17.24-1.73.47a1.44,1.44,0,0,0-.92,1c-.21.73.14,1.93-.9,2.13-.14,0-.08.25.06.22Z" transform="translate(-30 -17.92)"/><path class="cls-1" d="M32.26,49.7c-.77,3.75,2.05,6.64,4.52,9,3.24,3.13,6.37,6.55,9.92,9.33,2.7,2.12,6.09,3.72,9.59,2.94,3.8-.85,5.77-4.89,7.82-7.82.08-.12-.11-.23-.2-.11-2.06,2.94-4,7-7.88,7.76s-7.38-1.35-10.16-3.74-5.3-5-7.91-7.53-6.34-5.64-5.48-9.8c0-.15-.19-.21-.22-.06Z" transform="translate(-30 -17.92)"/><path class="cls-1" d="M64.11,62.73l-.28.38.19.12,2-3.76A24.77,24.77,0,0,0,67.82,56c.76-2.15-.23-4.3-1.6-6-.1-.11-.25,0-.16.16a7.78,7.78,0,0,1,1.67,3.11,5,5,0,0,1-.47,3.44C66.21,58.93,65,61,63.83,63.11a.11.11,0,0,0,.19.12l.28-.39c.09-.12-.11-.23-.19-.11Z" transform="translate(-30 -17.92)"/><path class="cls-1" d="M61,49.33c.45,1.11,2.08.88,3,.8a4.51,4.51,0,0,0,3.68-1.85,3.92,3.92,0,0,0,0-3.93,6.8,6.8,0,0,0-1.58-1.84,13.3,13.3,0,0,0-2-1.67,1.61,1.61,0,0,0-1.74-.06.86.86,0,0,0-.14,1.29l.08-.19a4.2,4.2,0,0,0-2.91,1.6c-.66.69-1.55,1.62-1.08,2.67a1.2,1.2,0,0,0,.32.45c.27.22.39.15.38.56a2.22,2.22,0,0,0,.15,1.27,2,2,0,0,0,2.43.9.11.11,0,0,0-.06-.22,1.75,1.75,0,0,1-2.35-1.39c0-.29.18-.65.07-.92s-.51-.34-.68-.63c-.58-1,.41-1.94,1-2.59a3.94,3.94,0,0,1,2.7-1.48.11.11,0,0,0,.08-.19c-.52-.54.14-1.11.68-1.13a1.79,1.79,0,0,1,1.07.34,16.93,16.93,0,0,1,1.89,1.61,4.74,4.74,0,0,1,2,4,3.5,3.5,0,0,1-2.86,3A10.71,10.71,0,0,1,63,50c-.6,0-1.46,0-1.72-.7,0-.13-.27-.08-.22.06Z" transform="translate(-30 -17.92)"/><path class="cls-1" d="M67.94,45.24a6.67,6.67,0,0,0,.62-3.65A8.27,8.27,0,0,1,68.25,40c-.1-.43.16-.57.79-.42.47-.32.81-.28,1,.12.13.09.23.23.36.32,1.18.86,2-.47.78-1.06a.11.11,0,0,0-.15.15c.52,1,2.19,2.49,2.88.77a1.59,1.59,0,0,0-.2-1.49,8.1,8.1,0,0,0-1-1c.27-.24,2,0,2.38,0a.11.11,0,0,0,.1-.06,1.82,1.82,0,0,0-2.45-2.4.11.11,0,0,0,0,.22c1.17,0,.75-2-.74-1.48-.63.21-.68.7-.29-.06a4.68,4.68,0,0,0,.52-2c0-1.16-.87-1.15-1.86-1.15-6.43,0-12.27,4.51-18.78,3.15-.14,0-.2.18-.06.21,3.53.74,7-.27,10.31-1.33a44.7,44.7,0,0,1,5.44-1.5,15.28,15.28,0,0,1,3.09-.31c1.07,0,1.78.54,1.51,1.7a7.13,7.13,0,0,1-.76,1.88c-.07.11.08.21.17.13.39-.55.77-.5,1.14.13A1.23,1.23,0,0,0,74,35l.76.41c.5.4.55.81.16,1.23-.35.68-.48.51-1.2.53l-1.4,0a.11.11,0,0,0,0,.21,4.67,4.67,0,0,1,1.12.9l.45,1-1.24,1.09c-.68,0-.8-1.12-1.19-1.13l-.72.66a3,3,0,0,1-.56-.51c-.43-.41-1.05-1-1.69-.59-.47.31-.44,1-.37,1.45.27,1.78.47,3.14-.32,4.85-.06.14.14.25.2.12Z" transform="translate(-30 -17.92)"/><path class="cls-1" d="M50,39.88c-.87-1-.54-2.51,0-3.58a7.55,7.55,0,0,1,2.07-2.56c1.64-1.32,4.32-1.78,5.87,0,.09.11.25-.05.16-.16-1.63-1.84-4.46-1.35-6.19,0a7.67,7.67,0,0,0-2.3,3A3.31,3.31,0,0,0,49.84,40c.09.1.25,0,.16-.16Z" transform="translate(-30 -17.92)"/><path class="cls-1" d="M54.77,27.69c3.24-.46,5.58,2.17,7.41,4.43.09.11.25,0,.16-.16-1.89-2.34-4.3-5-7.63-4.49-.14,0-.08.24.06.22Z" transform="translate(-30 -17.92)"/><path class="cls-1" d="M55,27.67a5,5,0,0,1,2.67-4.23,5.69,5.69,0,0,1,5.46.12.11.11,0,0,0,.11-.2,6,6,0,0,0-5.69-.12,5.32,5.32,0,0,0-2.78,4.43.12.12,0,0,0,.23,0Z" transform="translate(-30 -17.92)"/><path class="cls-1" d="M51.88,28.09a7.16,7.16,0,0,1,1.92-3.93,8.65,8.65,0,0,1,3.33-2.54,8,8,0,0,1,3.74-.51,6.5,6.5,0,0,1,2.09.53,1.74,1.74,0,0,1,.87.71.73.73,0,0,1-.67,1.08c-.15,0-.15.21,0,.22a.9.9,0,0,0,1-.77,1.29,1.29,0,0,0-.74-1.26A7.15,7.15,0,0,0,58.58,21a8.12,8.12,0,0,0-4.52,2.56,8,8,0,0,0-2.41,4.56c0,.15.22.15.23,0Z" transform="translate(-30 -17.92)"/><path class="cls-1" d="M50.29,19.7a8.88,8.88,0,0,0,3.33-1l-.17-.09a8.31,8.31,0,0,1-.67,2.53,21.27,21.27,0,0,0-.55,2.33c-.14.74-.24,1.49-.33,2.23,0,.41-.09.83-.13,1.24,0,.16-.19,1.12-.09,1.16-.13-.06-.24.14-.11.19l.07,0a.12.12,0,0,0,.14,0c.2-.18.13-.6.16-.84l.12-1.24c.1-.9.22-1.8.38-2.7a21.68,21.68,0,0,1,.61-2.5,7.32,7.32,0,0,0,.62-2.42.11.11,0,0,0-.17-.1,8.61,8.61,0,0,1-3.21,1c-.14,0-.14.24,0,.23Z" transform="translate(-30 -17.92)"/><path class="cls-1" d="M50.5,18.91a60.87,60.87,0,0,0-1.89,10c0,.14.21.14.23,0a59.14,59.14,0,0,1,1.88-10,.11.11,0,0,0-.22-.06Z" transform="translate(-30 -17.92)"/><path class="cls-1" d="M34.29,23.92a6.05,6.05,0,0,1,8.43,2.84c.05.14.27.08.21-.06a6.27,6.27,0,0,0-8.75-3c-.13.07,0,.27.11.2Z" transform="translate(-30 -17.92)"/><path class="cls-1" d="M33.32,21.48A2.3,2.3,0,0,0,34.17,24c.12.09.23-.11.12-.19a2.06,2.06,0,0,1-.75-2.3.11.11,0,0,0-.22-.06Z" transform="translate(-30 -17.92)"/><path class="cls-1" d="M33.67,21.62a10,10,0,0,1,8,1.18c.11.07.2-.06.16-.15l-1.51-3.08-.1.17c1-.13,2.46-.52,3.11.55s1,2,1.53,3q1.64,3.06,3.54,5.95c.07.12.27,0,.19-.11a77.78,77.78,0,0,1-4.06-6.95c-.4-.77-.74-2.05-1.51-2.55s-1.94-.21-2.8-.1c-.09,0-.14.08-.1.16l1.51,3.08.16-.15a10.32,10.32,0,0,0-8.23-1.21.11.11,0,0,0,.06.22Z" transform="translate(-30 -17.92)"/><path class="cls-1" d="M57.88,45.37c-.55.22-.93-.29-.89-.81a2.26,2.26,0,0,1,.21-.85c.18-.43.36-.86.55-1.29l1.06-2.49a10.23,10.23,0,0,1,1-2.19A3.37,3.37,0,0,1,62,36.67c1.53-.29,3-.51,4.56-.89a37.85,37.85,0,0,0,4.87-1.57c.14-.05.08-.27-.06-.22A39.68,39.68,0,0,1,65,35.9c-1,.22-2.07.35-3.1.55a4.08,4.08,0,0,0-2,.82,6.52,6.52,0,0,0-1.3,2.42l-1.34,3.14c-.27.64-.88,1.59-.52,2.3a.89.89,0,0,0,1.13.45c.14,0,.08-.27-.06-.21Z" transform="translate(-30 -17.92)"/><path class="cls-1" d="M45.92,43.72c.72-1.93,3-2.44,4.56-3.54a2.38,2.38,0,0,0,1.17-2.32,1.43,1.43,0,0,0-1.79-1c-.14,0-.08.26.06.21a1.19,1.19,0,0,1,1.27.39,1.42,1.42,0,0,1,.11,1.51,4.56,4.56,0,0,1-2.2,1.81c-1.31.7-2.84,1.43-3.4,2.92-.05.13.17.19.22.06Z" transform="translate(-30 -17.92)"/><path class="cls-1" d="M55.24,83.49a1,1,0,0,0-1.15-.67,4.13,4.13,0,0,1-2.07.31,32,32,0,0,1,.8-5.66l1.23-6.63a1,1,0,0,0-.66-1.17,1,1,0,0,0-.59,0,.92.92,0,0,0-.55-.43,1,1,0,0,0-1.16.66Q49.85,76.48,49,83.09a7.92,7.92,0,0,1-3.46.07,1,1,0,0,0-1.16.67A1,1,0,0,0,45.07,85a10.31,10.31,0,0,0,5.26-.29.52.52,0,0,0,.15-.07,1,1,0,0,0,.36.2,5.74,5.74,0,0,0,3.75-.18A1,1,0,0,0,55.24,83.49Z" transform="translate(-30 -17.92)"/><path class="cls-2" d="M44.55,64.87A1.67,1.67,0,0,1,45,66.74c-.06.13.14.24.19.11a1.89,1.89,0,0,0-.48-2.14c-.11-.09-.27.07-.16.16Z" transform="translate(-30 -17.92)"/><path class="cls-3" d="M52.26,71.08,50.44,84c0,.14.2.2.22.06l1.81-12.89c0-.14-.19-.2-.21-.06Z" transform="translate(-30 -17.92)"/><path class="cls-3" d="M52.36,71.35a6.19,6.19,0,0,0,1.82.18c.14,0,.14-.23,0-.23a5.76,5.76,0,0,1-1.76-.17.11.11,0,0,0-.06.22Z" transform="translate(-30 -17.92)"/><path class="cls-3" d="M44.39,53.16a.26.26,0,0,0-.26-.13.14.14,0,0,0,0-.06c0-.06-.13-.07-.19-.07a.35.35,0,0,0-.28.18.31.31,0,0,0,0,.33.33.33,0,0,0,.37.13.11.11,0,0,0,.08-.12.72.72,0,0,0,.27-.12A.12.12,0,0,0,44.39,53.16Z" transform="translate(-30 -17.92)"/><path class="cls-2" d="M42.67,40a1.25,1.25,0,0,0-.79-.57,3,3,0,0,0,.12-2,2.51,2.51,0,0,0-.67-1.12A3.2,3.2,0,0,0,41,35.27l0,0,0-.23a.75.75,0,0,0-.17-.42,1.42,1.42,0,0,0-.51-1,.65.65,0,0,0-1-.34l-1.67,1a8.33,8.33,0,0,0-2.92,1.41,9.4,9.4,0,0,0-2.77,2.59,7.51,7.51,0,0,0-.53,1,.64.64,0,0,0-.29.36.74.74,0,0,0,0,.14,5.8,5.8,0,0,0-.7,1.49,6.26,6.26,0,0,0-.23,1.11l0,.11a7.31,7.31,0,0,0,.27,3.6,11.12,11.12,0,0,0,.45,1.38,9,9,0,0,0,.58,1.31,1.73,1.73,0,0,0,.58.62.78.78,0,0,0,.4.4,1.2,1.2,0,0,0,1.49-.48,3.43,3.43,0,0,0,.33-1.64,6.59,6.59,0,0,0,0-.89A5,5,0,0,0,38,45.07a4.39,4.39,0,0,0,1.24-.4,2.55,2.55,0,0,0,1.27-.92,2.37,2.37,0,0,0,.73-.31,3,3,0,0,0,1-1,2.49,2.49,0,0,0,.32-.68c0-.11.07-.21.11-.31A1.74,1.74,0,0,0,42.67,40Z" transform="translate(-30 -17.92)"/><path class="cls-2" d="M68.15,45.82a2.48,2.48,0,0,0,0-.27,2.62,2.62,0,0,0-.64-1.72c-.11-.14-.23-.27-.35-.4s-.09-.16-.14-.24a6.24,6.24,0,0,0-1.39-1.66A4.93,4.93,0,0,0,64,40.33l-.33-.18a2,2,0,0,0-2,.21,1.4,1.4,0,0,0-.34,1.6h0a1.77,1.77,0,0,0-.44.54,4.34,4.34,0,0,0-2.61,3,.62.62,0,0,0,.13.53c-.12.41.26.72.66.77h.29a1.45,1.45,0,0,0-.4.93,1.7,1.7,0,0,0,1.55,1.57,1.74,1.74,0,0,0,.51,0,1.45,1.45,0,0,0,.89.82h0a1.44,1.44,0,0,0,.61.36,1.81,1.81,0,0,0,1.17-.13H64A4.23,4.23,0,0,0,67.87,48,3.85,3.85,0,0,0,68.15,45.82Z" transform="translate(-30 -17.92)"/><path class="cls-4" d="M64.05,22.3a1.73,1.73,0,0,0-.64-.93A3.49,3.49,0,0,0,61,20.05a4.59,4.59,0,0,0-1.92-.14.28.28,0,0,0-.19,0,6.55,6.55,0,0,0-4.42,2.49,11.62,11.62,0,0,0-2.13,3l0-.33c0-.18.07-.36.11-.54a.29.29,0,0,0,.07-.12l.75-2.69q.12-.34.21-.72a9.15,9.15,0,0,0,.62-1.68.31.31,0,0,0-.08-.3.72.72,0,0,0-.09-.76,1.14,1.14,0,0,0-.9-.26A3.2,3.2,0,0,0,50.59,19a1,1,0,0,0-.58.65.24.24,0,0,0-.14.19l-.55,2.28a10.37,10.37,0,0,0-.47,2c-.15,1-.26,2-.36,3-.09.58-.15,1.17-.2,1.76l0-.05c-.53-1-1.08-2-1.65-2.93a.32.32,0,0,0-.24-.16c-.16-.37-.34-.73-.53-1.09a.3.3,0,0,0-.06-.11c-.17-.31-.36-.62-.55-.92a.29.29,0,0,0-.13-.12c-.36-.74-.7-1.49-1-2.25A.35.35,0,0,0,44,21.1a5.2,5.2,0,0,0-.53-.73.23.23,0,0,0-.1-.24l-.07-.05h0l-.88-.6a.28.28,0,0,0-.34,0l-.28-.07a66.92,66.92,0,0,1-.71.09,1.24,1.24,0,0,0-.27,0,.39.39,0,0,0-.21.17.29.29,0,0,0-.15.43l0,0a.27.27,0,0,0,0,.21l.25.41a1,1,0,0,0,.13.36c.3.53.67,1,1,1.55a10.89,10.89,0,0,0-2.8-1.21.3.3,0,0,0-.29.06.32.32,0,0,0-.22-.16,5.73,5.73,0,0,0-1.09-.16.32.32,0,0,0-.14,0,6.77,6.77,0,0,0-2,.11h-.22a4.19,4.19,0,0,0-1.89.59.3.3,0,0,0-.2.21v0h0a1.68,1.68,0,0,0,.87,1.9.34.34,0,0,0,.5-.24h0l.27-.19h.14a3.55,3.55,0,0,0,1-.4l.1,0a.27.27,0,0,0,.13,0l2.45-.1a11,11,0,0,1,1.88.66l.24.13A15.39,15.39,0,0,0,41.89,25l.19.23.25.55a.27.27,0,0,0,.23.16.61.61,0,0,0,.07.1l0,.06h0a.3.3,0,0,0,0,.51.78.78,0,0,0,.4.65.65.65,0,0,0,1-.48.82.82,0,0,0,0-.31,5.44,5.44,0,0,0,.71-.26l.21,0h.6c-.11.37-.21.75-.3,1.12a11.4,11.4,0,0,0-.36,1.92c-.11.73-.18,1.48-.22,2.22a.44.44,0,0,0,0,.13,1.09,1.09,0,0,1-.08.15.35.35,0,0,0-.13.08h0l-.06,0a3.88,3.88,0,0,0-1.11,1.22,5.65,5.65,0,0,0-1.09,2.42,5.49,5.49,0,0,0-.06.8c-.2-.09-.51,0-.49.28v.06a.32.32,0,0,0,0,.22h0a.21.21,0,0,0,.05.2l0,.05a5.5,5.5,0,0,0,.45.95l0,0a2.7,2.7,0,0,0-.08.75,4,4,0,0,0,0,.6.35.35,0,0,0,.17.25,2.82,2.82,0,0,0,.21.38,1.12,1.12,0,0,0,.47.87,1.69,1.69,0,0,0,1.28.24h0a.29.29,0,0,0,.1.09.62.62,0,0,0,.47.19h.14a3.2,3.2,0,0,0,.69,0l1,.13h0a.28.28,0,0,0,.28.15l.41-.05a.34.34,0,0,0,.4.08l.26-.13.13-.06h.06a.35.35,0,0,0,.43.08l1.32-.64A.19.19,0,0,0,50,41l.08,0a.3.3,0,0,0,.15-.36.33.33,0,0,0-.47-.42,5.93,5.93,0,0,1-.06-.84.35.35,0,0,0,0-.18,7.85,7.85,0,0,1,0-.84c0-.19.07-.38.1-.58a6.93,6.93,0,0,1,1.67-3.16,7.76,7.76,0,0,1,3.8-2.2,8.85,8.85,0,0,1,2.69,1,.6.6,0,0,0,.63,0h.1a15,15,0,0,0,3.29-1.19c.36-.18.09-.65-.26-.57-.06-.09-.11-.18-.17-.26a.22.22,0,0,0-.05-.11,7.19,7.19,0,0,0-2.37-2.41L59,28.74a4.71,4.71,0,0,0-3.56-1.18l-.3,0c.09-.5.15-1,.19-1.51l.07-.21a.32.32,0,0,0,0-.13,7.12,7.12,0,0,1,2.28-2.48,8.41,8.41,0,0,1,.82-.35L60,22.63a.32.32,0,0,0,.14,0h.35l1.63.36a4.75,4.75,0,0,1,.77.41C63.8,24,64.24,23,64.05,22.3ZM38.6,22l.08-.05a.22.22,0,0,0,.07.09Zm13.13-2,0,0v-.05l.08,0,.07,0Z" transform="translate(-30 -17.92)"/><path class="cls-2" d="M42.51,42.18a2.27,2.27,0,0,0,.66-2,1.6,1.6,0,0,0-.32-.62,4,4,0,0,0-1-1.8.52.52,0,0,0-.87.44.46.46,0,0,0-.1.69.47.47,0,0,0,.05.54.5.5,0,0,0,.07.29.47.47,0,0,0,.11.48,1.51,1.51,0,0,1,.4.9,2.31,2.31,0,0,1-.69,1.53l-.08.09a.71.71,0,0,1-.14.1.5.5,0,0,0,.53.85,2.6,2.6,0,0,0,1.05-1A3.66,3.66,0,0,0,42.51,42.18Z" transform="translate(-30 -17.92)"/><path class="cls-5" d="M72.57,33.29a1.36,1.36,0,0,0,.24-1.2,9.18,9.18,0,0,0-.39-1.26,2.4,2.4,0,0,0-.12-.38.42.42,0,0,0-.6-.18.65.65,0,0,0-.22-.18,1.36,1.36,0,0,0-1.15,0l-.06,0c-.32,0-.65.06-1,.1s-.88.13-1.31.23a13.29,13.29,0,0,0-2.62.9c-.58.1-1.16.22-1.73.35-2.31.54-4.55,1.31-6.85,1.88-.65.16-1.3.31-2,.42a4.36,4.36,0,0,0-2.72.16,3.8,3.8,0,0,0-1.77,2.15.26.26,0,0,0,0,.24.27.27,0,0,0,.27.27,1.59,1.59,0,0,1,.33.09l.32.93c0,.22.07.43.1.65a.39.39,0,0,0-.1.18l-.26.94a2.94,2.94,0,0,0-.57.54l-.38.36a.42.42,0,0,0-.08.59.4.4,0,0,0,.18.33.51.51,0,0,0,.51.61,4.77,4.77,0,0,1,1.25.1,2,2,0,0,0,1.15.35.52.52,0,0,0,.32-.11c.14.12.28.26.4.38a5.4,5.4,0,0,1,1.1,1.66.58.58,0,0,0,.82.26l.09.09-.13.4c-.22.61.77.84,1,.26s.34-.87.52-1.3a.5.5,0,0,0,.33-.32A24.24,24.24,0,0,1,60,38.7a24.61,24.61,0,0,1,2.14-1.63l.11,0,2.07-.73a.43.43,0,0,0,.29,0c.18-.1.36-.18.55-.27l1-.36A28.14,28.14,0,0,0,70,34.74a.38.38,0,0,0,.24,0,4,4,0,0,0,.94-.3,1.88,1.88,0,0,0,.94-.29.33.33,0,0,0,.18-.3l.16-.09a.32.32,0,0,0,.11-.49ZM55.65,42.78l0-.06,0,0v0A.13.13,0,0,0,55.65,42.78Zm.12.39-.06-.09V43l.08.1Zm1.81-8.7v0a.13.13,0,0,1,0-.06l.53-.14Z" transform="translate(-30 -17.92)"/><path class="cls-5" d="M45,26l-.06,0a.32.32,0,0,0-.14,0,5.2,5.2,0,0,0-.76.25h-.08l-.23.06-.09,0a2.86,2.86,0,0,0-.73.33l-.09,0A7,7,0,0,0,40,28.05a4.59,4.59,0,0,0-1.7,1.63,4.4,4.4,0,0,0-.38.37,4.46,4.46,0,0,0-.84,1.33,11.13,11.13,0,0,0-1.38,2.51.34.34,0,0,0,.1.34l-.22.27c-.25.33.3.71.59.43s.57-.54.87-.79a.4.4,0,0,0,.3,0c.7-.36,1.39-.76,2.05-1.18a.3.3,0,0,0,.32.16l.32,0a8.47,8.47,0,0,1,.64.84l0,.12.17,1.22a38482906972164.78,38482906972164.78,0,0,1,.42.56l.19.57c.14.43.87.25.72-.18L42.17,36a9.17,9.17,0,0,1,2-4.39.38.38,0,0,0,.32-.19.37.37,0,0,0,.21-.23l0-.12a.34.34,0,0,0,.27-.33l.07-1.17a13.61,13.61,0,0,0,.12-1.8v0c0-.14.06-.28.1-.42a.29.29,0,0,0,0-.16,1,1,0,0,0,0-.35l0-.1a.33.33,0,0,0,.13-.3A.38.38,0,0,0,45,26ZM41.9,30.13c0,.09-.07.19-.1.28l0-.07Z" transform="translate(-30 -17.92)"/><path class="cls-2" d="M39.52,33.12a2.65,2.65,0,0,0-2.77,1.06,5.38,5.38,0,0,0-1.94,2.41.73.73,0,0,0,.55.9.82.82,0,0,0,1-.51,2.58,2.58,0,0,1,.22-.44.89.89,0,0,0,.42-.19,8.68,8.68,0,0,0,1.53-1.56.53.53,0,0,0,.11-.21A.45.45,0,0,1,39,34.5s0,.09,0,.14a1,1,0,0,1,0,.34c-.08.51-.36,1-.45,1.48a.75.75,0,0,0,.55.91.79.79,0,0,0,1-.51,11.41,11.41,0,0,0,.52-2A1.76,1.76,0,0,0,39.52,33.12Z" transform="translate(-30 -17.92)"/><path class="cls-1" d="M68.77,59.66a6.71,6.71,0,0,0-1.37-1.81,7,7,0,0,0,.48-2.79A5,5,0,0,0,68,53.9a5.48,5.48,0,0,0-.89-2.39,3.66,3.66,0,0,0-.57-.74v0l0-.07v0a1.44,1.44,0,0,0,0-.41.67.67,0,0,0-.64-.47.89.89,0,0,0-.44.15h0a1,1,0,0,0-1,.26l0,0-1.78-.12a6,6,0,0,1-1-.17.67.67,0,0,0-.68-.61,1.64,1.64,0,0,1-1-.35,2.47,2.47,0,0,0-.4-.45,1.58,1.58,0,0,1-.16-.35l-.07-.7a.62.62,0,0,0-.27-.49.68.68,0,0,0-.51-.41.76.76,0,0,0,0-.11v0h0l0-.08v0a.82.82,0,0,0-.1-.6.78.78,0,0,0-.36-.83A17.16,17.16,0,0,0,54.42,43l-.31-.29a.78.78,0,0,0-.38-.2,5,5,0,0,0-.63-.37c-.18-.09-.37-.17-.55-.24l-.11-.07a2.61,2.61,0,0,0-1.68-.53l-.19,0a2.39,2.39,0,0,0-1-.16,4.83,4.83,0,0,0-2.09.72,4,4,0,0,0-2.18-.32,3.54,3.54,0,0,0-1.44-.3l-.14,0a1.3,1.3,0,0,0-1.49.68,5.39,5.39,0,0,0-.61.65l-.82,1.08h-.25a4.73,4.73,0,0,0-2.85,1.43,12.3,12.3,0,0,0-2,1.18l-.33.19-.2.1a4.87,4.87,0,0,0-.94.28,1.32,1.32,0,0,0-.47.35.71.71,0,0,0-.9.61v0a.61.61,0,0,0-.06.28v.65a2.09,2.09,0,0,0,0,.5v.3h0a1.63,1.63,0,0,0-.65.82,2.89,2.89,0,0,0,.11,1.81.63.63,0,0,0,.28.36,9.69,9.69,0,0,0,2.91,4.71l.46.43.25.29c-.4.86-.77,1.74-1.11,2.63-.42,1.09-1.07,2.42-.81,3.62s1.48,1.63,2.59,1.66c1.35,0,2.7-.1,4.05-.15.76,0,1.55-.11,2.32-.07.19,0,.46,0,.58.2s0,.15.06.1c-.73.45-.06,1.62.68,1.16a1.17,1.17,0,0,0,.37-.32,15.47,15.47,0,0,0,5.27,3.72,12,12,0,0,0,5.34.78,1.86,1.86,0,0,0,.56-.15,4.52,4.52,0,0,0,.63-.08,4.73,4.73,0,0,0,2.54-1.7c.67-.79,1.29-1.61,1.87-2.45a10.42,10.42,0,0,0,.87-.89.69.69,0,0,0,.83.46,2.64,2.64,0,0,1,1.28,0,4.91,4.91,0,0,1,1.12.61h0c.11.1.21.21.31.32a.67.67,0,0,0,1,0,.69.69,0,0,0,0-1,3.91,3.91,0,0,0-1.75-1.2c.54-.37,1.18-.65,1.71-1L68,63.47a3.21,3.21,0,0,0,1.19-.9C69.75,61.7,69.2,60.49,68.77,59.66ZM36.92,51.48l0,0,0,0v-.06ZM42.1,64.34l-2.16.08-2.23.09a5.18,5.18,0,0,1-1.62-.07c-1.16-.31-.35-1.91-.09-2.63.33-.93.69-1.85,1.09-2.74a28,28,0,0,0,3,2.75l2.39,2.5Zm25.54-2.23c-.88.51-1.79,1-2.69,1.49a8.47,8.47,0,0,0-1.6,1.08.62.62,0,0,0-.36-.16c.11-.2.22-.4.31-.61l.4-.51a35.46,35.46,0,0,0,3-4.12l.06-.12a5.59,5.59,0,0,1,.79,1.13A4.85,4.85,0,0,1,68,61.4C68.13,61.81,68,61.91,67.64,62.11Z" transform="translate(-30 -17.92)"/><path class="cls-4" d="M74.44,35.11a3.9,3.9,0,0,0-.57-.13l-.17,0a.67.67,0,0,0,0-.72l0,0a.85.85,0,0,0-1.14-.4l-.9.45-.08,0-.58.24a8.51,8.51,0,0,0-1.91.61,17.43,17.43,0,0,0-1.93.43.79.79,0,0,0-.34,0,26.88,26.88,0,0,0-2.89.91,7.09,7.09,0,0,0-1.48.54,2,2,0,0,0-.71.3.22.22,0,0,0-.28,0,4,4,0,0,0-1,1,.26.26,0,0,0-.3.11,36.7,36.7,0,0,0-2.94,5.84c-.08.2.11.32.29.29h0c-.07.22.2.37.37.29v.06c0,.26.36.32.49.13a3.79,3.79,0,0,0,.2-.34.3.3,0,0,0,.34,0,6.72,6.72,0,0,0,1.23-1.27l0-.06,1.09-1.11a.61.61,0,0,0,.07-.1A.22.22,0,0,0,61.5,42l.57-1.26a1.69,1.69,0,0,1,.36-.23,2.05,2.05,0,0,1,1.71.11l.76.73a1.76,1.76,0,0,0-1.22,1.36,1.79,1.79,0,0,0,1.05,2,2.09,2.09,0,0,0,2.33-.47,1.82,1.82,0,0,0,.37-.7l.11.16s0,0,0,0a6.2,6.2,0,0,0,.06.62.27.27,0,0,0,.53,0v-.1a.25.25,0,0,0,.2-.22,12.5,12.5,0,0,0-.22-3.76s0,0,0,0a3.57,3.57,0,0,0,0-1l.76-.57,2.22,1.79a.86.86,0,0,0,1.11,0l.09-.1a1,1,0,0,0,.29,0,1.09,1.09,0,0,0,.25.1,1,1,0,0,0,1.1-.4,1.53,1.53,0,0,0-.24-1.71,4.54,4.54,0,0,0-1-1.06h.93c.75,0,1.93.2,2.09-.76C75.87,35.76,75.09,35.32,74.44,35.11ZM61.55,39.89c.07.13,0,.09,0,0Zm4.87,4.21a1.49,1.49,0,0,1-2.1-.44A1.3,1.3,0,0,1,65,41.83a1.34,1.34,0,0,1,.27-.07,11.92,11.92,0,0,1,1.42,2.1A1.25,1.25,0,0,1,66.42,44.1Zm1-2.32h0v.14A1,1,0,0,0,67.39,41.78Z" transform="translate(-30 -17.92)"/><path class="cls-2" d="M68,44.66a8.2,8.2,0,0,0-1.21-1.85l-.23-.29a6.6,6.6,0,0,0-.73-.77l-.16-.21a2.94,2.94,0,0,0-2.3-1.27,1.59,1.59,0,0,0-.94-.1,1.39,1.39,0,0,0-1.12,1.34,2.91,2.91,0,0,0-3,2.38,1.82,1.82,0,0,0,.49,1.44.92.92,0,0,0,.31.28,1.89,1.89,0,0,0,2.21.06,2.54,2.54,0,0,0,.79-.87l.08-.09a1.89,1.89,0,0,0,.26-.39h0a.91.91,0,0,0,.3.58,1.06,1.06,0,0,0,.49.26,7.43,7.43,0,0,0,1,.93,1.2,1.2,0,0,0,1.32.16,1.08,1.08,0,0,0,.49-.6h.06l0,0a1.15,1.15,0,0,0,1.49.37A1,1,0,0,0,68,44.66Z" transform="translate(-30 -17.92)"/><path class="cls-2" d="M66.16,47.31a1.1,1.1,0,0,0-1.33.71s-.11.26-.09.24-.07.11,0,.1l-.18.16-.16.1a.68.68,0,0,0-.17.08l-.33.08-.06,0h-.41l-.21,0L63,48.68l-.15-.08c.07.07.06.06,0,0l-.08-.07,0,0,0,0,0-.06v0a.28.28,0,0,1,0-.09s0,0,0,0h0l.11-.08a1,1,0,0,0,0-1.44,1.15,1.15,0,0,0-1.53,0,2.09,2.09,0,0,0-.62,2.4,2.85,2.85,0,0,0,2.12,1.65c1.7.33,3.78-.47,4.17-2.19A1,1,0,0,0,66.16,47.31Z" transform="translate(-30 -17.92)"/><path class="cls-2" d="M41.22,36.41a1.18,1.18,0,0,0-1.53,0,1,1,0,0,0,0,1.44,7.7,7.7,0,0,1,1.78,1.66l.18.29.09.19a3.82,3.82,0,0,1,.15.48.45.45,0,0,0,0,.08V41c0,.1,0,.2-.08.3s0,0,0,0,0,0,0,.06a1.82,1.82,0,0,1-.15.23l-.1.1-.16.14a1.17,1.17,0,0,0-.28.15,4.1,4.1,0,0,1-.5.14l-.2,0-.2,0-.6,0c-.41,0-.83,0-1.24-.06a1.07,1.07,0,0,0-1.09,1c0,.12,0,.24,0,.36a2.13,2.13,0,0,0-.06.28c0,.14-.08.27-.12.4s0,.06,0,.07l0,.06a4.05,4.05,0,0,1-.21.35l-.05.07-.11.12-.22.18a1.41,1.41,0,0,1-.24.13l-.16,0-.12,0h-.32l-.22,0-.19-.08L35,45.12l-.11-.1c-.06-.1-.13-.23-.06-.06a1.11,1.11,0,0,0-1.33-.71,1,1,0,0,0-.76,1.25,2.89,2.89,0,0,0,1.8,1.68,3.57,3.57,0,0,0,2.24,0,3.89,3.89,0,0,0,2.49-2.9,7.08,7.08,0,0,0,2.11-.21A3.55,3.55,0,0,0,43.88,42C44.74,39.73,43,37.71,41.22,36.41Z" transform="translate(-30 -17.92)"/><path class="cls-3" d="M36.5,37.44a4.75,4.75,0,0,1-1.24,3.2,3.27,3.27,0,0,0-.14-.62c-.15-.45-.87-.26-.72.2a2.7,2.7,0,0,1-1.47,3.29c-.44.2-.06.84.38.65a3.41,3.41,0,0,0,1.93-2.57.43.43,0,0,0,.23-.1,5.46,5.46,0,0,0,1.77-4.05A.37.37,0,0,0,36.5,37.44Z" transform="translate(-30 -17.92)"/><path class="cls-3" d="M38.09,39.43c-.17-.44-.9-.25-.72.2a2,2,0,0,1-1.24,2.58.37.37,0,0,0,.2.72A2.7,2.7,0,0,0,38.09,39.43Z" transform="translate(-30 -17.92)"/><path class="cls-3" d="M43.55,53a.57.57,0,0,0,0,1.13A.57.57,0,0,0,43.55,53Z" transform="translate(-30 -17.92)"/><path class="cls-3" d="M44.9,53a.57.57,0,0,0-.43.92.56.56,0,1,0,.56.19A.57.57,0,0,0,44.9,53Z" transform="translate(-30 -17.92)"/><path class="cls-3" d="M65.94,56.15a.48.48,0,0,0-.14-.25l-.06,0A.56.56,0,1,0,65,55.8a.39.39,0,0,0-.16.1.67.67,0,0,0-.16.4l0,.15a.72.72,0,0,0,.14.24.56.56,0,0,0,.4.17h.15a.42.42,0,0,0,.22,0,.36.36,0,0,0,.18-.12.42.42,0,0,0,.11-.18.3.3,0,0,0,0-.21Z" transform="translate(-30 -17.92)"/><path class="cls-3" d="M37.21,46.57a.77.77,0,0,0-.14-.25.59.59,0,0,0-.4-.16h-.15a.51.51,0,0,0-.51.34.34.34,0,0,0,0,.22l0,.15a.52.52,0,0,0,.14.25.59.59,0,0,0,.4.16h.15a.36.36,0,0,0,.21-.05.52.52,0,0,0,.19-.11.67.67,0,0,0,.16-.4Z" transform="translate(-30 -17.92)"/><path class="cls-3" d="M37.93,47.85a.36.36,0,0,0-.12-.18.57.57,0,0,0-.18-.12.38.38,0,0,0-.21,0l-.15,0a.48.48,0,0,0-.25.14.59.59,0,0,0-.16.4v.15a.38.38,0,0,0,0,.21.57.57,0,0,0,.12.18.36.36,0,0,0,.18.12.54.54,0,0,0,.22.05l.15,0a.61.61,0,0,0,.24-.15.58.58,0,0,0,.17-.39v-.15A.54.54,0,0,0,37.93,47.85Z" transform="translate(-30 -17.92)"/><path class="cls-6" d="M57.34,47.48a6.24,6.24,0,0,0-1.41-2.37,5,5,0,0,0-3.11-1.86,12.13,12.13,0,0,0-1.72-.31,5.94,5.94,0,0,0-3.4.71,4.77,4.77,0,0,0-1.82,1.72,4.63,4.63,0,0,0-.42.87,5.16,5.16,0,0,0-.77,3,5.56,5.56,0,0,0,2.59,4.56A5,5,0,0,0,49.61,55a6.65,6.65,0,0,0,4.13-.48A5.72,5.72,0,0,0,57.33,51,5.64,5.64,0,0,0,57.34,47.48Z" transform="translate(-30 -17.92)"/><path class="cls-6" d="M68.66,47.4A6.5,6.5,0,0,0,67.25,45a5.48,5.48,0,0,0-.52-.56,5.26,5.26,0,0,0-2.6-1.3,12,12,0,0,0-1.71-.31,6,6,0,0,0-3.41.7,4.87,4.87,0,0,0-1.82,1.73,3.83,3.83,0,0,0-.41.87A5.15,5.15,0,0,0,56,49.21a5.94,5.94,0,0,0,1.75,3.9,5.3,5.3,0,0,0,.84.66A5.14,5.14,0,0,0,60.92,55a6.65,6.65,0,0,0,4.13-.48,5.72,5.72,0,0,0,3.59-3.54A5.64,5.64,0,0,0,68.66,47.4Z" transform="translate(-30 -17.92)"/><path d="M52.17,51a2.13,2.13,0,0,0-.47-.37c-.13-.08-.34-.16-.32-.33a.26.26,0,0,0-.2-.29v0c0-.12.2-.26.33-.19a.34.34,0,0,0,.5-.27.24.24,0,0,0,.25-.21v-.21h0v-.86c0-.14.05-.28.07-.42a1,1,0,0,0,0-.3A.71.71,0,0,0,52,47a.73.73,0,0,0-.25-.08.5.5,0,0,0-.49-.19c-.45.06-.61.56-.73.93a6.22,6.22,0,0,0-.27,1.49c0,.52,0,1,0,1.56a3.6,3.6,0,0,0,.18,1.23,1.08,1.08,0,0,0,1.87.31A1,1,0,0,0,52.17,51Zm-1.12.82a1,1,0,0,1-.11-.23,1.08,1.08,0,0,0,.32.39A.46.46,0,0,1,51.05,51.79Z" transform="translate(-30 -17.92)"/><path d="M62.27,50.89a1.84,1.84,0,0,0-.47-.36c-.13-.08-.34-.16-.32-.34a.27.27,0,0,0-.2-.29h0c.05-.12.2-.27.33-.2a.34.34,0,0,0,.5-.26.25.25,0,0,0,.25-.22V49h0v-.86c0-.14,0-.28.07-.41a1.5,1.5,0,0,0,0-.3.72.72,0,0,0-.38-.54.57.57,0,0,0-.25-.08.51.51,0,0,0-.49-.2c-.45.07-.61.57-.73.93A6.31,6.31,0,0,0,60.31,49a13.71,13.71,0,0,0,0,1.57,3.42,3.42,0,0,0,.17,1.23,1.09,1.09,0,0,0,1.87.31A1,1,0,0,0,62.27,50.89Zm-1.12.83a1,1,0,0,1-.11-.23,1,1,0,0,0,.32.38A.38.38,0,0,1,61.15,51.72Z" transform="translate(-30 -17.92)"/><path class="cls-7" d="M56.9,46c-.13-.25-.53,0-.39.22A6.7,6.7,0,0,1,57.08,51a.23.23,0,0,0,.44.11A7.08,7.08,0,0,0,56.9,46Z" transform="translate(-30 -17.92)"/><path class="cls-8" d="M68.24,41.86a.83.83,0,0,0-.13-.18,1,1,0,0,0,.13-.5,1.05,1.05,0,0,0-1-1,1.08,1.08,0,0,0-.92.54,1.23,1.23,0,0,0-.43-.1l-.28,0a1,1,0,0,0-.46.27L65,41a1,1,0,0,0-.22.34.9.9,0,0,0-.09.4,1,1,0,0,0,.09.41.83.83,0,0,0,.22.33l.21.17a1.1,1.1,0,0,0,.53.14l.28,0,.09,0a1.24,1.24,0,0,0,.46.53,1,1,0,0,0,.67.13.66.66,0,0,0,.28,0,.69.69,0,0,0,.39-.12,1.08,1.08,0,0,0,.48-.63l0-.28A1,1,0,0,0,68.24,41.86Z" transform="translate(-30 -17.92)"/><path class="cls-8" d="M40.46,44.19a.81.81,0,0,0-.36-.45.78.78,0,0,0-.58-.07.57.57,0,0,0-.31.24.53.53,0,0,0,.19.72l.18.06a.31.31,0,0,0,.11.09.52.52,0,0,0,.71-.19A.52.52,0,0,0,40.46,44.19Z" transform="translate(-30 -17.92)"/><path class="cls-8" d="M43.46,42.17,43.32,42a.45.45,0,0,0-.17-.11.49.49,0,0,0-.2,0,.5.5,0,0,0-.21,0,.36.36,0,0,0-.16.11.45.45,0,0,0-.1.14l-.11,0a.66.66,0,0,0-.24.14h0a.51.51,0,0,0-.37-.15.78.78,0,0,0-.22,0l-.06,0a.63.63,0,0,0-.44.45.22.22,0,0,0,0,.08s0,.06,0,.08v0A.68.68,0,0,0,41,43a1,1,0,0,0,.06.16.18.18,0,0,1,0,.07.32.32,0,0,0-.14,0,.51.51,0,0,0-.37.16.52.52,0,0,0-.16.37v.15a.62.62,0,0,0,.16.37.5.5,0,0,0,.17.11.45.45,0,0,0,.2,0,.51.51,0,0,0,.52-.52v-.15a.45.45,0,0,0,0-.2.31.31,0,0,0-.05-.1h.12a.6.6,0,0,0,.23,0l.1,0,.07,0a.94.94,0,0,0,.12-.09l.05-.06.06.07.09.07a.52.52,0,0,0,.08,1,.53.53,0,0,0,.37-.89h0a.59.59,0,0,0,.32-.09.52.52,0,0,0,.25-.31s0-.07,0-.1a.36.36,0,0,0,.14-.1.52.52,0,0,0,.16-.37A.57.57,0,0,0,43.46,42.17Z" transform="translate(-30 -17.92)"/><path class="cls-8" d="M43.88,40.38a.45.45,0,0,0-.11-.17.32.32,0,0,0-.17-.1.35.35,0,0,0-.2,0,.51.51,0,0,0-.52.52v.15a.49.49,0,0,0,0,.21.46.46,0,0,0,.11.16.36.36,0,0,0,.17.11.35.35,0,0,0,.2,0,.55.55,0,0,0,.53-.53v-.15A.49.49,0,0,0,43.88,40.38Z" transform="translate(-30 -17.92)"/><path class="cls-8" d="M38.34,45.62a.42.42,0,0,0-.1-.17.53.53,0,0,0-.74,0l-.15.15a.36.36,0,0,0-.11.17.42.42,0,0,0,0,.4.32.32,0,0,0,.11.17.57.57,0,0,0,.37.16.59.59,0,0,0,.37-.16l.15-.15a.32.32,0,0,0,.1-.17.43.43,0,0,0,0-.4Z" transform="translate(-30 -17.92)"/><path class="cls-8" d="M39.24,46.82a.39.39,0,0,0-.11-.17.36.36,0,0,0-.16-.11.38.38,0,0,0-.21,0,.53.53,0,0,0-.37.15.56.56,0,0,0-.15.37v.15a.45.45,0,0,0,0,.2.5.5,0,0,0,.11.17.45.45,0,0,0,.17.11.34.34,0,0,0,.2,0,.5.5,0,0,0,.37-.15.52.52,0,0,0,.16-.37V47A.46.46,0,0,0,39.24,46.82Z" transform="translate(-30 -17.92)"/><path class="cls-8" d="M33.38,53.68a.53.53,0,0,0,0,1A.53.53,0,0,0,33.38,53.68Z" transform="translate(-30 -17.92)"/><path class="cls-8" d="M44.45,55.25a.45.45,0,0,0,0,.9A.45.45,0,0,0,44.45,55.25Z" transform="translate(-30 -17.92)"/><path class="cls-8" d="M45.05,54.05a.45.45,0,0,0,0,.9A.45.45,0,0,0,45.05,54.05Z" transform="translate(-30 -17.92)"/><path class="cls-8" d="M46.4,55.25a.45.45,0,0,0,0,.9A.45.45,0,0,0,46.4,55.25Z" transform="translate(-30 -17.92)"/><path class="cls-8" d="M43.81,54.33a.46.46,0,0,0-.09-.15.54.54,0,0,0-.32-.13.49.49,0,0,0-.31.13l-.15.15a.47.47,0,0,0-.14.32.33.33,0,0,0,0,.17.31.31,0,0,0,.1.15.4.4,0,0,0,.31.13.44.44,0,0,0,.32-.13l.15-.15a.46.46,0,0,0,.13-.32A.33.33,0,0,0,43.81,54.33Z" transform="translate(-30 -17.92)"/><path class="cls-8" d="M66.9,54.5a.45.45,0,0,0,0,.9A.45.45,0,0,0,66.9,54.5Z" transform="translate(-30 -17.92)"/><path class="cls-8" d="M67.35,56.15a.45.45,0,0,0,0,.9A.45.45,0,0,0,67.35,56.15Z" transform="translate(-30 -17.92)"/><path class="cls-8" d="M66,55.1a.45.45,0,0,0,0,.9A.45.45,0,0,0,66,55.1Z" transform="translate(-30 -17.92)"/><path class="cls-9" d="M55.84,47.35a.45.45,0,0,0-.78.45,4.1,4.1,0,0,1,.42,3.12.45.45,0,0,0,.87.24A5.12,5.12,0,0,0,55.84,47.35Z" transform="translate(-30 -17.92)"/><path class="cls-9" d="M67.79,48.39c-.13-.56-1-.32-.87.24a5.24,5.24,0,0,1,0,2.46c-.14.56.73.8.87.24A6.35,6.35,0,0,0,67.79,48.39Z" transform="translate(-30 -17.92)"/><path class="cls-9" d="M44.63,33.14a4.38,4.38,0,0,0-1.43,3.4.45.45,0,0,0,.89,0,3.56,3.56,0,0,1,1.17-2.77C45.69,33.38,45.05,32.75,44.63,33.14Z" transform="translate(-30 -17.92)"/><path class="cls-9" d="M57.75,34.63a.46.46,0,0,0-.55-.32,18.28,18.28,0,0,1-3.77.13c-.58,0-.57.85,0,.89a19.92,19.92,0,0,0,4-.15A.45.45,0,0,0,57.75,34.63Z" transform="translate(-30 -17.92)"/><path class="cls-9" d="M40.74,28.34a4.07,4.07,0,0,0-2.56,2.27c-.22.53.55,1,.78.46a3.23,3.23,0,0,1,2-1.87A.45.45,0,0,0,40.74,28.34Z" transform="translate(-30 -17.92)"/><path class="cls-2" d="M69,46.4a8.25,8.25,0,0,0-2.51-3.79l-.14-.09h0a.47.47,0,0,1-.05-.1.34.34,0,0,1-.36,0,8.09,8.09,0,0,0-4.64-.88,7,7,0,0,0-3.48,1.13.55.55,0,0,0,0,.18,7.5,7.5,0,0,0-1.51,1.62,1,1,0,0,0,.07,1.18,1.1,1.1,0,0,0,.24.6,2.36,2.36,0,0,0,.17.82.71.71,0,0,0,.83.47.76.76,0,0,0,.47-.44.6.6,0,0,0,.33-.1,5.67,5.67,0,0,0,.62-.23,17.24,17.24,0,0,1,9,.87.68.68,0,0,0,.82-.48.57.57,0,0,0,0-.18A.59.59,0,0,0,69,46.4Z" transform="translate(-30 -17.92)"/><path class="cls-1" d="M53.62,56.48a5,5,0,0,0-2.8-2.8,4.83,4.83,0,0,0-3.64.13,1.87,1.87,0,0,0-.32.15h0a.55.55,0,0,0-.39.29c-.49.49.26,1.38.88,1l0,0a4.14,4.14,0,0,1,3.55,1.32,1.4,1.4,0,0,0,.6.7.69.69,0,0,0,.92-.26.67.67,0,0,0,.74.31A.68.68,0,0,0,53.62,56.48Z" transform="translate(-30 -17.92)"/><path d="M49.41,55.76c.08-.28.72.63.75.67s.29.34.44.5a6.13,6.13,0,0,0,1.17.93,6.82,6.82,0,0,0,2.8,1,7.27,7.27,0,0,0,5.91-2c.11-.1,0-.26-.16-.16a7,7,0,0,1-7,1.63,6.33,6.33,0,0,1-2.87-1.87c-.13-.15-1-1.67-1.3-.78a.11.11,0,0,0,.22.06Z" transform="translate(-30 -17.92)"/><path class="cls-10" d="M52.89,40.5a3.49,3.49,0,0,0-3.55-1.18,3.28,3.28,0,0,0-2.4,2.75c0,.28.42.27.46,0a2.8,2.8,0,0,1,2.06-2.33,3,3,0,0,1,3,1C52.67,40.94,53.07,40.73,52.89,40.5Z" transform="translate(-30 -17.92)"/><path class="cls-10" d="M66.39,41.8a6.14,6.14,0,0,1-5.3-1.65c-.2-.2-.53.1-.32.3a6.65,6.65,0,0,0,5.74,1.77C66.8,42.17,66.67,41.76,66.39,41.8Z" transform="translate(-30 -17.92)"/><path class="cls-10" d="M46.46,54.48a4.53,4.53,0,0,1,6.65,1c.08.12.28,0,.2-.11a4.7,4.7,0,0,0-7-1c-.12.09,0,.25.15.16Z" transform="translate(-30 -17.92)"/><path class="cls-2" d="M54.48,60.1a5.42,5.42,0,0,1-4.22-2,.73.73,0,0,0-1-.25.71.71,0,0,0-.25,1,6.88,6.88,0,0,0,5.44,2.74A.71.71,0,0,0,54.48,60.1Z" transform="translate(-30 -17.92)"/><path class="cls-2" d="M44.39,64.78a1.41,1.41,0,0,1,.62,2c-.08.12.12.23.19.11a1.62,1.62,0,0,0-.7-2.28c-.13-.06-.24.14-.11.19Z" transform="translate(-30 -17.92)"/><path class="cls-2" d="M43,64.71a2.11,2.11,0,0,1,2.54.09,1.08,1.08,0,0,1,.31,1,1,1,0,0,1-.71.72c-.14,0-.08.24.06.22a1.24,1.24,0,0,0,.87-1.52,1.76,1.76,0,0,0-1.75-1.17,3.13,3.13,0,0,0-1.43.42.11.11,0,1,0,.11.19Z" transform="translate(-30 -17.92)"/><path class="cls-2" d="M64.51,65.41a1.54,1.54,0,0,1,1.67,1.77l.08-.08c-.29.07-.53-.17-.74-.33A3.36,3.36,0,0,0,63.69,66a3.08,3.08,0,0,0-.68,0c-.22,0-.59.18-.74,0a.48.48,0,0,1,.12-.58,1.62,1.62,0,0,1,.65-.3c.14,0,.08-.26-.06-.21-.44.13-1,.34-1,.88a.56.56,0,0,0,.25.49c.24.14.53,0,.78,0a3.27,3.27,0,0,1,1.82.32,6.28,6.28,0,0,1,.75.52.89.89,0,0,0,.73.21.13.13,0,0,0,.08-.08,1.79,1.79,0,0,0-1.89-2.06c-.15,0-.15.25,0,.23Z" transform="translate(-30 -17.92)"/><path class="cls-2" d="M37.33,56.3a3.53,3.53,0,0,0-1.48,2.37c0,.14.2.2.22.06a3.25,3.25,0,0,1,1.37-2.23c.12-.08,0-.28-.11-.2Z" transform="translate(-30 -17.92)"/><path class="cls-2" d="M66.66,59.16a3.74,3.74,0,0,1,1.06-1.74c.1-.1-.06-.26-.16-.16a4.08,4.08,0,0,0-1.12,1.84.11.11,0,0,0,.22.06Z" transform="translate(-30 -17.92)"/><path class="cls-8" d="M37.48,48.26a.83.83,0,0,0-.22-.33.74.74,0,0,0-.34-.22.7.7,0,0,0-.4-.09l-.28,0a1,1,0,0,0-.41.22,1.2,1.2,0,0,0,.1-.47,1.29,1.29,0,0,0-.16-.61.87.87,0,0,0-.27-.3,1,1,0,0,0-.36-.19.75.75,0,0,0-.42,0,.69.69,0,0,0-.39.12,1.16,1.16,0,0,0-.45.53.79.79,0,0,0-.37-.07,1.46,1.46,0,0,0-.65.17,1,1,0,0,0-.52.28l-.16.21a1,1,0,0,0-.14.53,1.27,1.27,0,0,0,.37.94l.05,0a.85.85,0,0,0,.25.21l.11.06a1.11,1.11,0,0,0-.28.7l0,.74a1,1,0,0,0,.52.89A.92.92,0,0,0,33,52a.79.79,0,0,0,.13.39.69.69,0,0,0,.27.29.72.72,0,0,0,.25.16h0l.25.1a1,1,0,0,0,.55,0l.25-.1a1.06,1.06,0,0,0,.38-.38.72.72,0,0,0,.09-.2.85.85,0,0,0,.28.12h0l.14,0a1.24,1.24,0,0,0,.57,0,1.3,1.3,0,0,0,.74-.36,1.07,1.07,0,0,0,.27-1,1.35,1.35,0,0,0-.57-.74,1.33,1.33,0,0,0-.68-.18h-.22a1.35,1.35,0,0,0-.29.05l-.1-.1a1.43,1.43,0,0,0,.28-.32.8.8,0,0,0,.1-.23.81.81,0,0,0,.34.21.68.68,0,0,0,.4.09l.28,0a1.08,1.08,0,0,0,.46-.27l.16-.22a1,1,0,0,0,.15-.52v-.15A1,1,0,0,0,37.48,48.26Z" transform="translate(-30 -17.92)"/></svg>