<svg id="Camada_1" data-name="Camada 1" xmlns="http://www.w3.org/2000/svg" viewBox="0 0 66.87 59.76"><defs><style>.cls-1{fill:#f2e6e8;}.cls-2{fill:#28151b;}.cls-3{fill:#e5e7ef;}.cls-4{fill:#bc8e8e;}.cls-5{fill:#dbb0bd;}.cls-6{fill:#e1afaf;}.cls-7{fill:#f198c0;}.cls-8{fill:#f0dde3;}.cls-9{fill:#f4aaab;}.cls-10{fill:#c03455;}.cls-11{fill:#fff;}.cls-12{fill:#d598aa;}.cls-13{fill:#161314;}.cls-14{fill:#beaeb3;}.cls-15{fill:#f8cacb;}</style></defs><path class="cls-1" d="M53.72,47.73a.93.93,0,0,0-1.14-.64.89.89,0,0,0-.66.82c-.06,0,0,0,0,0v0l-.08,0h-.08s0,0,0,0h-.08a.82.82,0,0,0,0-.83.92.92,0,0,0-1.27-.33,1.55,1.55,0,0,0-.61,1.8,1.87,1.87,0,0,0,1.52,1.18C52.52,50,54,49.2,53.72,47.73Zm-2.43.66a1.18,1.18,0,0,0,.25-.25S51.52,48.21,51.29,48.39Z" transform="translate(-16.13 -21.5)"/><path class="cls-2" d="M60.65,37.27a3.59,3.59,0,0,0-2.45-3,3.39,3.39,0,0,0-3.62,1.09c-.18.22.22.47.4.25a2.92,2.92,0,0,1,3.09-.91,3.1,3.1,0,0,1,2.12,2.54C60.22,37.53,60.69,37.56,60.65,37.27Z" transform="translate(-16.13 -21.5)"/><path class="cls-3" d="M51,47.25a2.24,2.24,0,0,0,4.2.18c0-.14-.15-.26-.2-.12a2.08,2.08,0,0,1-1.92,1.26,2,2,0,0,1-1.85-1.38c-.05-.14-.27-.08-.23.06Z" transform="translate(-16.13 -21.5)"/><path class="cls-4" d="M49.37,56.54A4.37,4.37,0,0,1,46.61,51c.29-.85-1-1.22-1.34-.37A5.78,5.78,0,0,0,49,57.89C49.86,58.16,50.22,56.82,49.37,56.54Z" transform="translate(-16.13 -21.5)"/><path class="cls-5" d="M53.3,67.6a2.78,2.78,0,0,1-.08-1.15.67.67,0,0,0-.46-.8.66.66,0,0,0-.81.45A4.28,4.28,0,0,0,52,68,.65.65,0,0,0,53.3,67.6Z" transform="translate(-16.13 -21.5)"/><path class="cls-2" d="M70.87,40.68a3.62,3.62,0,0,0-2.46-3,3.36,3.36,0,0,0-3.61,1.08c-.19.23.22.48.39.25a2.94,2.94,0,0,1,3.1-.9,3.11,3.11,0,0,1,2.11,2.53C70.44,40.94,70.9,41,70.87,40.68Z" transform="translate(-16.13 -21.5)"/><path class="cls-6" d="M50,23.43a.12.12,0,0,0-.23,0,1.8,1.8,0,0,0-.1.4,2,2,0,0,0-.07,1.26.11.11,0,0,0,.21,0A2.17,2.17,0,0,0,50,23.43Z" transform="translate(-16.13 -21.5)"/><path class="cls-7" d="M82.51,57a13.47,13.47,0,0,1-1.38-.52l.68-.42c.75-.49,0-1.7-.7-1.21a15.62,15.62,0,0,1-15,1.15c.49-.6,1-1.2,1.45-1.81a.76.76,0,0,0,.11-.14l1.09-1.44a.79.79,0,0,0,.15-.12,6.63,6.63,0,0,0,1.78-3.22c.09-.19.17-.39.26-.58a9.34,9.34,0,0,0,.8-2.69,15.69,15.69,0,0,0,.62-2.33,15,15,0,0,0-.21-7,12.73,12.73,0,0,0-2.69-4.83l-.15-.24a10.2,10.2,0,0,0-7.72-4.46,9.06,9.06,0,0,0-3.9.5,10.75,10.75,0,0,0-1.79.81l0,0h0a2.39,2.39,0,0,1-.23-.22s-.16-.2-.13-.15l-.1-.14a.41.41,0,0,0,0-.09c0-.57-.06-1.13-.12-1.69V26a.11.11,0,0,0,.07-.08,7.51,7.51,0,0,0,.16-3,.09.09,0,0,0-.1-.08.55.55,0,0,0-.22-.85A7.09,7.09,0,0,0,50,22a.37.37,0,0,0-.14-.07.51.51,0,0,0-.62.35c-1.19,2.91-1.14,6.11-1.27,9.2a24.38,24.38,0,0,1-2,8.94A21.22,21.22,0,0,1,44.73,43,38.16,38.16,0,0,1,34.67,31.3a40.17,40.17,0,0,1-2-4.13,1,1,0,0,0-.07-.15A2.82,2.82,0,0,1,34,25.9.73.73,0,0,0,34.5,25a.71.71,0,0,0-.86-.49,4.57,4.57,0,0,0-1.76,1.15,5.79,5.79,0,0,0-.71-1.13.7.7,0,0,0-1,0,.72.72,0,0,0,0,1,3.34,3.34,0,0,1,.5.88h-1a.7.7,0,0,0,0,1.39h1.81a39.61,39.61,0,0,0,9.41,13.66A38.94,38.94,0,0,0,44,44.12c-.17.25-.34.49-.52.73a.48.48,0,0,0-.08.16,17.36,17.36,0,0,1-2.66,1.57l-.38.17-.15.07-.83.29a11.85,11.85,0,0,1-1.54.36l-.29,0-.37,0a8.61,8.61,0,0,1-.88,0,4,4,0,0,1-.49,0s-.27,0-.27,0l-1-.17-2.39-.5-.09,0a.81.81,0,0,0-.23-.41,29.5,29.5,0,0,0-3.61-3.08,8.94,8.94,0,0,0-3.76-2.56,7.39,7.39,0,0,0-4,.13c-.67.18-1.33.4-2,.64a3.22,3.22,0,0,0-1.47.86l-.07.09a.49.49,0,0,0-.54.35,5,5,0,0,0-.14,2.15,1.07,1.07,0,0,0-.1.36,6.49,6.49,0,0,0,.57,3.39,1.21,1.21,0,0,0,1.57.78,3.48,3.48,0,0,0,.66-.35,1,1,0,0,0,.43-.18l.26-.18.19-.1L20,48.6l.19-.05h.63l.41.1.3.09.12.05h0c.22.12.45.23.66.37l.18.11,0,0,.16.15a5.41,5.41,0,0,1,.53.54l0,0,0,.07c.08.12.17.24.25.37a8.62,8.62,0,0,1,.44.78c.13.25.25.51.36.77l.06.14c.07.16.13.33.19.49C25,53.75,25.43,54.89,26,56a18.53,18.53,0,0,0,16,10.28l.09,0a13.23,13.23,0,0,0,6.67.31A23.09,23.09,0,0,0,55.36,64l.78-.43a9.27,9.27,0,0,0,1.63-.49c3-1.23,5.31-3.62,7.39-6a17.18,17.18,0,0,0,13.07.73c.32-.11.64-.24,1-.37A8.79,8.79,0,0,0,80,59.53a.7.7,0,0,0,1.21-.71,6.08,6.08,0,0,1-.47-1,11.43,11.43,0,0,0,1.38.51C83,58.6,83.37,57.26,82.51,57Zm-35-17.39.05-.14v.06ZM54.9,23.05a.11.11,0,0,0-.13,0l0,0a.33.33,0,0,0,.15-.11v0h0s0,0,0,.08A.14.14,0,0,0,54.9,23.05Zm.4.61A6.6,6.6,0,0,1,55.23,25c0-.22,0-.44,0-.65A5.05,5.05,0,0,1,55.3,23.66Z" transform="translate(-16.13 -21.5)"/><path class="cls-2" d="M61.92,36.2a3.61,3.61,0,0,0-2.47-3,3.37,3.37,0,0,0-3.61,1.1c-.18.22.22.47.4.25a2.91,2.91,0,0,1,3.09-.92,3.11,3.11,0,0,1,2.12,2.52C61.49,36.46,62,36.49,61.92,36.2Z" transform="translate(-16.13 -21.5)"/><path class="cls-2" d="M70.87,39.74a3.59,3.59,0,0,0-2.47-3,3.39,3.39,0,0,0-3.61,1.1c-.18.23.22.47.4.25a2.94,2.94,0,0,1,3.09-.92,3.13,3.13,0,0,1,2.13,2.53C70.44,40,70.91,40,70.87,39.74Z" transform="translate(-16.13 -21.5)"/><path class="cls-4" d="M32.73,48.15a1.11,1.11,0,0,0-1.37-1c-.33-.23-.78.26-.48.61a1.9,1.9,0,0,0,.29.28,1,1,0,0,0,1,.46l.15,0A.39.39,0,0,0,32.73,48.15Z" transform="translate(-16.13 -21.5)"/><path class="cls-4" d="M33.58,49.68a1.11,1.11,0,0,0-1.29,0h0a.38.38,0,0,0-.2.74l.07,0,.07.11a.52.52,0,0,0,.36.16.39.39,0,0,0,.11.06.86.86,0,0,0,.75,0A.64.64,0,0,0,33.58,49.68Z" transform="translate(-16.13 -21.5)"/><path class="cls-4" d="M36.73,49.34s0,0,0-.05a.33.33,0,0,0,0-.14.69.69,0,0,0-1.08-.37.38.38,0,0,0-.3.1.4.4,0,0,0,0,.55l.05,0,.07.09a.39.39,0,0,0,.32.11.86.86,0,0,0,.58.16A.39.39,0,0,0,36.73,49.34Z" transform="translate(-16.13 -21.5)"/><path class="cls-4" d="M35.88,50.67a.46.46,0,0,0-.28-.11h-.15a.4.4,0,0,0-.27.11.37.37,0,0,0-.11.28.39.39,0,0,0,.11.27.42.42,0,0,0,.27.12h.15a.42.42,0,0,0,.28-.12A.4.4,0,0,0,36,51,.41.41,0,0,0,35.88,50.67Z" transform="translate(-16.13 -21.5)"/><path class="cls-8" d="M70.82,46.51A6.1,6.1,0,0,0,70.23,44a4.6,4.6,0,0,0-.3-.64,5,5,0,0,0-2-1.9,11.53,11.53,0,0,0-1.44-.75,5.5,5.5,0,0,0-3.23-.33,4.53,4.53,0,0,0-2.11,1,4.15,4.15,0,0,0-.61.66A4.69,4.69,0,0,0,59,44.56a5.48,5.48,0,0,0,.45,4,4.74,4.74,0,0,0,.56.82,4.71,4.71,0,0,0,1.74,1.72,6.24,6.24,0,0,0,3.82.74,5.36,5.36,0,0,0,4.2-2.15A5.3,5.3,0,0,0,70.82,46.51Z" transform="translate(-16.13 -21.5)"/><path d="M65.1,48.15a2,2,0,0,0-.32-.49c-.1-.12-.28-.26-.21-.42a.27.27,0,0,0-.09-.34h0c.08-.1.26-.2.37-.09a.34.34,0,0,0,.55-.11.24.24,0,0,0,.29-.14l.07-.2h0l.26-.83.19-.38a1.61,1.61,0,0,0,.09-.29.76.76,0,0,0-.19-.64.8.8,0,0,0-.21-.15.48.48,0,0,0-.39-.33c-.44-.07-.75.36-1,.68a6.53,6.53,0,0,0-.71,1.36,15.7,15.7,0,0,0-.5,1.51,3.76,3.76,0,0,0-.21,1.24,1.05,1.05,0,0,0,1.66.85A1,1,0,0,0,65.1,48.15Zm-1.3.47a1.15,1.15,0,0,1,0-.26,1,1,0,0,0,.18.47A.41.41,0,0,1,63.8,48.62Z" transform="translate(-16.13 -21.5)"/><path class="cls-8" d="M61.1,42.88a5.79,5.79,0,0,0-.59-2.51,4.12,4.12,0,0,0-.3-.64,5,5,0,0,0-2-1.9,10.87,10.87,0,0,0-1.44-.75,5.49,5.49,0,0,0-3.23-.33,4.53,4.53,0,0,0-2.11,1,4.15,4.15,0,0,0-.61.66,4.81,4.81,0,0,0-1.55,2.51,5.48,5.48,0,0,0,.45,4,5.16,5.16,0,0,0,.56.82,4.71,4.71,0,0,0,1.74,1.72,6.24,6.24,0,0,0,3.82.74,5.24,5.24,0,0,0,5.21-5.31Z" transform="translate(-16.13 -21.5)"/><path d="M56.38,45a2.63,2.63,0,0,0-.33-.49c-.1-.11-.27-.26-.2-.42a.28.28,0,0,0-.1-.34h0c.08-.1.27-.2.38-.09a.33.33,0,0,0,.54-.11.23.23,0,0,0,.3-.13l.06-.2h0l.26-.84a3.37,3.37,0,0,0,.19-.38,1,1,0,0,0,.09-.29.69.69,0,0,0-.19-.63.48.48,0,0,0-.2-.15.49.49,0,0,0-.4-.33c-.44-.08-.75.36-1,.67a6.36,6.36,0,0,0-.71,1.37,13.29,13.29,0,0,0-.49,1.51,3.49,3.49,0,0,0-.22,1.24,1.05,1.05,0,0,0,1.66.85A1.07,1.07,0,0,0,56.38,45Zm-1.31.47a1.09,1.09,0,0,1,0-.26,1,1,0,0,0,.18.47A.47.47,0,0,1,55.07,45.44Z" transform="translate(-16.13 -21.5)"/><path class="cls-9" d="M55.38,46.18a4.44,4.44,0,0,0-5.28.32,4.65,4.65,0,0,0-2,1.71,1.84,1.84,0,0,0,2.81,2.32,1.65,1.65,0,0,0,1.4-.82h0l2.13-.06a1.88,1.88,0,0,0,1.79-1.37A2,2,0,0,0,55.38,46.18Z" transform="translate(-16.13 -21.5)"/><path class="cls-10" d="M60.33,51.63l-.52-.14a7.44,7.44,0,0,1-.78-.44,13.19,13.19,0,0,1-1.56-1.52A18.28,18.28,0,0,0,56.22,48,4.71,4.71,0,0,0,53,46.58a5.17,5.17,0,0,0-3.31,1.2,7.76,7.76,0,0,0-1.61,1.92,2.45,2.45,0,0,0-.24,2.11A3.89,3.89,0,0,0,48.42,54a7.12,7.12,0,0,0,3.33,2.56,13.71,13.71,0,0,0,8.39.84,2.7,2.7,0,0,0,2-2.23,1.63,1.63,0,0,0,.11-.31A2.65,2.65,0,0,0,60.33,51.63Z" transform="translate(-16.13 -21.5)"/><path class="cls-3" d="M55.67,47l-.89-.15a1.11,1.11,0,0,0-.6,0l-.09-.06a1.05,1.05,0,0,0-.8-.08.81.81,0,0,0-.31-.15,2,2,0,0,0-1.4.16,1,1,0,0,0-1,1.51,2.23,2.23,0,0,0,3.51.49l.1,0a.93.93,0,0,0,.78.38,1,1,0,0,0,.6-.19,1,1,0,0,0,.36-.12,1,1,0,0,0,.46-.61A1,1,0,0,0,55.67,47Z" transform="translate(-16.13 -21.5)"/><path class="cls-11" d="M53.61,37.68a3.1,3.1,0,0,0-3,2.23.62.62,0,0,0,1.19.33,1.86,1.86,0,0,1,1.82-1.32A.62.62,0,0,0,53.61,37.68Z" transform="translate(-16.13 -21.5)"/><path class="cls-11" d="M65.36,41.83a2.79,2.79,0,0,0-3.12.49c-.58.54.3,1.42.88.87a1.51,1.51,0,0,1,1.61-.29.64.64,0,0,0,.85-.22A.63.63,0,0,0,65.36,41.83Z" transform="translate(-16.13 -21.5)"/><path class="cls-12" d="M55.08,54.48a5.11,5.11,0,0,0-1.25-.42,2,2,0,0,1-.89-.35,5.74,5.74,0,0,1-.58-1,3,3,0,0,0-1-.95,2.89,2.89,0,0,0-2.68,0A.94.94,0,0,0,48.33,53a.93.93,0,0,0,.09,1.2,12.59,12.59,0,0,0,6.3,3h.05a.89.89,0,0,0,.43.26.94.94,0,0,0,1.14-.65A2.22,2.22,0,0,0,55.08,54.48Zm-4.35-.82-.42-.29a.77.77,0,0,1,.27.14C50.63,53.55,50.68,53.61,50.73,53.66Z" transform="translate(-16.13 -21.5)"/><path class="cls-13" d="M48.07,52.84a4.78,4.78,0,0,1,5.37-6.16c1.91.28,3.05,1.45,4.15,2.94a6.32,6.32,0,0,0,3.6,2.56c.14,0,.21-.19.06-.23a5.67,5.67,0,0,1-2.79-1.61c-.7-.74-1.17-1.67-1.9-2.38a5.66,5.66,0,0,0-4.34-1.56,5.07,5.07,0,0,0-4.38,6.5c0,.14.27.08.23-.06Z" transform="translate(-16.13 -21.5)"/><path class="cls-13" d="M47.62,52.35c1.59,4,6,5.33,9.94,5.46,1.85.06,3.72-.18,4.57-2.06.56-1.26.74-3.62-1.08-3.86-.14,0-.14.21,0,.23,1.39.19,1.36,1.89,1.09,2.91a3.41,3.41,0,0,1-1.45,2c-1.39.86-3.58.54-5.11.34-3.2-.43-6.48-2-7.73-5.14-.06-.13-.28-.07-.23.07Z" transform="translate(-16.13 -21.5)"/><path class="cls-13" d="M48.05,53c0-.8.78-1.31,1.5-1.4a2.86,2.86,0,0,1,2.18.71c1,.86,1.56,2.12,2.45,3.09.1.11.26,0,.16-.16-1-1.13-1.65-2.74-3-3.51A2.86,2.86,0,0,0,49,51.54,1.63,1.63,0,0,0,47.82,53a.12.12,0,0,0,.23,0Z" transform="translate(-16.13 -21.5)"/><path class="cls-13" d="M53,54c.83.59,1.91.42,2.8.85a1.42,1.42,0,0,1,.81,1.11,1.46,1.46,0,0,1-.48,1.29c-.11.1.05.26.17.16a1.72,1.72,0,0,0,.33-2.11c-.43-.75-1.35-.88-2.13-1a3.44,3.44,0,0,1-1.39-.48c-.12-.08-.23.12-.11.2Z" transform="translate(-16.13 -21.5)"/><path class="cls-13" d="M49.21,46.44a5.55,5.55,0,0,1,7.12,1.3c.09.11.29,0,.2-.12a5.79,5.79,0,0,0-7.44-1.38c-.13.07,0,.27.12.2Z" transform="translate(-16.13 -21.5)"/><path class="cls-14" d="M59.23,47.05a5.39,5.39,0,0,0,1.87-5.34c0-.15-.26-.09-.22.06a5.13,5.13,0,0,1-1.82,5.11c-.12.09,0,.26.17.17Z" transform="translate(-16.13 -21.5)"/><path class="cls-15" d="M52.4,65.08q.12,8,.58,16.07c0,.15.24.15.23,0q-.45-8-.58-16.07c0-.14-.24-.14-.23,0Z" transform="translate(-16.13 -21.5)"/><path class="cls-7" d="M59,61.25a.8.8,0,0,0-.21-.15A.74.74,0,0,0,57.63,61a11.9,11.9,0,0,1-.88.86.83.83,0,0,0-1,.1l-.81.66-.6.32a.59.59,0,0,0-.48.07.75.75,0,0,0-.62,0,14.56,14.56,0,0,1-2.62,1.07.8.8,0,0,0-.17,1.43c-.52.13-1,.26-1.57.37a.75.75,0,0,0,0-.42.86.86,0,0,0-1-.6,5.52,5.52,0,0,1-3.61.09.87.87,0,0,0-.82-.9,15.54,15.54,0,0,1-3.37-.77,10.09,10.09,0,0,1,2.59-.91A.77.77,0,0,0,42.23,61a13.57,13.57,0,0,0-4,1.62,12.27,12.27,0,0,1-1.28-.71.82.82,0,0,0-.3-.1l-.88-.58c-.92-.6-1.77.87-.86,1.47l1.47,1a.65.65,0,0,0-.21.16c-.76.45-1.5.91-2.25,1.38q-2,1.25-3.92,2.58c-.63.43-1.26.88-1.89,1.33a10,10,0,0,1-1.8,1.09,4.65,4.65,0,0,1-2.28.22,8.85,8.85,0,0,0-2.62,0,.77.77,0,0,0-.57.74.81.81,0,0,0,.57.75,6.2,6.2,0,0,0,3.54.33.61.61,0,0,0,.37-.23,4.49,4.49,0,0,0,1-.16,12.87,12.87,0,0,0,3.79-2.23q3.25-2.26,6.66-4.31a21.1,21.1,0,0,0,6.06,1.87,1.14,1.14,0,0,0,.58-.06,10.57,10.57,0,0,0,4.94.05c1.17-.23,2.34-.52,3.49-.83l.1,0c0,.7-.05,1.41,0,2.11,0,1.31.08,2.61.14,3.91q.15,3.73.38,7.46a.84.84,0,0,0,0,.47.82.82,0,0,0,.14.28.78.78,0,0,0,.68.43l.25,0c-.1,0-.08.23,0,.22l.82-.11h0l2.85,0a.71.71,0,0,0,.68-.43l.22,0c.15,0,.15-.25,0-.23l-.16,0a.77.77,0,0,0-.36-.79A.86.86,0,0,0,57,79.3a14.9,14.9,0,0,0-2.31-.12l-.8,0q-.21-3.34-.35-6.71c0-1.28-.1-2.57-.13-3.85a18.09,18.09,0,0,1,.07-2.85A11.17,11.17,0,0,0,55.09,65a.5.5,0,0,0,.23-.29,9.9,9.9,0,0,0,1-.57,1,1,0,0,0,.42-.08A7,7,0,0,0,59,62.34.78.78,0,0,0,59,61.25Z" transform="translate(-16.13 -21.5)"/><path class="cls-4" d="M52.35,65.81a.68.68,0,0,0-.76.82L52,68.68c-.06.84,1.25.83,1.31,0l.2-2.52C53.6,65.44,52.68,65.33,52.35,65.81Z" transform="translate(-16.13 -21.5)"/><path class="cls-4" d="M35.44,64.13,33.32,65.5c-.71.45,0,1.59.67,1.13l2.12-1.36C36.82,64.81,36.16,63.67,35.44,64.13Z" transform="translate(-16.13 -21.5)"/><path class="cls-4" d="M63.32,51.36a.66.66,0,0,0-.93,0,.68.68,0,0,0,0,.93,1.91,1.91,0,0,1,.26,1.87.68.68,0,0,0,.24.9.67.67,0,0,0,.9-.24A3.28,3.28,0,0,0,63.32,51.36Z" transform="translate(-16.13 -21.5)"/><path class="cls-4" d="M32.57,48a1.47,1.47,0,0,0-.68-.83,1,1,0,0,0-1.1,0,.72.72,0,0,0,0,1,1,1,0,0,0,1,.19l.2.08C32.28,48.56,32.7,48.34,32.57,48Z" transform="translate(-16.13 -21.5)"/><path class="cls-4" d="M36.39,49.1a.55.55,0,0,0-.4-.37.49.49,0,0,0-.36,0,.42.42,0,0,0-.29.11.39.39,0,0,0,0,.55.79.79,0,0,0,.58.26.47.47,0,0,0,.42-.22A.44.44,0,0,0,36.39,49.1Z" transform="translate(-16.13 -21.5)"/><path class="cls-4" d="M38.43,47.88a.39.39,0,0,0,0,.78A.39.39,0,0,0,38.43,47.88Z" transform="translate(-16.13 -21.5)"/><path class="cls-4" d="M37.42,49.25a.61.61,0,0,0-.3,0,.76.76,0,0,0-.91.71.36.36,0,0,0,.19.34.92.92,0,0,0,.81,0,.87.87,0,0,0,.48-.58A.38.38,0,0,0,37.42,49.25Z" transform="translate(-16.13 -21.5)"/><path class="cls-4" d="M39,49.82a.39.39,0,0,0,0,.77A.39.39,0,0,0,39,49.82Z" transform="translate(-16.13 -21.5)"/><path class="cls-4" d="M57.1,29a1.3,1.3,0,0,0-1.07.28.39.39,0,0,0-.32.65,1,1,0,0,0,1.15.17,1.05,1.05,0,0,0,.77-.64C57.75,29.17,57.37,28.88,57.1,29Z" transform="translate(-16.13 -21.5)"/><path class="cls-4" d="M60.25,27.69,60,27.64l0,0a.39.39,0,0,0-.55,0l0,.06a1.38,1.38,0,0,0-.54.24.4.4,0,0,0-.14.53.43.43,0,0,0,.42.19,1.29,1.29,0,0,0,1.29-.29A.39.39,0,0,0,60.25,27.69Z" transform="translate(-16.13 -21.5)"/><path class="cls-4" d="M59.12,29a.39.39,0,0,0,0,.78A.39.39,0,0,0,59.12,29Z" transform="translate(-16.13 -21.5)"/><path class="cls-4" d="M62.18,28.6a.31.31,0,0,0,0-.1.48.48,0,0,0-.5-.36.48.48,0,0,0-.29.1h0a.4.4,0,0,0-.39.38.39.39,0,0,0,.39.39h.07a.5.5,0,0,0,.75-.28A.2.2,0,0,0,62.18,28.6Z" transform="translate(-16.13 -21.5)"/><path class="cls-4" d="M48.87,44.62a.48.48,0,0,0-.37-.46.47.47,0,0,0-.59.32h0a.74.74,0,0,0-.12.17.39.39,0,0,0,.14.53.4.4,0,0,0,.5-.11.45.45,0,0,0,.39-.24l0-.08A.32.32,0,0,0,48.87,44.62Z" transform="translate(-16.13 -21.5)"/><path class="cls-4" d="M48,46.08v0A.17.17,0,0,0,48,46a.38.38,0,0,0-.18-.23l-.06,0,0,0-.11,0h0a.31.31,0,0,0-.17,0l-.07,0a.56.56,0,0,0-.21.27h0a.5.5,0,0,0,0,.12.52.52,0,0,0,0,.11h0a.54.54,0,0,0,.2.27l.11,0a.3.3,0,0,0,.13,0,.49.49,0,0,0,.24-.05.46.46,0,0,0,.17-.17A.35.35,0,0,0,48,46.08Z" transform="translate(-16.13 -21.5)"/><path class="cls-4" d="M49.12,45.17a.38.38,0,0,0-.27-.12.41.41,0,0,0-.39.39v.15a.4.4,0,0,0,.12.27.38.38,0,0,0,.27.12.4.4,0,0,0,.27-.12.38.38,0,0,0,.12-.27v-.15A.4.4,0,0,0,49.12,45.17Z" transform="translate(-16.13 -21.5)"/><path class="cls-4" d="M48.4,42.52a.39.39,0,0,0,0,.78A.39.39,0,0,0,48.4,42.52Z" transform="translate(-16.13 -21.5)"/><path class="cls-4" d="M51.21,63.65a.85.85,0,0,0-.16-.17,1,1,0,0,0-1,0,.41.41,0,0,0-.28.37.39.39,0,0,0,0,.77l1.17,0a.39.39,0,0,0,.34-.19v0A.4.4,0,0,0,51.21,63.65Z" transform="translate(-16.13 -21.5)"/><path class="cls-4" d="M54.94,63.14a1.6,1.6,0,0,0-1.72.46l0,0a.39.39,0,0,0-.13.76,2,2,0,0,0,2-.61A.38.38,0,0,0,54.94,63.14Z" transform="translate(-16.13 -21.5)"/><path class="cls-4" d="M55.67,61.69a.38.38,0,0,0-.55,0A.39.39,0,0,0,55,62v.15a.39.39,0,0,0,.11.27.42.42,0,0,0,.28.12.4.4,0,0,0,.27-.12.39.39,0,0,0,.11-.27V62A.39.39,0,0,0,55.67,61.69Z" transform="translate(-16.13 -21.5)"/><path class="cls-4" d="M58.29,61.8a.43.43,0,0,0,0,0,.39.39,0,0,0-.57-.43A1.6,1.6,0,0,0,57,62a.32.32,0,0,0-.09.17l0,0a.35.35,0,0,0-.06.24.41.41,0,0,0,.19.39.43.43,0,0,0,.47-.06l.73-.59A.39.39,0,0,0,58.29,61.8Z" transform="translate(-16.13 -21.5)"/><path class="cls-4" d="M52.57,61.43a.39.39,0,0,0,0,.77A.39.39,0,0,0,52.57,61.43Z" transform="translate(-16.13 -21.5)"/><path class="cls-4" d="M50.17,56.44a5.85,5.85,0,0,1-3.83-5.34.39.39,0,0,0-.78,0A6.63,6.63,0,0,0,50,57.18C50.44,57.35,50.64,56.6,50.17,56.44Z" transform="translate(-16.13 -21.5)"/><path class="cls-4" d="M53.83,29.75l0,0-.08,0h0a.77.77,0,0,1-.35-.73c0-.43-.7-.54-.76-.1,0,0,0,.07,0,.1h0v.13a1.4,1.4,0,0,0,.21.76.33.33,0,0,0,.19.32l.29.16.19.1a.4.4,0,0,0,.53-.14A.38.38,0,0,0,53.83,29.75Z" transform="translate(-16.13 -21.5)"/><path class="cls-4" d="M54.4,28a1.62,1.62,0,0,1-.1-.84.4.4,0,0,0-.39-.39.39.39,0,0,0-.38.39,2.36,2.36,0,0,0,.2,1.23.39.39,0,0,0,.53.14A.4.4,0,0,0,54.4,28Z" transform="translate(-16.13 -21.5)"/><path class="cls-4" d="M20.49,43.08a.39.39,0,0,0-.47-.27l-.75.14a.41.41,0,0,0-.27.48.4.4,0,0,0,.48.27l.74-.15A.38.38,0,0,0,20.49,43.08Z" transform="translate(-16.13 -21.5)"/></svg>