<svg id="Camada_1" data-name="Camada 1" xmlns="http://www.w3.org/2000/svg" xmlns:xlink="http://www.w3.org/1999/xlink" viewBox="0 0 121.38 132"><defs><style>.cls-1{fill:#ffd631;}.cls-2{fill:#e8bd0f;}.cls-3{fill:#d966a3;}.cls-4{fill:#d15e9f;}.cls-5{fill:#9f1970;}.cls-6{fill:#fff;}.cls-7{fill:#f5edf2;}.cls-8{fill:#f2ebf0;}.cls-9{fill:#150a12;}.cls-10{clip-path:url(#clip-path);}.cls-11{opacity:0.58;}.cls-12{clip-path:url(#clip-path-2);}.cls-13{clip-path:url(#clip-path-3);}.cls-14{fill:#b7960b;}.cls-15{clip-path:url(#clip-path-4);}.cls-16{fill:#9e519a;}.cls-17{fill:#62184d;}.cls-18{fill:#f7edf4;}.cls-19{fill:#100f10;}.cls-20{fill:#e62338;}.cls-21{fill:#e72380;}.cls-22{fill:#5b63aa;}.cls-23{fill:#ece42f;}</style><clipPath id="clip-path" transform="translate(-26.99 -31.08)"><path class="cls-1" d="M116.28,76.32a40.09,40.09,0,0,1-32.42-1.88,42.4,42.4,0,0,0,.79-9.59,43.93,43.93,0,0,0-3.51-15.78l12.8,10.87a47.72,47.72,0,0,0,4.63-7,44.47,44.47,0,0,0,3.15-7.37,59.18,59.18,0,0,0,2.43,7.55A60.88,60.88,0,0,0,108,61l13.65-9.37a48.19,48.19,0,0,0-4.94,15.25A46.53,46.53,0,0,0,116.28,76.32Z"/></clipPath><clipPath id="clip-path-2" transform="translate(-26.99 -31.08)"><ellipse class="cls-2" cx="101.67" cy="45.59" rx="1.67" ry="1.94" transform="matrix(0.07, -1, 1, 0.07, 49.43, 144.01)"/></clipPath><clipPath id="clip-path-3" transform="translate(-26.99 -31.08)"><path class="cls-2" d="M116.41,69.38a65,65,0,0,1-16,.94,65.32,65.32,0,0,1-15.69-2.95,5.13,5.13,0,0,0,.06-.83,5.78,5.78,0,0,0-.06-.65,74.48,74.48,0,0,0,15.8,2.72,74.37,74.37,0,0,0,16-.71l0,.74Z"/></clipPath><clipPath id="clip-path-4" transform="translate(-26.99 -31.08)"><path class="cls-2" d="M116.19,72.81a65.64,65.64,0,0,1-31.71-2,4.25,4.25,0,0,0,0-.83,4.12,4.12,0,0,0-.06-.65A75.24,75.24,0,0,0,100.27,72a75.09,75.09,0,0,0,16-.71l-.05.74Z"/></clipPath></defs><path class="cls-3" d="M78.14,125.73a21.24,21.24,0,0,1-1.82-1.13l-.46-.33c-.17-.13.08.06,0,0l-.21-.18c-.27-.23-.53-.46-.78-.71l-.33-.37-.1-.12-.07-.09c-.1-.14-.19-.28-.28-.43a2.13,2.13,0,0,1-.23-.45c0,.13.06.15,0,0a2.09,2.09,0,0,1-.08-.23c0-.15-.08-.3-.11-.45s0,.25,0,0c0-.08,0-.17,0-.25a4.71,4.71,0,0,1,0-.53,1.15,1.15,0,0,0-1.14-1.14,1.18,1.18,0,0,0-1.14,1.14c-.35,3.46,3,5.79,5.61,7.29a1.14,1.14,0,0,0,1.15-2Z" transform="translate(-26.99 -31.08)"/><path class="cls-3" d="M75.91,117.81a9.27,9.27,0,0,1-1.86-.56l.54.23a10.3,10.3,0,0,1-2.13-1.24l.46.35a8.92,8.92,0,0,1-1.6-1.59l.36.46q-.2-.25-.36-.51a2.5,2.5,0,0,0-1.36-1,2.35,2.35,0,0,0-1.76.23,2.32,2.32,0,0,0-1,1.36,2.26,2.26,0,0,0,.23,1.76,11.6,11.6,0,0,0,7.31,5,2.45,2.45,0,0,0,1.76-.23,2.28,2.28,0,0,0-.55-4.16Z" transform="translate(-26.99 -31.08)"/><path class="cls-3" d="M71.44,113.22a9.77,9.77,0,0,1-1.08-.06l.61.08a6.92,6.92,0,0,1-1.67-.47l.54.23a7.51,7.51,0,0,1-1.57-.92l.46.36a7.63,7.63,0,0,1-1.27-1.27l.36.46a6.94,6.94,0,0,1-.84-1.44l.23.54a5.87,5.87,0,0,1-.39-1.42l.08.6a6,6,0,0,1-.05-.74,2.29,2.29,0,0,0-2.27-2.27,2.32,2.32,0,0,0-2.28,2.27c0,4.78,4.45,8.71,9.14,8.6a2.28,2.28,0,0,0,0-4.55Z" transform="translate(-26.99 -31.08)"/><path class="cls-3" d="M71.87,107.14a9,9,0,0,1-1.27,0l-.45,0L69.7,107c-.78-.15-1.55-.37-2.31-.57s-1.41-.35-2.11-.55c0,0-.56-.2-.28-.08s-.24-.13-.23-.15.46.4.24.15-.07-.12,0,0,.06.1,0-.13c-.17-.76-.34-1.51-.48-2.28-.08-.42-.14-.84-.21-1.26l-.09-.63c0,.24,0-.09,0-.15a51,51,0,0,1-.34-5.09,2.28,2.28,0,0,0-4.55,0,48.51,48.51,0,0,0,.45,5.9c.13,1,.29,2,.49,3.07A10,10,0,0,0,61,108c.95,1.85,3,2.24,4.8,2.72a17.53,17.53,0,0,0,6,.93,2.32,2.32,0,0,0,2.27-2.28,2.29,2.29,0,0,0-2.27-2.27Z" transform="translate(-26.99 -31.08)"/><path class="cls-3" d="M60.75,90a7.11,7.11,0,0,0,1.93,10,7.52,7.52,0,0,0,2.48,1c.9.2,2,0,2.82.26.57.17.74.69,1.09,1.17a10.86,10.86,0,0,0,2.21,2.23c3.32,2.53,7.63,3,11.69,2.87,3.48-.15,7.87-1.34,11,.8a2.28,2.28,0,0,0,2.3-3.93c-6.12-4.24-14.08.53-20.6-2.41a7.64,7.64,0,0,1-3.26-2.8,5.58,5.58,0,0,0-4.58-2.5c-1.28-.09-2.53-.09-3.38-1.23a2.69,2.69,0,0,1,.27-3.23,2.29,2.29,0,0,0-.82-3.11,2.32,2.32,0,0,0-3.11.81Z" transform="translate(-26.99 -31.08)"/><path class="cls-3" d="M75.28,121.67a9.93,9.93,0,0,0,3.38-.37,9.76,9.76,0,0,0,3-1.46,2.54,2.54,0,0,0,1-1.36,2.35,2.35,0,0,0-.23-1.76,2.32,2.32,0,0,0-1.36-1,2.21,2.21,0,0,0-1.76.23,8,8,0,0,1-1.58.9l.54-.22a8.48,8.48,0,0,1-2.1.57l.6-.08a8.24,8.24,0,0,1-1.57,0,2.26,2.26,0,0,0-1.61.67,2.27,2.27,0,0,0,0,3.22,2.5,2.5,0,0,0,1.61.66Z" transform="translate(-26.99 -31.08)"/><path class="cls-3" d="M78.23,118.62c3.36,2.55,8.4,1.73,12.17.7a7.36,7.36,0,0,0,3.07-1.57,7.72,7.72,0,0,0,1.88-3c.91-2.18,1.78-4.38,2.68-6.57a2.3,2.3,0,0,0-1.59-2.8,2.34,2.34,0,0,0-2.8,1.59l-2.26,5.53c-.09.23-.18.47-.28.7a1.09,1.09,0,0,1-.12.25c-.09.18-.18.36-.29.54s-.31.4-.16.23a2.91,2.91,0,0,1-1.59.73,22.14,22.14,0,0,1-4.55.72c-.39,0-.77,0-1.15,0l-.44,0-.43-.09a3.77,3.77,0,0,1-1.84-.89,2.29,2.29,0,0,0-3.11.82,2.32,2.32,0,0,0,.81,3.11Z" transform="translate(-26.99 -31.08)"/><path class="cls-3" d="M62.61,93.23a30.69,30.69,0,0,1,5.78-8A78.83,78.83,0,0,1,75.73,78C77,77,78.46,76.18,79.8,75.2A37.78,37.78,0,0,0,83.26,72a18.88,18.88,0,0,1,4.24-3c.4-.2,3.43-1.64,3.4-.43-.05,2.2,3.37,2.2,3.41,0a3.83,3.83,0,0,0-3.07-3.73c-2-.48-4.09.46-5.85,1.42a21.81,21.81,0,0,0-4.85,3.58c-.68.66-1.29,1.4-2,2a20.62,20.62,0,0,1-2.39,1.64A55.49,55.49,0,0,0,67,81.71c-2.84,2.94-5.61,6.05-7.34,9.8-.92,2,2,3.71,2.94,1.72Z" transform="translate(-26.99 -31.08)"/><path class="cls-3" d="M72,87.51l.64-1.81a1.66,1.66,0,0,0,0-.91,1.61,1.61,0,0,0-.27-.84,1.63,1.63,0,0,0-.58-.64A1.73,1.73,0,0,0,71,82.9l-.6-.08a2.21,2.21,0,0,0-1.15.31l-.46.36a2.32,2.32,0,0,0-.59,1l-.63,1.81a1.77,1.77,0,0,0,0,.91,1.85,1.85,0,0,0,.27.85,1.9,1.9,0,0,0,.59.64,1.73,1.73,0,0,0,.77.4l.61.08a2.23,2.23,0,0,0,1.15-.31l.46-.35a2.23,2.23,0,0,0,.58-1Z" transform="translate(-26.99 -31.08)"/><path class="cls-3" d="M74.09,83.35l0-.17.09.6a2.3,2.3,0,0,1,0-.74l-.09.61a2.88,2.88,0,0,1,.22-.76l-.23.54a3.43,3.43,0,0,1,.4-.69l-.35.46a3.45,3.45,0,0,1,.54-.54l-.46.36c.1-.08.2-.14.3-.21a2.31,2.31,0,0,0,1-1.36,1.72,1.72,0,0,0,0-.9,1.61,1.61,0,0,0-.27-.85,2.31,2.31,0,0,0-1.36-1,2.37,2.37,0,0,0-1.75.23,5.11,5.11,0,0,0-1.2,1,5.23,5.23,0,0,0-.85,1.22,8.33,8.33,0,0,0-.37.94,7.41,7.41,0,0,0-.18,1,4.58,4.58,0,0,0,.12,1.52,2.52,2.52,0,0,0,1,1.36,1.81,1.81,0,0,0,.85.27,1.72,1.72,0,0,0,.9,0,2.25,2.25,0,0,0,1.36-1.05l.23-.54a2.26,2.26,0,0,0,0-1.21Z" transform="translate(-26.99 -31.08)"/><path class="cls-3" d="M73.11,90.74c3.49.2,5.4-3.32,6.86-5.93a20.69,20.69,0,0,0,3.12-9.62,2.28,2.28,0,0,0-2.27-2.27,2.32,2.32,0,0,0-2.28,2.27c0,.35,0,.7-.06,1s0-.3,0,.08l-.09.45a13.64,13.64,0,0,1-.51,1.9c-.12.33-.24.66-.37,1s.11-.25,0,.11c-.07.14-.13.28-.2.43-.3.65-.63,1.28-1,1.91-.61,1.1-1.27,2.17-2,3.24-.17.27.23-.25,0,0l-.25.29-.33.33c-.17.18-.14.1,0,0l-.3.19c-.23.15-.11,0,.06,0,0,0-.55.11-.2.08s-.22,0-.24,0a2.3,2.3,0,0,0-2.28,2.28,2.34,2.34,0,0,0,2.28,2.28Z" transform="translate(-26.99 -31.08)"/><path class="cls-3" d="M78.09,86a9.81,9.81,0,0,0,4.46,1.06,2.28,2.28,0,0,0,1.61-3.88,2.41,2.41,0,0,0-1.61-.67,7,7,0,0,1-1-.07l.61.08a7.52,7.52,0,0,1-2-.54l.55.23-.33-.14a2.56,2.56,0,0,0-1.75-.23,2.27,2.27,0,0,0-1.59,2.8,2.26,2.26,0,0,0,1,1.36Z" transform="translate(-26.99 -31.08)"/><path class="cls-3" d="M84.38,82.91a7.75,7.75,0,0,1,.51-.76l-.36.46a7.57,7.57,0,0,1,1.27-1.26l-.46.36a7.15,7.15,0,0,1,1.56-.91l-.54.23c.12-.06.25-.1.38-.15a2.42,2.42,0,0,0,1.36-1,2.27,2.27,0,0,0-.82-3.11,2.24,2.24,0,0,0-1.75-.23,10.75,10.75,0,0,0-1.66.74,10.9,10.9,0,0,0-1.47,1,8.74,8.74,0,0,0-2,2.33,2.45,2.45,0,0,0-.23,1.76,2.38,2.38,0,0,0,1,1.36A2.29,2.29,0,0,0,83,84a2.39,2.39,0,0,0,1.36-1Z" transform="translate(-26.99 -31.08)"/><path class="cls-3" d="M83.9,74.58a7.23,7.23,0,0,0,.52,4.28,8.09,8.09,0,0,0,2.11,2.83,19.08,19.08,0,0,0,6.67,3.36A2.29,2.29,0,0,0,96,83.46a2.35,2.35,0,0,0-1.59-2.8,26.38,26.38,0,0,1-2.49-.91l.12,0-.3-.14-.59-.29A9.62,9.62,0,0,1,90,78.7l-.21-.15c-.39-.27.39.34,0,0l-.45-.4c-.15-.15-.28-.3-.42-.45l-.15-.19c.42.47.19.26.1.12s-.22-.34-.32-.51l-.14-.27c0-.06-.19-.44,0,0s0,0,0-.06-.06-.19-.08-.28a4.7,4.7,0,0,1-.13-.63l.08.6a4.1,4.1,0,0,1,0-1l-.09.61a2,2,0,0,0,0-.24A2.42,2.42,0,0,0,88.06,74a2.27,2.27,0,0,0-4.16.54Z" transform="translate(-26.99 -31.08)"/><path class="cls-3" d="M86.87,75.91c3.95-1.49,5.87,3.13,6.55,6.14a90.49,90.49,0,0,1,1.93,14.19,2.33,2.33,0,0,0,2.28,2.27,2.29,2.29,0,0,0,2.27-2.27c-.19-3-.51-6-.94-9a54.3,54.3,0,0,0-1.62-8.2,11.75,11.75,0,0,0-4.26-6.38,8.12,8.12,0,0,0-7.42-1.14,2.33,2.33,0,0,0-1.59,2.79,2.28,2.28,0,0,0,2.8,1.59Z" transform="translate(-26.99 -31.08)"/><path class="cls-3" d="M95.3,75.12a9.68,9.68,0,0,0,.12-1.94,8.85,8.85,0,0,0-.31-1.91,9.22,9.22,0,0,0-1.83-3.35,2.26,2.26,0,0,0-3.21,0,2.26,2.26,0,0,0-.67,1.61l.08.6a2.2,2.2,0,0,0,.59,1l.15.19-.36-.46a7,7,0,0,1,.82,1.39l-.23-.54a6.76,6.76,0,0,1,.46,1.71l-.08-.61a6.67,6.67,0,0,1,0,1.61l.08-.6v.08a2.56,2.56,0,0,0,.23,1.75,2.27,2.27,0,0,0,3.11.82,2.23,2.23,0,0,0,1-1.36Z" transform="translate(-26.99 -31.08)"/><path class="cls-3" d="M74.09,94.06a6.1,6.1,0,0,1,1.35,0l-.6-.08a6,6,0,0,1,1.51.41l-.54-.23.47.22a2.35,2.35,0,0,0,1.76.23,2.32,2.32,0,0,0,1.36-1,2.35,2.35,0,0,0,.22-1.76,2.26,2.26,0,0,0-1-1.36,8,8,0,0,0-2.16-.79,7.93,7.93,0,0,0-2.33-.18,1.75,1.75,0,0,0-.88.19,1.77,1.77,0,0,0-.73.47,2.34,2.34,0,0,0-.67,1.61,2.3,2.3,0,0,0,.67,1.61,2.22,2.22,0,0,0,1.61.67Z" transform="translate(-26.99 -31.08)"/><path class="cls-3" d="M80.72,95.3a4,4,0,0,1-.45-.25c-.3-.18.44.39.2.15L80.29,95c-.05,0-.1-.13-.16-.18s.38.53.17.2a3.48,3.48,0,0,1-.22-.43l.23.54a3.86,3.86,0,0,1-.26-.94l.08.6a4.42,4.42,0,0,1,0-1.09l-.08.6a4.54,4.54,0,0,1,.29-1.08l-.23.54a5.75,5.75,0,0,1,.34-.65c.06-.1.33-.45.05-.09s0,0,.11-.1l.26-.24c.21-.19-.21.18-.23.18s.15-.1.19-.13a5.66,5.66,0,0,1,.88-.46l-.55.23a6.37,6.37,0,0,1,1.5-.39l-.61.08a7.67,7.67,0,0,1,2,0l-.61-.09a9.14,9.14,0,0,1,2.3.64l-.54-.23.5.23A2.28,2.28,0,1,0,88,88.85a10,10,0,0,0-9-.29,6.52,6.52,0,0,0-3.31,7.15,5.14,5.14,0,0,0,2.71,3.52,2.5,2.5,0,0,0,1.76.23,2.34,2.34,0,0,0,1.36-1,2.31,2.31,0,0,0-.82-3.11Z" transform="translate(-26.99 -31.08)"/><path class="cls-3" d="M80.84,96.11a17.68,17.68,0,0,0,16,2.41,2.28,2.28,0,0,0-1.21-4.39,14.93,14.93,0,0,1-1.74.48c-.29.07-.58.12-.88.17.44-.07-.43,0-.51,0-.6,0-1.2.06-1.8,0q-.45,0-.9-.06l-.44,0c.23,0,.21,0-.06,0a12.58,12.58,0,0,1-6.11-2.57A2.29,2.29,0,0,0,80,93a2.34,2.34,0,0,0,.82,3.11Z" transform="translate(-26.99 -31.08)"/><path class="cls-3" d="M94.25,97.86l3.11,6.56s.43.67.24.52a1.08,1.08,0,0,1,.33-1.23c.28-.24.3-.29,0-.13a.84.84,0,0,1,.62-.07c-.25-.08-.31-.09-.19,0s.07,0-.15-.1,0,0-.32-.23l-.47-.39a18.5,18.5,0,0,0-1.5-1.14,19.34,19.34,0,0,0-12.33-3.28,2.33,2.33,0,0,0-2.28,2.27,2.3,2.3,0,0,0,2.28,2.28,15.19,15.19,0,0,1,6.74.91,15,15,0,0,1,3,1.53c1,.62,1.61,1.42,2.71,2a4.32,4.32,0,0,0,4.22.15A3.36,3.36,0,0,0,102,103.6a13.45,13.45,0,0,0-.93-2l-.94-2-1.9-4a2.29,2.29,0,0,0-3.11-.81,2.32,2.32,0,0,0-.82,3.11Z" transform="translate(-26.99 -31.08)"/><path class="cls-3" d="M103.44,95.89l-3.24-8.64c-.88-2.36-1.46-4.54.3-6.51a2.32,2.32,0,0,0,0-3.21,2.29,2.29,0,0,0-3.22,0,9.56,9.56,0,0,0-1.9,9.73c1.1,3.32,2.45,6.57,3.67,9.84a2.35,2.35,0,0,0,2.8,1.59,2.29,2.29,0,0,0,1.59-2.8Z" transform="translate(-26.99 -31.08)"/><path class="cls-3" d="M99.83,79.62a7.81,7.81,0,0,1-.94-3.13,27.16,27.16,0,0,1,.16-3.37,12.07,12.07,0,0,0-.22-3.84A7,7,0,0,0,98,67.39a3.37,3.37,0,0,0-.41-.58c-.2-.34-.2-.23,0,.34a.72.72,0,0,1-.18.58c-.1.11,0,.07.13-.11-.13.11-.09.09.14-.06.64-.27-.29.06.44-.17a4.14,4.14,0,0,1,1.52-.24,11,11,0,0,1,3.36.56c2.59.75,5.12,1.76,7.67,2.66a2.3,2.3,0,0,0,2.8-1.59,2.33,2.33,0,0,0-1.59-2.8,78.1,78.1,0,0,0-8.9-3c-3-.66-7.1-.74-9.16,2a3.53,3.53,0,0,0-.75,2.4,4.72,4.72,0,0,0,1,2.32,3.55,3.55,0,0,1,.23.43c-.07-.17-.06-.12,0,.13,0,.1.17.91.14.59a12.39,12.39,0,0,1,0,2,23.49,23.49,0,0,0-.13,4.19,12.87,12.87,0,0,0,1.51,4.87,2.28,2.28,0,1,0,3.93-2.3Z" transform="translate(-26.99 -31.08)"/><path class="cls-3" d="M103.23,77.71a6.72,6.72,0,0,0,1-.84,5.79,5.79,0,0,0,.78-1.06,4.47,4.47,0,0,0,.27-.59q.13-.3.24-.6c0-.12.06-.24.08-.36a7.84,7.84,0,0,0,.11-1,1.63,1.63,0,0,0-.19-.87,2,2,0,0,0-1.21-1.21,1.63,1.63,0,0,0-.87-.19l-.61.08a2.3,2.3,0,0,0-1,.58l-.36.46a2.33,2.33,0,0,0-.31,1.15,2.28,2.28,0,0,1,0,.26l.08-.61a3.4,3.4,0,0,1-.21.79l.23-.54a3.4,3.4,0,0,1-.42.71l.36-.46a3.66,3.66,0,0,1-.59.59l.46-.36-.13.1a1.67,1.67,0,0,0-.63.58A2,2,0,0,0,99.85,76a1.61,1.61,0,0,0,.27.85,2.31,2.31,0,0,0,1.36,1l.6.08a2.3,2.3,0,0,0,1.15-.31Z" transform="translate(-26.99 -31.08)"/><path class="cls-3" d="M102.33,75.27l2.93,1.25a1.61,1.61,0,0,0,.84.27,1.76,1.76,0,0,0,.91,0,1.73,1.73,0,0,0,.78-.41,1.71,1.71,0,0,0,.58-.64A2.27,2.27,0,0,0,108.6,74l-.23-.54a2.2,2.2,0,0,0-.81-.82l-2.93-1.25a1.85,1.85,0,0,0-.85-.27,1.76,1.76,0,0,0-.91,0,2.6,2.6,0,0,0-1.36,1,2.38,2.38,0,0,0-.23,1.75l.23.55a2.35,2.35,0,0,0,.82.81Z" transform="translate(-26.99 -31.08)"/><path class="cls-3" d="M105.25,70.44a1.42,1.42,0,0,0,.35.11l-.21-.09.11.06.32.18.2.14-.27-.2c.2.07.35.38.5.51-.43-.37-.2-.27-.08-.07a1.87,1.87,0,0,0,.17.31c-.15-.37-.18-.43-.09-.2l0,.12c0,.12.07.25.11.37s.14.49.23.73a4.61,4.61,0,0,0,1.49,2.09c2.12,1.63,5,.75,7.12-.32a2.29,2.29,0,0,0,.82-3.11,2.33,2.33,0,0,0-3.11-.82c-.16.08-.52.16-.62.29.09-.12.53-.21.11-.05l-.28.1c-.21.06-.41.13-.62.18l-.34.07c-.24,0-.44,0,.16,0a5.82,5.82,0,0,0-.59,0c-.44,0,.25,0,.24,0a2.92,2.92,0,0,1-.29-.07c-.15,0-.13,0,.09.05s.24.1.09,0-.22-.27.13.14a1.45,1.45,0,0,0-.18-.17q-.16-.18.18.24a1.4,1.4,0,0,1-.1-.16c-.21-.38,0,.09,0,.13s-.11-.32-.12-.36c-.07-.23-.13-.46-.21-.68a6.27,6.27,0,0,0-1.11-2,6,6,0,0,0-3.08-2,2.28,2.28,0,1,0-1.21,4.39Z" transform="translate(-26.99 -31.08)"/><path class="cls-3" d="M110.81,70.72l.74.27c.44.18-.5-.22-.07,0l.36.16c.46.23.92.48,1.35.75.22.14.44.28.65.43l.31.23c.32.23-.32-.26-.1-.08.39.33.78.66,1.14,1s.66.71,1,1.09-.32-.44,0-.06l.22.3.42.64a13,13,0,0,1,.72,1.32,2.11,2.11,0,0,0,.16.34c-.08-.13-.2-.48-.07-.13s.19.51.28.77a2.27,2.27,0,0,0,4.38-1.21A16.15,16.15,0,0,0,112,66.33a2.29,2.29,0,0,0-2.8,1.59,2.32,2.32,0,0,0,1.59,2.8Z" transform="translate(-26.99 -31.08)"/><path class="cls-3" d="M118.14,73.21a1.7,1.7,0,0,1,.64.19,11,11,0,0,1,1.45.91,33.48,33.48,0,0,1,3,2.27,26,26,0,0,1,5.1,5.67A56.83,56.83,0,0,1,132,89.06c1,2.13,2.4,4.93,1.32,7.29-.91,2,2,3.72,2.95,1.72,1.49-3.24.61-6.45-.78-9.57a50.86,50.86,0,0,0-4.9-9.07,32,32,0,0,0-6.89-6.85c-2-1.47-5.7-4.42-8-1.78-1.42,1.66,1,4.09,2.42,2.41Z" transform="translate(-26.99 -31.08)"/><path class="cls-3" d="M109.5,107.06c0,.55,0,0,0-.11s.1-.35.16-.52c-.17.51,0,0,.08-.1l.3-.45c-.22.32,0,0,.11-.11s.22-.23.34-.33.29-.26.43-.38-.26.16.09-.07a19,19,0,0,1,2.1-1.2l.56-.25c-.3.13,0,0,.11,0l1.13-.42c3.16-1.15,6.75-2.53,8.32-5.76a2.28,2.28,0,1,0-3.93-2.3c-.09.17-.17.34-.27.51s-.32.47-.08.16a6.62,6.62,0,0,1-.78.81c-.12.11-.47.35-.15.13l-.48.33c-.34.21-.69.4-1,.59s-.74.35-1.12.51l-.22.09-.58.22c-.79.3-1.59.57-2.37.89-3.5,1.44-6.91,3.72-7.28,7.8a2.28,2.28,0,0,0,2.27,2.28,2.35,2.35,0,0,0,2.28-2.28Z" transform="translate(-26.99 -31.08)"/><path class="cls-3" d="M119.62,98.28a4.7,4.7,0,0,0,1.59.92,4.26,4.26,0,0,0,1.37.21,5.73,5.73,0,0,0,2.65-.7,6.2,6.2,0,0,0,3-4.26,18.13,18.13,0,0,0,.33-2.94,2.28,2.28,0,1,0-4.55,0c0,.56-.06,1.12-.13,1.68l.08-.61a6.76,6.76,0,0,1-.44,1.7l.23-.55a4.71,4.71,0,0,1-.52.93l.35-.46a3.48,3.48,0,0,1-.57.58l.46-.36a3.55,3.55,0,0,1-.84.49l.54-.23a3.17,3.17,0,0,1-.85.24l.6-.09a2.83,2.83,0,0,1-.65,0l.6.08a2.7,2.7,0,0,1-.56-.14l.55.23a2.51,2.51,0,0,1-.45-.26l.46.36,0,0a2.48,2.48,0,0,0-1.61-.67A2.29,2.29,0,0,0,119,96.68a2.21,2.21,0,0,0,.67,1.6Z" transform="translate(-26.99 -31.08)"/><path class="cls-3" d="M127.2,93.2a6.66,6.66,0,0,0,1.54-.11,4.3,4.3,0,0,0,1-.26,6.33,6.33,0,0,0,1.36-.66,6.53,6.53,0,0,0,1.17-1,2.4,2.4,0,0,0,.66-1.6A2.27,2.27,0,0,0,129,88a3.68,3.68,0,0,1-.54.5l.46-.36a4.16,4.16,0,0,1-.91.53l.54-.23a4.14,4.14,0,0,1-1.08.3l.61-.08a4.62,4.62,0,0,1-.91,0,1.69,1.69,0,0,0-.88.19,1.73,1.73,0,0,0-.73.47,2.33,2.33,0,0,0-.66,1.61,2.25,2.25,0,0,0,.66,1.61l.46.36a2.33,2.33,0,0,0,1.15.31Z" transform="translate(-26.99 -31.08)"/><path class="cls-3" d="M103.64,103.75a22.47,22.47,0,0,1-.7-2.8c.06.37,0-.31,0-.35a5.82,5.82,0,0,1,0-.59c0-.09,0-.84,0-.47s0-.15,0-.22a4.42,4.42,0,0,1,.14-.52c0-.13.28-.56,0-.12.09-.16.16-.32.25-.47s.4-.51,0-.12c.12-.14.25-.26.36-.4.27-.3-.18.09,0,0s.32-.18.47-.28.1-.06-.09,0l.32-.11.56-.13c.51-.12-.18,0,.3,0s1.16-.13,1.74-.23a10.46,10.46,0,0,0,2.25-.63,12.53,12.53,0,0,0,4.53-3A2.28,2.28,0,0,0,110.66,90c-.3.32-.63.59-.94.9-.12.1-.1.08.07,0l-.33.24-.51.33a11,11,0,0,1-1.08.56c.43-.2-.11,0-.21.07l-.58.19-.69.17-.42.08-.16,0-.45,0-1.06.14a6.5,6.5,0,0,0-2.79,1,7.21,7.21,0,0,0-3,4.64,14.36,14.36,0,0,0,.74,6.59,2.28,2.28,0,0,0,4.39-1.21Z" transform="translate(-26.99 -31.08)"/><path class="cls-3" d="M103.24,91.31a19.74,19.74,0,0,0,3.35-.16,6.88,6.88,0,0,0,2.91-1.07,6.36,6.36,0,0,0,2.3-2.9,4.5,4.5,0,0,0-.24-3.61,2.28,2.28,0,0,0-4.16.54,2.62,2.62,0,0,0,.23,1.76l0,.07-.23-.54a2.56,2.56,0,0,1,.15.56l-.08-.61a2.71,2.71,0,0,1,0,.57l.08-.6a3.69,3.69,0,0,1-.18.65l.23-.55a4.42,4.42,0,0,1-.44.76l.35-.46a4.21,4.21,0,0,1-.7.7l.46-.36a3.9,3.9,0,0,1-.91.52l.54-.23a6.41,6.41,0,0,1-1.56.41l.6-.08a17.92,17.92,0,0,1-2.74.08,2.28,2.28,0,1,0,0,4.55Z" transform="translate(-26.99 -31.08)"/><path class="cls-3" d="M111.64,88.56a5.35,5.35,0,0,1,1.32-.35l-.61.08a5.75,5.75,0,0,1,1.55,0l-.6-.08a6.24,6.24,0,0,1,1.59.43l-.54-.23a6.2,6.2,0,0,1,1.32.76l-.46-.35a5.78,5.78,0,0,1,.93.92l-.36-.46a4.73,4.73,0,0,1,.61,1l-.23-.55.07.18a2.44,2.44,0,0,0,1,1.36,2.4,2.4,0,0,0,1.76.23,2.31,2.31,0,0,0,1.59-2.8A7.3,7.3,0,0,0,118.89,86a8.38,8.38,0,0,0-2.79-1.75,7.71,7.71,0,0,0-5.67-.07,2.48,2.48,0,0,0-1.36,1,2.31,2.31,0,0,0-.23,1.76,2.33,2.33,0,0,0,1,1.36,2.23,2.23,0,0,0,1.76.22Z" transform="translate(-26.99 -31.08)"/><path class="cls-3" d="M117,89.28a6.51,6.51,0,0,0,3.35-1,6.34,6.34,0,0,0,1.34-1.09,5.64,5.64,0,0,0,1-1.39A1.61,1.61,0,0,0,123,85a1.76,1.76,0,0,0,0-.91,2.27,2.27,0,0,0-2.8-1.58,2.2,2.2,0,0,0-1.36,1,4.11,4.11,0,0,1-.42.69l.36-.46a4.15,4.15,0,0,1-.73.72l.46-.35a4.74,4.74,0,0,1-1,.58l.55-.23a4.47,4.47,0,0,1-1.07.29l.61-.08a4.19,4.19,0,0,1-.5,0,2.37,2.37,0,0,0-1.61.67,2.27,2.27,0,0,0,0,3.22,2.34,2.34,0,0,0,1.61.66Z" transform="translate(-26.99 -31.08)"/><path class="cls-3" d="M111.92,80l-1.53-1a1.61,1.61,0,0,0-.85-.27,1.76,1.76,0,0,0-.91,0,2.6,2.6,0,0,0-1.36,1l-.22.54a2.26,2.26,0,0,0,0,1.21l.22.54a2.3,2.3,0,0,0,.82.82l1.53,1a2.56,2.56,0,0,0,1.75.23,1.64,1.64,0,0,0,.78-.41,1.67,1.67,0,0,0,.58-.63l.23-.55a2.26,2.26,0,0,0,0-1.21l-.23-.54a2.27,2.27,0,0,0-.81-.82Z" transform="translate(-26.99 -31.08)"/><path class="cls-3" d="M108.21,82.63a4.4,4.4,0,0,0,2.36.12,2.54,2.54,0,0,0,.6-.16,5.89,5.89,0,0,0,1.08-.51,6.34,6.34,0,0,0,.92-.72,7.08,7.08,0,0,0,.74-.9,3.65,3.65,0,0,0,.32-.54,5.08,5.08,0,0,0,.39-1.07,4.2,4.2,0,0,0,.1-1.22,5.49,5.49,0,0,0-.14-.89,5.64,5.64,0,0,0-.35-.85,1.67,1.67,0,0,0-.58-.63,2,2,0,0,0-1.68-.45,1.61,1.61,0,0,0-.85.27,2.31,2.31,0,0,0-1.05,1.36L110,77a2.3,2.3,0,0,0,.31,1.15.54.54,0,0,1,0,.11l-.22-.54a2.5,2.5,0,0,1,.12.45l-.08-.6a2,2,0,0,1,0,.54l.09-.61a2.24,2.24,0,0,1-.18.61l.23-.55a2.48,2.48,0,0,1-.37.63l.36-.46a3.72,3.72,0,0,1-.6.59l.46-.36a2.93,2.93,0,0,1-.68.41l.54-.23a2.75,2.75,0,0,1-.71.19l.61-.08a2.08,2.08,0,0,1-.61,0l.6.08a2.14,2.14,0,0,1-.48-.13,1.76,1.76,0,0,0-.91,0,1.89,1.89,0,0,0-.85.27,2.29,2.29,0,0,0-.81,3.12l.35.46a2.33,2.33,0,0,0,1,.58Z" transform="translate(-26.99 -31.08)"/><path class="cls-3" d="M112,80.49l.31,0q.38,0-.15,0c.12,0,.49.08.62.1.4.08.81.16,1.21.26a20.79,20.79,0,0,1,2.27.75l-.19-.08.28.12.55.26c.37.18.73.38,1.08.58s.69.43,1,.66c.17.11.33.23.49.35s.17.12-.1-.08l.24.19a2.41,2.41,0,0,0,1.61.67,2.34,2.34,0,0,0,1.61-.67,2.3,2.3,0,0,0,0-3.21A20.1,20.1,0,0,0,112,75.94a2.29,2.29,0,0,0-2.28,2.28A2.34,2.34,0,0,0,112,80.49Z" transform="translate(-26.99 -31.08)"/><path class="cls-3" d="M116.57,106.48a5.09,5.09,0,0,1,.78,0l-.61-.08a4.14,4.14,0,0,1,1,.28l-.55-.23a4.56,4.56,0,0,1,.91.52l-.47-.35a3.8,3.8,0,0,1,.67.66l-.36-.46a3.54,3.54,0,0,1,.42.73l-.23-.54c.19.45.31.92.49,1.37a4.5,4.5,0,0,0,1.41,2,3.53,3.53,0,0,0,4.66-.14,2.28,2.28,0,0,0-3.22-3.22l-.12.11.46-.35a1.39,1.39,0,0,1-.21.11l.55-.23a1,1,0,0,1-.23.06l.6-.08a1.71,1.71,0,0,1-.32,0l.6.08a2.08,2.08,0,0,1-.41-.11l.54.23a2.71,2.71,0,0,1-.37-.21l.46.36a1.64,1.64,0,0,1-.29-.3l.35.46a2.86,2.86,0,0,1-.3-.54l.23.54c-.29-.69-.46-1.41-.8-2.1a5.12,5.12,0,0,0-1.28-1.61,6.32,6.32,0,0,0-4.39-1.56,2.41,2.41,0,0,0-1.61.67,2.35,2.35,0,0,0-.67,1.61,2.31,2.31,0,0,0,2.28,2.27Z" transform="translate(-26.99 -31.08)"/><path class="cls-3" d="M119.42,107.3a10.87,10.87,0,0,0,9.56-5.63,2.28,2.28,0,0,0-3.93-2.3c-.11.22-.23.42-.36.63l-.18.27c-.05.08-.31.42-.05.09s0,0-.11.11a2.73,2.73,0,0,1-.23.25c-.15.16-.31.32-.48.47l-.26.22c-.33.28.46-.33.11-.08-.19.14-.37.27-.56.39a10.27,10.27,0,0,1-1.32.68l.54-.23a8.73,8.73,0,0,1-2.2.59l.61-.08a8.72,8.72,0,0,1-1.14.07,2.28,2.28,0,1,0,0,4.55Z" transform="translate(-26.99 -31.08)"/><path class="cls-3" d="M126.46,99.59a4,4,0,0,1,.34.38l-.35-.46a5.12,5.12,0,0,1,.56,1l-.23-.55a4.9,4.9,0,0,1,.34,1.23l-.08-.61a5.24,5.24,0,0,1,0,1.37l.08-.61a5.23,5.23,0,0,1-.31,1.16l.23-.55a4.61,4.61,0,0,1-.62,1A2.28,2.28,0,0,0,129,106.3l.55-.23a2.25,2.25,0,0,0,.81-.81,6.66,6.66,0,0,0,1.28-4.33,7,7,0,0,0-1.95-4.56,2.29,2.29,0,0,0-3.22,0,2.33,2.33,0,0,0,0,3.22Z" transform="translate(-26.99 -31.08)"/><path class="cls-3" d="M130.26,102.12a4.74,4.74,0,0,0,1.17-.77,5.48,5.48,0,0,0,.92-1.06A4.8,4.8,0,0,0,133,99a4.4,4.4,0,0,0,.23-1.39,1.63,1.63,0,0,0-.19-.87,1.71,1.71,0,0,0-.47-.74,1.73,1.73,0,0,0-.73-.47,1.8,1.8,0,0,0-.88-.19l-.61.08a2.3,2.3,0,0,0-1,.58l-.36.46a2.33,2.33,0,0,0-.31,1.15,2,2,0,0,1,0,.25l.08-.6a2.38,2.38,0,0,1-.19.68l.23-.54a2.88,2.88,0,0,1-.39.65l.36-.46a2.84,2.84,0,0,1-.52.52l.46-.35a3,3,0,0,1-.67.39,2.6,2.6,0,0,0-1,1.36,1.76,1.76,0,0,0,0,.91,1.64,1.64,0,0,0,.27.85,2.29,2.29,0,0,0,1.36,1l.61.08a2.17,2.17,0,0,0,1.14-.31Z" transform="translate(-26.99 -31.08)"/><path class="cls-3" d="M129.32,100.45l.58.77a1.67,1.67,0,0,0,.58.63,2,2,0,0,0,1.68.45A1.61,1.61,0,0,0,133,102l.46-.35a2.35,2.35,0,0,0,.59-1l.08-.6a2.3,2.3,0,0,0-.31-1.15l-.58-.77a1.73,1.73,0,0,0-.59-.64,2.06,2.06,0,0,0-1.68-.44,1.61,1.61,0,0,0-.84.27l-.47.35a2.33,2.33,0,0,0-.58,1l-.08.6a2.21,2.21,0,0,0,.31,1.15Z" transform="translate(-26.99 -31.08)"/><path class="cls-3" d="M104.34,106.68c.13,4.33,3.46,7.67,7.43,8.95,4.58,1.48,9.61,0,13.69-2.25,2.58-1.39.28-5.32-2.3-3.93-2.88,1.55-6.41,2.8-9.69,1.94a7,7,0,0,1-3.19-1.8,4.23,4.23,0,0,1-1.39-2.91,2.28,2.28,0,1,0-4.55,0Z" transform="translate(-26.99 -31.08)"/><path class="cls-3" d="M124.53,113.25a8.28,8.28,0,0,0,8.32-7.5,1.72,1.72,0,0,0-1.71-1.71,1.75,1.75,0,0,0-1.71,1.71,2.45,2.45,0,0,1,0,.27c0,.33.08-.4,0-.1s-.08.38-.13.57,0,.17-.08.25-.16.38,0,.1,0,0,0,.08-.08.16-.13.24a4.27,4.27,0,0,1-.3.51l-.16.23c-.18.25.25-.3,0-.05a9.82,9.82,0,0,1-.78.8l-.22.18c-.26.22.34-.24,0,0a4.76,4.76,0,0,1-.47.31l-.49.28-.26.12c-.3.15.36-.13.06,0a8.34,8.34,0,0,1-1.08.32c-.07,0-.48.07-.15,0s0,0-.1,0a4.28,4.28,0,0,1-.62,0,1.73,1.73,0,0,0-1.71,1.71,1.75,1.75,0,0,0,1.71,1.71Z" transform="translate(-26.99 -31.08)"/><path class="cls-3" d="M129.51,107.42a8.17,8.17,0,0,0,6-3.37,7.29,7.29,0,0,0,1.27-6.21,1.71,1.71,0,1,0-3.29.9c0,.11.06.22.08.33s.06.42,0,.1,0,.08,0,.14a2.72,2.72,0,0,1,0,.28c0,.19,0,.38,0,.57,0-.47,0-.25,0-.08l-.06.28c-.05.2-.1.39-.17.59s-.23.43,0,0l-.12.27a11.06,11.06,0,0,1-.63,1c-.09.13.27-.32,0,0l-.22.26-.42.41-.23.2-.15.12.19-.14a3.55,3.55,0,0,0-.54.35,6,6,0,0,1-.56.3c-.29.15.36-.13,0,0l-.28.1-.58.16-.29.05.15,0-.2,0a1.71,1.71,0,0,0,0,3.41Z" transform="translate(-26.99 -31.08)"/><path class="cls-3" d="M89.38,118.34a6.05,6.05,0,0,0,2,3.6,9.86,9.86,0,0,0,3.69,1.77,3,3,0,0,0,.44.17c.35.07.07.1-.14-.33-.07-.15.14-.46,0-.16a2.13,2.13,0,0,0-.13.45,7.38,7.38,0,0,0-.3,1.21c-.25,1.78.62,3.1,1.78,4.36,2.08,2.25,4.76,4.13,8,3.48,2.82-.58,4.91-3.35,6.23-5.73a6.07,6.07,0,0,0-2.62-8.61v3.93a13.65,13.65,0,0,0,6.51-7.37,2.29,2.29,0,0,0-1.59-2.8,2.34,2.34,0,0,0-2.8,1.59,9,9,0,0,1-4.41,4.65c-1.41.72-1.57,3.25,0,3.93.82.35,1.37.9,1.27,1.68a8.1,8.1,0,0,1-1.72,2.82c-.55.69-1.3,1.53-2.26,1.51a4.28,4.28,0,0,1-2.58-1.5c-.27-.25-1.14-.93-1.23-1.29a3.09,3.09,0,0,1,.23-1,4.09,4.09,0,0,0-1-4.18A9,9,0,0,0,95.2,119a2.06,2.06,0,0,1-1.43-1.87,2.3,2.3,0,0,0-2.8-1.59,2.34,2.34,0,0,0-1.59,2.8Z" transform="translate(-26.99 -31.08)"/><path class="cls-3" d="M111,127.74a25.8,25.8,0,0,1,8.1-3.21c2.8-.6,5.7-.93,8.23-2.37a11,11,0,0,0,5.15-12.4c-.62-2.1-3.91-1.2-3.29.91a7.67,7.67,0,0,1-5,9.2c-2.38.84-4.93,1-7.36,1.7a28.87,28.87,0,0,0-7.51,3.22c-1.88,1.15-.16,4.1,1.72,2.95Z" transform="translate(-26.99 -31.08)"/><path class="cls-3" d="M112.42,121.07a27.25,27.25,0,0,1,13.52-3.92,2.28,2.28,0,1,0,0-4.55,31.82,31.82,0,0,0-15.81,4.54,2.27,2.27,0,1,0,2.29,3.93Z" transform="translate(-26.99 -31.08)"/><path class="cls-3" d="M78.24,123.74l13.22-.35a2.28,2.28,0,1,0,0-4.55l-13.22.35a2.28,2.28,0,0,0,0,4.55Z" transform="translate(-26.99 -31.08)"/><path class="cls-4" d="M134.24,90.63a52.56,52.56,0,0,0-9.64-15.77,9.53,9.53,0,0,0-3.86-3.07,4,4,0,0,0-2.9.08,6.78,6.78,0,0,0-.92.55,18.55,18.55,0,0,0-3.42-2.68,22.08,22.08,0,0,0-3-2.14,24.57,24.57,0,0,0-10-3.29,2.05,2.05,0,0,0-1.82.81A4.76,4.76,0,0,0,96,65.8,2.12,2.12,0,0,0,94.85,68a2.09,2.09,0,0,0,1.49,1.64c0,.12.08.31.09.37s0,.34,0,.52c0-.47,0,0,0,.14,0,.51-.07,1-.09,1.52a24.34,24.34,0,0,0,.79,7.21,2.53,2.53,0,0,0,.62,1.11,1.29,1.29,0,0,1,0,.19c-.05.24-.23.8-.34,1.19A11.24,11.24,0,0,0,97,83.76a12.42,12.42,0,0,0,1.79,6.81,31.82,31.82,0,0,0,2.6,7,11.15,11.15,0,0,0-.84,3.82,12.64,12.64,0,0,0-1.34-2.14L97.52,97c-.56-4.43-1-8.9-1.7-13.31a18.87,18.87,0,0,0-.75-3.1,17.72,17.72,0,0,0-1.83-5.88l-.15-.32a4,4,0,0,0-.58-2.93A3.44,3.44,0,0,0,93,69.23a3.23,3.23,0,0,0-2.6-2.55,6.16,6.16,0,0,0-3.54.38,16.66,16.66,0,0,0-5.8,3.84c-.75.73-1.48,1.49-2.19,2.27a2.29,2.29,0,0,0-.58.3,18.51,18.51,0,0,0-4.94,4.68,49.9,49.9,0,0,0-4.08,3.45,54.39,54.39,0,0,0-5.24,5.71,35.31,35.31,0,0,0-2.23,3.07,7,7,0,0,0-1.2,4.32,8.08,8.08,0,0,0,1.18,3.9,2.78,2.78,0,0,0-.54.82,7.06,7.06,0,0,0,1.28,6.84,7.19,7.19,0,0,0,2.09,1.82,2.62,2.62,0,0,0,0,.29,12.87,12.87,0,0,0,.1,2.63,6.46,6.46,0,0,0,2.69,4.07,8.21,8.21,0,0,0,2.07,1,8.81,8.81,0,0,0,4,3.37,7.15,7.15,0,0,0,.1,4.36,7.44,7.44,0,0,0,4.26,4.12,14.13,14.13,0,0,0,6.68.61c1.16-.11,2.33-.27,3.5-.32a10,10,0,0,1,2.94.35,2.29,2.29,0,0,0,1.27,0,4.49,4.49,0,0,0,2.66-.11,4.2,4.2,0,0,0,2.42-5.54A4.73,4.73,0,0,0,95,120.78c-.34-.17-.68-.31-1-.45l-.52-.22-.16-.07-.17-.11-.48-.35-.15-.14-.13-.13-.37-.47-.09-.11-.07-.13c-.09-.18-.18-.36-.26-.55s-.12-.35-.13-.35a4,4,0,0,1-.09-.48c0-.08,0-.83-.06-.46a1.34,1.34,0,0,0,0-.2A6.82,6.82,0,0,0,92,116a6.28,6.28,0,0,0,1.7-2.83,6.84,6.84,0,0,0,1.2-5.43c1.62.56,3.52.86,4.65-.78a2.51,2.51,0,0,0,.46-1.63,1.82,1.82,0,0,0,.34-.34,3,3,0,0,0,.46-.81,9.74,9.74,0,0,0,1.17,3,2.09,2.09,0,0,0,1.6,1.17,2,2,0,0,0,1.84-.82,8.57,8.57,0,0,0,1.26-3.56,3.05,3.05,0,0,0,.74.16,3.64,3.64,0,0,0,.74,0,5.71,5.71,0,0,0-1.57,4.55,2,2,0,0,0,1.91,1.69,4.72,4.72,0,0,0,2,2.58,6.4,6.4,0,0,0,2.34.88c-.84,1.63-1.71,3.24-2.63,4.83a3,3,0,0,0-2,1,1,1,0,0,0,.93,1.82,2.07,2.07,0,0,0-.09.66,2.13,2.13,0,0,0,.19.76,3.53,3.53,0,0,0-.32,1.82,1.57,1.57,0,0,0,2.16,1.22c.84-.33,1.6-.83,2.47-1.11,3.16-1,6.65-1,9.48-2.84.37,0,.73,0,1.09-.06a7.79,7.79,0,0,0,5.73-3,5.91,5.91,0,0,0,.9-5.09,5.75,5.75,0,0,0,.29-1.53,4.46,4.46,0,0,0-.53-2.65,2.27,2.27,0,0,0-.57-.69,10.07,10.07,0,0,0,1.06-3.37,8.22,8.22,0,0,0,3.37-3.65,8,8,0,0,0,.62-4.56,6.75,6.75,0,0,0,.47-4A5,5,0,0,0,134.24,90.63ZM64.59,94.31a2.68,2.68,0,0,1,0-.58A5.49,5.49,0,0,0,64.59,94.31Zm7.89,15.31-1-.49h.42a5.58,5.58,0,0,1,.63.35A.83.83,0,0,0,72.48,109.62Zm17.13-6.46a.52.52,0,0,0-.07-.12c.06,0,.1.07.09.12S89.74,103.46,89.61,103.16Zm22.3-1.59a.37.37,0,0,0,0,.11l-.23.08Z" transform="translate(-26.99 -31.08)"/><path class="cls-4" d="M111.64,116.25a1,1,0,0,0,.22-.51,1.87,1.87,0,0,0,.25-1.44c-.27-1.17-1.57-1.34-2.38-2a4.16,4.16,0,0,1-1.43-2.53.91.91,0,0,0-.25-.54,22.49,22.49,0,0,0,.12-4,1,1,0,0,0-1.68-.64,5.83,5.83,0,0,0-1.41,2c-.24.5-.48,1.29-1,1.59s-1.23-.28-1.59-.72c-.59-.73-.86-1.72-1.69-2.22a1.55,1.55,0,0,0-2.32,1c0,.15-.07.3-.11.44a1,1,0,0,0-.54.7c-.39.22-.85.31-1.23.55l-.13.1a1.1,1.1,0,0,0-1.17-.21,1.07,1.07,0,0,0-.51,1.38,4.46,4.46,0,0,1-.78,4,12,12,0,0,1-1.86,1.54,3.86,3.86,0,0,0-1.39,2.1c-.39,1.79,1.06,3,2.59,3.42,1,.32,2.44.4,3.39,1.07A5.08,5.08,0,0,1,98,124.63c0,.36-.06.69-.09,1a3.43,3.43,0,0,0-.66,1c-.47,1.17.47,2.18,1.33,2.83a6.22,6.22,0,0,0,2,1,4.4,4.4,0,0,0,4.35.56,6.86,6.86,0,0,0,4.14-4.56,5.07,5.07,0,0,0-.28-3.33,13.05,13.05,0,0,0-1.1-2.84,1.16,1.16,0,0,0,1-.41c.29-.33.57-.66.83-1L111,117C111.23,116.76,111.44,116.51,111.64,116.25Zm-18.53,1.63a.64.64,0,0,1-.17-1,3,3,0,0,0,0,.31,1.11,1.11,0,0,0,.21.67Zm16.34-2.79a.86.86,0,0,0-.1-.57,3.66,3.66,0,0,0,.55.32A.92.92,0,0,0,109.45,115.09ZM106,109.2c0,.13,0,.27,0,.4a2.12,2.12,0,0,0-.2-.12A2.09,2.09,0,0,0,106,109.2Zm-5.78-1.46v0a2.63,2.63,0,0,0,.18.34l.13.2-.31-.16c0-.06-.07-.12-.1-.19ZM104.41,128v-.13l.1.07Zm1.58-1.68-.08-.52a1.26,1.26,0,0,0,.33-.16A3.94,3.94,0,0,1,106,126.34Z" transform="translate(-26.99 -31.08)"/><path class="cls-5" d="M91.14,105.9A37,37,0,0,0,85.06,104a14.28,14.28,0,0,0-3.19-.27c-1.11,0-2.18.32-3.29.39-1.47.1-2.75-.81-4-1.56a9.47,9.47,0,0,0-4.82-1.79c-1.18,0-2.37.35-3.54.27a1.66,1.66,0,0,1-1.63-.93,1.27,1.27,0,0,0-.9-.75l0-.07a.21.21,0,0,0-.39,0,1.26,1.26,0,0,0-.51.11,1.44,1.44,0,0,0-.69,1.85c.73,2,2.94,2.62,4.84,2.53a17.81,17.81,0,0,1,3.26-.22,5.67,5.67,0,0,1,2,.75,19.93,19.93,0,0,0,4.48,2.34c2.14.58,4.23-.32,6.39-.14a25.6,25.6,0,0,1,7.07,2A1.39,1.39,0,0,0,91.14,105.9Z" transform="translate(-26.99 -31.08)"/><path class="cls-5" d="M82.33,90.78a3.42,3.42,0,0,0-3.84,1.76c-.95,1.67-.49,3.66.13,5.35.37,1,1.87.32,1.5-.69a5.26,5.26,0,0,1-.35-3.53c.28-.73,1.11-1.55,2-1.33C82.75,92.6,83.36,91.05,82.33,90.78Z" transform="translate(-26.99 -31.08)"/><path class="cls-5" d="M93.2,82.4c-.42-1.79-2.45-2.44-4.06-2.08a10.37,10.37,0,0,0-2.48,1.14,6.15,6.15,0,0,1-2.78-5c0-.71-1.1-.84-1.09-.13a7.18,7.18,0,0,0,.28,2l-2.86.46a.56.56,0,0,0,.17,1.1l3.08-.5A7.26,7.26,0,0,0,85.54,82a3.21,3.21,0,0,1-2.05.2c-1-.27-1.38,1.37-.35,1.63,1.76.46,3.32-.44,4.83-1.25,1-.55,3.25-1.38,3.66.35C91.88,84,93.45,83.44,93.2,82.4Z" transform="translate(-26.99 -31.08)"/><path class="cls-5" d="M77.33,78.59a12.41,12.41,0,0,1-6.88,8.09.56.56,0,0,0,.46,1A13.38,13.38,0,0,0,78.35,79C78.54,78.31,77.51,77.9,77.33,78.59Z" transform="translate(-26.99 -31.08)"/><path class="cls-5" d="M78.53,85.23a1.19,1.19,0,0,1-1.08-.81.54.54,0,0,0-.73-.28.57.57,0,0,0-.27.74,2.22,2.22,0,0,0,2,1.45.56.56,0,0,0,.61-.49A.55.55,0,0,0,78.53,85.23Z" transform="translate(-26.99 -31.08)"/><path class="cls-5" d="M106.41,71.65a2.85,2.85,0,0,0-3.1,0,6.25,6.25,0,0,0-2.24,2.92c-.31.64.72,1,1,.4.59-1.24,2-3.55,3.66-2.41C106.35,73,107,72.05,106.41,71.65Z" transform="translate(-26.99 -31.08)"/><path class="cls-5" d="M117.38,71.86c-.48-.52-1.34.18-.86.71a7.32,7.32,0,0,1,2,5.25c0,.71,1.08.84,1.1.12A8.54,8.54,0,0,0,117.38,71.86Z" transform="translate(-26.99 -31.08)"/><path class="cls-5" d="M130.26,89.21a3.51,3.51,0,0,1-2.12,3.17l-.13.05-.16,0a.59.59,0,0,0-.39.38,1.63,1.63,0,0,0-.15,1.42,2.34,2.34,0,0,1-.53,2.08,2.37,2.37,0,0,1-2.36.58,1,1,0,0,0-.82.16,1.34,1.34,0,0,0-1.65.77,2.94,2.94,0,0,1-1.76,1.36c-1,.41-2.09.64-3.13,1a31.15,31.15,0,0,0-6.92,3.23,10.13,10.13,0,0,0-1.34,1,1.89,1.89,0,0,0-2.75,0,5.07,5.07,0,0,0-1,2c-.28.76-.68,1.68-1.65,1.53-1.95-.29-1.92-3.18-2-4.65a31.88,31.88,0,0,1,.16-5.17.54.54,0,0,0,.31-.27,6.6,6.6,0,0,1,2.26-2.46,12.83,12.83,0,0,1,3.65-1.3c1.85-.52,3.85-1.6,4-3.75a.55.55,0,0,0-1.09-.12c-.23,2.46-3.4,2.77-5.21,3.33a7.85,7.85,0,0,0-4.13,3,.64.64,0,0,0-.12-.32,6.88,6.88,0,0,1-.81-2.22,6.18,6.18,0,0,0-1-1.93,9.75,9.75,0,0,1-2-4.46,10.6,10.6,0,0,1,.45-4.78,36.35,36.35,0,0,0,1.49-4.53c.14-.7-1-.82-1.09-.12A10.79,10.79,0,0,1,98,79.37c-1.27-3.57-2.32-7.8.37-10.93.47-.54-.43-1.19-.89-.65-3.27,3.79-1.61,9-.06,13.19q-.27.69-.51,1.38Q95.22,79,93.23,75.82a.55.55,0,0,0,.5-.62,8.35,8.35,0,0,0-1.6-4.73,3.68,3.68,0,0,0-3.68-1.27c-.68.2-.51,1.3.17,1.1a2.69,2.69,0,0,1,2.91,1.19,7.74,7.74,0,0,1,1.09,3.66.43.43,0,0,0-.25,0,.48.48,0,0,0-.24-.38,7.18,7.18,0,0,0-7.5-.07c-.59.36-.15,1.38.46,1a6.12,6.12,0,0,1,6.39,0,.55.55,0,0,0,.54,0,.52.52,0,0,0,.09.33,79.94,79.94,0,0,1,4.13,7.47.53.53,0,0,0,.25.26A11.58,11.58,0,0,0,96.4,88a9.3,9.3,0,0,0,.95,2.82.57.57,0,0,0,0,.35,11.24,11.24,0,0,1-.14,4.9,7,7,0,0,0-1-.85,3.6,3.6,0,0,0-3-.24,18.79,18.79,0,0,1-3.06.68A12.32,12.32,0,0,1,83,94.16c-.93-.51-1.52,1-.6,1.55a13.59,13.59,0,0,0,6.69,1.62,13.3,13.3,0,0,0,3.54-.52c1.09-.32,2.06-.73,3,.1,1.76,1.52,3.58,3.59,3.83,6,.22,2-1.22,4.37-3.51,3.9a.66.66,0,0,0-.69.21c-1.91-1.46-3.81-2.94-5.75-4.37-1.64-1.2-3.76-2.23-5.73-1.15-.61.34-.16,1.36.46,1,2-1.08,3.88.47,5.39,1.61l5.48,4.17a.49.49,0,0,0,.45.1l.21.07a4.53,4.53,0,0,0,4.7-2.36l.08-.15a4.19,4.19,0,0,0,1.13,2.22,2.45,2.45,0,0,0,3.73-.13,9.83,9.83,0,0,0,.94-2.09,1.8,1.8,0,0,1,.79-1,.6.6,0,0,1,.85.31,4.23,4.23,0,0,0-.37.62,5.07,5.07,0,0,0-.38,3.07,6.77,6.77,0,0,0,4.35,4.86,11,11,0,0,0,2.2.63l-.17,0a1.43,1.43,0,0,0-1.15,1.59,1.39,1.39,0,0,0,1.58,1.16,45.21,45.21,0,0,0,8.33-3.13,2.79,2.79,0,0,1,1.7-.3,6.57,6.57,0,0,0,2-.12,6.64,6.64,0,0,0,3.38-1.87,1.45,1.45,0,0,0,.2-2,1.37,1.37,0,0,0-1.94-.19,4.2,4.2,0,0,1-2.7,1.38c-.63,0-1.25-.1-1.88-.06a5,5,0,0,0-1.88.58l-.64.31a1.48,1.48,0,0,0-1.69-.44,9.54,9.54,0,0,1-6-.11c-1.41-.51-2.89-1.55-3-3.19-.1-1.82,2.11-2.66,3.44-3.36a32,32,0,0,1,6-2.39c1.8-.51,3.61-1.16,4.68-2.7h0A5,5,0,0,0,129,98.05a5.19,5.19,0,0,0,.86-4.92,1.23,1.23,0,0,0-.21-.37,4.48,4.48,0,0,0,1.75-3.42C131.37,88.62,130.28,88.5,130.26,89.21Zm-30,10.81a12.63,12.63,0,0,0-1.87-2.66L98.05,97a12.72,12.72,0,0,0,.55-4.24,6.62,6.62,0,0,1,.94,2.07,5.89,5.89,0,0,0,.87,2.1.64.64,0,0,0,.15.14Q100.37,98.52,100.29,100Z" transform="translate(-26.99 -31.08)"/><path class="cls-5" d="M126.89,103.5a8.6,8.6,0,0,1-6.48,2,.54.54,0,0,0-.59.47,5.81,5.81,0,0,0-1.67-.11c-.71.07-.53,1.16.17,1.1a4.28,4.28,0,0,1,3.36,1.21c.5.5,1.36-.2.85-.7a5.19,5.19,0,0,0-1-.81,9.77,9.77,0,0,0,6.08-2.29C128.13,103.9,127.44,103,126.89,103.5Z" transform="translate(-26.99 -31.08)"/><path class="cls-5" d="M74.85,114c.7.11.74-1,0-1.12a13.63,13.63,0,0,1-7.83-4.14.5.5,0,0,0-.47-.16,1,1,0,0,0-1.15-.59,48.19,48.19,0,0,1-25.85-3.33,50.17,50.17,0,0,1-6.14-3.17,1,1,0,0,0,0-.61,9.1,9.1,0,0,0-1.54-3.08.91.91,0,0,0-1.55.09,2,2,0,0,0-.14.38l-.54-.61c-.59-.66-1.82.17-1.44,1a7.07,7.07,0,0,0,.79,1.33.56.56,0,0,0,0,.12,3.92,3.92,0,0,1-.34-.37c-.73-.9-2.23.1-1.5,1a5.88,5.88,0,0,0,4.1,2.23,1.55,1.55,0,0,0,.44.4,50.67,50.67,0,0,0,26.17,7.67,50,50,0,0,0,7.73-.52,1.22,1.22,0,0,0,.94-.68,14.81,14.81,0,0,0,5.11,3.33,3.36,3.36,0,0,0,2.16,3.31c.66.26,1-.81.33-1.06a2.21,2.21,0,0,1-1.38-1.87A15.56,15.56,0,0,0,74.85,114Z" transform="translate(-26.99 -31.08)"/><path class="cls-5" d="M123.84,117.75c-5.31-3.06-10.9.77-15.93,2.49-.67.22-.22,1.24.45,1,4.53-1.55,10-5.37,14.84-2.6C123.81,119,124.46,118.1,123.84,117.75Z" transform="translate(-26.99 -31.08)"/><path class="cls-5" d="M118.51,85.39a12.46,12.46,0,0,1-2.33,2.26A5.34,5.34,0,0,0,110,85.86c-.66.27-.21,1.28.45,1a4.32,4.32,0,0,1,4.93,1.53.6.6,0,0,0,.32.53,3.69,3.69,0,0,1,.23.58c.2.68,1.29.51,1.09-.17a5.94,5.94,0,0,0-.28-.74,13.61,13.61,0,0,0,2.65-2.55C119.85,85.49,119,84.83,118.51,85.39Z" transform="translate(-26.99 -31.08)"/><path class="cls-5" d="M105.36,120.08a7.34,7.34,0,0,1-4.81,1.41c-.84,0-1.69,0-2.53-.08a3.49,3.49,0,0,1-2.31-.82.76.76,0,0,0-1.08,1.08c1.48,1.49,4,1.37,5.92,1.35a8.79,8.79,0,0,0,5.88-1.86C107.17,120.52,106.09,119.44,105.36,120.08Z" transform="translate(-26.99 -31.08)"/><path class="cls-6" d="M89.63,63.84a16.84,16.84,0,0,0-2.15-6.59.77.77,0,0,0-.25-.28v-.35a.76.76,0,0,0-1.52,0v.09a.61.61,0,0,0-.5.71,38.32,38.32,0,0,1,.22,6.69.69.69,0,0,0,.87.72.9.9,0,0,0,.46,0l.1.57c.16,1,1.62.56,1.46-.41l-.16-.91C88.45,64.8,89.73,64.74,89.63,63.84Zm-1.72-1.26c.06.3.11.61.16.91Z" transform="translate(-26.99 -31.08)"/><path class="cls-7" d="M120.64,93.08a11.32,11.32,0,0,0-10.54-11.7,10.84,10.84,0,0,0-7.84,3.11,11,11,0,0,0-3.43,7.65,12.18,12.18,0,0,0,3.39,8.36,12.56,12.56,0,0,0,3.5,2.64,3.45,3.45,0,0,0,2.82.18l.26,0a10.54,10.54,0,0,0,8.11-2.76A11.3,11.3,0,0,0,120.64,93.08Z" transform="translate(-26.99 -31.08)"/><path class="cls-8" d="M95,87.19a10.82,10.82,0,0,0-8.23-1.92,10.64,10.64,0,0,0-9,12.72,11,11,0,0,0,4.47,7.09,12,12,0,0,0,8.79,1.73,12.88,12.88,0,0,0,4.11-1.51A3.55,3.55,0,0,0,96.89,103c.06-.07.12-.13.17-.2a10.76,10.76,0,0,0,2.15-8.36A11.26,11.26,0,0,0,95,87.19Z" transform="translate(-26.99 -31.08)"/><path class="cls-9" d="M89.55,85.82a2.06,2.06,0,0,0-2.44-.44c-1,.55-1,1.65-.85,2.63.13,1.17.27,2.34.4,3.52s.25,2.34.4,3.51c.12.92.58,1.89,1.62,2,2.67.22,1.33-3.93.88-5.23a.83.83,0,0,0-.86-.61l-.21-1.87a1,1,0,0,0,1.72-.63A3.49,3.49,0,0,0,89.55,85.82Z" transform="translate(-26.99 -31.08)"/><path class="cls-9" d="M110.48,83.4A2.06,2.06,0,0,0,108,83c-1,.54-1,1.65-.84,2.62.13,1.18.27,2.35.4,3.52s.25,2.35.4,3.52c.12.92.58,1.89,1.62,2,2.67.23,1.33-3.93.88-5.22a.86.86,0,0,0-.86-.62l-.21-1.87a1,1,0,0,0,1.72-.63A3.47,3.47,0,0,0,110.48,83.4Z" transform="translate(-26.99 -31.08)"/><path class="cls-7" d="M82.87,102.23a5.93,5.93,0,0,1-1.4-6.16.9.9,0,0,0-1.67-.66,7.72,7.72,0,0,0,1.69,8C82.3,104.19,83.69,103.05,82.87,102.23Z" transform="translate(-26.99 -31.08)"/><path class="cls-7" d="M105.81,98.79a6.58,6.58,0,0,1-3.64-4.37c-.27-1.13-2-.85-1.77.28a8.47,8.47,0,0,0,4.76,5.77C106.21,101,106.86,99.27,105.81,98.79Z" transform="translate(-26.99 -31.08)"/><path class="cls-1" d="M116.28,76.32a40.09,40.09,0,0,1-32.42-1.88,42.4,42.4,0,0,0,.79-9.59,43.93,43.93,0,0,0-3.51-15.78l12.8,10.87a47.72,47.72,0,0,0,4.63-7,44.47,44.47,0,0,0,3.15-7.37,59.18,59.18,0,0,0,2.43,7.55A60.88,60.88,0,0,0,108,61l13.65-9.37a48.19,48.19,0,0,0-4.94,15.25A46.53,46.53,0,0,0,116.28,76.32Z" transform="translate(-26.99 -31.08)"/><g class="cls-10"><g class="cls-11"><path class="cls-6" d="M81.06,49.44c.7,2.58,1.53,5.13,2.06,7.75A28,28,0,0,1,84,64.46c-.05.73,1.09.73,1.14,0a28.79,28.79,0,0,0-.91-7.32c-.54-2.71-1.39-5.34-2.11-8a.57.57,0,0,0-1.1.3Z" transform="translate(-26.99 -31.08)"/></g><g class="cls-11"><path class="cls-6" d="M96.36,60.21a46,46,0,0,0,5.42-13.79c.32-1.42-1.88-2-2.2-.6a43.56,43.56,0,0,1-5.19,13.24,1.14,1.14,0,0,0,2,1.15Z" transform="translate(-26.99 -31.08)"/></g><g class="cls-11"><path class="cls-6" d="M112,58.84a41.91,41.91,0,0,0,9.06-5.65,2.26,2.26,0,0,0,.67-1.61,2.34,2.34,0,0,0-.67-1.61,2.29,2.29,0,0,0-1.61-.66,2.69,2.69,0,0,0-1.61.66,6.25,6.25,0,0,1-.5.4c.52-.36-.08.06-.18.13-.34.26-.68.51-1,.75q-1,.72-2.1,1.38a35.75,35.75,0,0,1-4.33,2.28,2.31,2.31,0,0,0-1,1.36A2.28,2.28,0,0,0,112,58.84Z" transform="translate(-26.99 -31.08)"/></g></g><ellipse class="cls-2" cx="81.12" cy="48.68" rx="1.67" ry="1.94" transform="translate(0.18 95.3) rotate(-86.19)"/><ellipse class="cls-2" cx="101.67" cy="45.59" rx="1.67" ry="1.94" transform="matrix(0.07, -1, 1, 0.07, 22.44, 112.93)"/><g class="cls-12"><path class="cls-2" d="M77.48,47.54l-.09.65v.07a.66.66,0,0,0,0,.14q0,.33.09.66a.13.13,0,0,0,0,.06l0,.14,0,.07c.08.19.16.39.25.59l.06.12a7.07,7.07,0,0,0,.44.57l.1.11a1.68,1.68,0,0,0,.73.47,2,2,0,0,0,1.75,0,1.68,1.68,0,0,0,.73-.47l.36-.46a2.23,2.23,0,0,0,.31-1.15l-.08-.6a2.25,2.25,0,0,0-.59-1l-.1-.12.36.46a1,1,0,0,1-.16-.26l.23.54a.9.9,0,0,1-.07-.27l.08.6a.76.76,0,0,1,0-.26l-.09.6v0A2.58,2.58,0,0,0,81.64,47a1.76,1.76,0,0,0-.58-.63,1.73,1.73,0,0,0-.78-.41l-.6-.08a2.21,2.21,0,0,0-1.15.31l-.46.35a2.35,2.35,0,0,0-.59,1Z" transform="translate(-26.99 -31.08)"/><path class="cls-2" d="M82.23,48.27a3.07,3.07,0,0,1-.17-.31l.23.54a2.09,2.09,0,0,1-.13-.49l.08.61a1.77,1.77,0,0,1,0-.46l-.08.61v0a1.66,1.66,0,0,0,0-.91,1.64,1.64,0,0,0-.27-.85,2.43,2.43,0,0,0-1.36-1l-.6-.08a2.23,2.23,0,0,0-1.15.31l-.46.35a2.35,2.35,0,0,0-.59,1c0,.25-.08.5-.09.75a1.09,1.09,0,0,0,0,.18s0,.11,0,.17a6.63,6.63,0,0,0,.11.76A2.71,2.71,0,0,0,78,50a3.19,3.19,0,0,0,.28.59,2.6,2.6,0,0,0,1.36,1,2.58,2.58,0,0,0,1.76-.23l.46-.36a2.3,2.3,0,0,0,.58-1l.08-.61a2.23,2.23,0,0,0-.31-1.15Z" transform="translate(-26.99 -31.08)"/></g><ellipse class="cls-2" cx="121.66" cy="51.59" rx="1.67" ry="1.94" transform="translate(35.12 138.47) rotate(-86.19)"/><path class="cls-2" d="M116.41,69.38a65,65,0,0,1-16,.94,65.32,65.32,0,0,1-15.69-2.95,5.13,5.13,0,0,0,.06-.83,5.78,5.78,0,0,0-.06-.65,74.48,74.48,0,0,0,15.8,2.72,74.37,74.37,0,0,0,16-.71l0,.74Z" transform="translate(-26.99 -31.08)"/><g class="cls-13"><path class="cls-14" d="M79.54,75.47A90.67,90.67,0,0,0,121.14,78c2.12-.36,4.4-2.41,5.44-4.19a9.1,9.1,0,0,0-3.26-12.45,10.38,10.38,0,0,0-7-.92c-.86.14-1.73.28-2.6.39l2.42-.32a82,82,0,0,1-21.52-.09L97,60.7a79.47,79.47,0,0,1-12.64-2.79c-4.55-1.4-10.13,1.67-11.19,6.36a9.29,9.29,0,0,0,6.35,11.2Z" transform="translate(-26.99 -31.08)"/></g><path class="cls-2" d="M116.19,72.81a65.64,65.64,0,0,1-31.71-2,4.25,4.25,0,0,0,0-.83,4.12,4.12,0,0,0-.06-.65A75.24,75.24,0,0,0,100.27,72a75.09,75.09,0,0,0,16-.71l-.05.74Z" transform="translate(-26.99 -31.08)"/><g class="cls-15"><path class="cls-14" d="M82.43,78.14a84.74,84.74,0,0,0,36.77,1.93c4.86-.76,7.56-6.84,6.36-11.2-1.42-5.18-6.32-7.12-11.2-6.35a63.46,63.46,0,0,1-27.09-1.93C76,57.39,71.15,75,82.43,78.14Z" transform="translate(-26.99 -31.08)"/></g><ellipse class="cls-16" cx="85.18" cy="68.46" rx="1.16" ry="1.34" transform="translate(-15.77 117.82) rotate(-86.19)"/><ellipse class="cls-16" cx="88.91" cy="69.38" rx="1.16" ry="1.34" transform="translate(-13.21 122.41) rotate(-86.19)"/><ellipse class="cls-16" cx="92.56" cy="70.13" rx="1.16" ry="1.34" transform="matrix(0.07, -1, 1, 0.07, -10.55, 126.74)"/><ellipse class="cls-16" cx="96.51" cy="70.72" rx="1.16" ry="1.34" transform="translate(-7.45 131.25) rotate(-86.19)"/><ellipse class="cls-16" cx="100.38" cy="71.14" rx="1.16" ry="1.34" transform="translate(-4.25 135.49) rotate(-86.19)"/><ellipse class="cls-16" cx="108.15" cy="71.29" rx="1.16" ry="1.34" transform="translate(2.86 143.39) rotate(-86.19)"/><ellipse class="cls-16" cx="115.39" cy="70.54" rx="1.16" ry="1.34" transform="translate(10.36 149.91) rotate(-86.19)"/><ellipse class="cls-16" cx="111.96" cy="71.01" rx="1.16" ry="1.34" transform="translate(6.69 146.93) rotate(-86.19)"/><ellipse class="cls-16" cx="104.46" cy="71.4" rx="1.16" ry="1.34" transform="translate(-0.71 139.8) rotate(-86.19)"/><path class="cls-17" d="M113,103.39c-2.11-1.52-4.8-.55-7,.56s-4.37,2.29-6.76,2.59c-2.9.36-5.44-1.24-8.35-1.08-2.5.14-5,1.85-5.44,4.17a2,2,0,0,0-.08.29c-.55,3.4,1.45,6.25,4.45,7.81a17.66,17.66,0,0,0,9.34,1.49,21.29,21.29,0,0,0,9.51-3.15c2.3-1.43,4.46-3.44,5.26-5.88a6.73,6.73,0,0,0,.48-1A4.91,4.91,0,0,0,113,103.39Z" transform="translate(-26.99 -31.08)"/><path class="cls-18" d="M109.07,103.91a1.51,1.51,0,0,0-1.53-1.08,13.68,13.68,0,0,0-4.77,1.2,14.48,14.48,0,0,1-4.25,1.32c-1.7.12-3.38-.44-5.08-.55A7,7,0,0,0,88.73,106l-.13.11-.4.08,0,0a1.51,1.51,0,0,0-.44.22,2.79,2.79,0,0,0-.32.28l0,0c-.07.09-.18.25-.24.35h0a1.31,1.31,0,0,0-.29,1,4.22,4.22,0,0,0,3.25,3.58,4.15,4.15,0,0,0,4.34-2.12.91.91,0,0,0,.07-.14c.26.19.5.39.73.57a7.36,7.36,0,0,0,2.87,1.55,3.6,3.6,0,0,0,4.14-2.12q1.37-.18,2.73-.42c2.14-.37,4-1.18,4.81-3.39A1.53,1.53,0,0,0,109.07,103.91Z" transform="translate(-26.99 -31.08)"/><path class="cls-5" d="M120.42,81.12a4.54,4.54,0,0,1-3.07-1.67A13.59,13.59,0,0,0,114.42,77c-3.08-1.61-6.27.61-9.16,1.59a.62.62,0,0,0,.39,1.18c2.82-1,6.1-3.32,8.93-1.19,1.88,1.41,3.3,3.81,5.91,3.76C121.29,82.36,121.22,81.11,120.42,81.12Z" transform="translate(-26.99 -31.08)"/><path class="cls-5" d="M121.46,160.05a17.58,17.58,0,0,1-5.7-.17,124.1,124.1,0,0,1-3.31-15.73c-.89-5.6-1.75-11.21-2.63-16.82a1.24,1.24,0,0,0-1.53-1,1.51,1.51,0,0,0-.86,1.77q1.3,8.4,2.63,16.81a127.84,127.84,0,0,0,3.2,15.4,1.42,1.42,0,0,0,.7,2.09,19.2,19.2,0,0,0,7.5.53,1.39,1.39,0,0,0,1.24-1.44C122.7,160.78,122.13,160,121.46,160.05Z" transform="translate(-26.99 -31.08)"/><path class="cls-5" d="M92.31,128.07c-2.14,5.35-4.27,10.72-6.44,16.06-1,2.51-2.08,5-3.19,7.47a53.94,53.94,0,0,1-3.43,6.89c-.65,1-1.9.69-2.82.74l-3.89.17c-1.5.07-1.51,3.2,0,3.13l3.51-.16a10.21,10.21,0,0,0,3.35-.32c1.07-.43,1.7-1.61,2.32-2.76s1.29-2.5,1.9-3.77c2.48-5.2,4.62-10.67,6.8-16.1l3.92-9.78C95.05,127.87,93,126.29,92.31,128.07Z" transform="translate(-26.99 -31.08)"/><path class="cls-5" d="M148,60c-.17-1-1.86-.77-1.76.24,0,.2,0,.39,0,.58l-.16-.53a.9.9,0,0,0-1.73.48,9.57,9.57,0,0,0,.38,1.42l-.2,0a.9.9,0,0,0-1.7.58A12.32,12.32,0,0,0,143.8,65a2.76,2.76,0,0,0,1.32,1.47l.2.06a39.4,39.4,0,0,1-6.75,24.09c-1.18,1.73-2.62,3.53-4.7,4.16a1.23,1.23,0,0,0-.81,1.58.74.74,0,0,0-.11.38,6.89,6.89,0,0,1-2,4.52c-.69.7.39,1.78,1.07,1.08a8.46,8.46,0,0,0,2.38-5.12l.1,0a10.51,10.51,0,0,0,5.15-3.89,36.43,36.43,0,0,0,3.69-5.92A42,42,0,0,0,147.48,74a40.37,40.37,0,0,0,.3-7.77.89.89,0,0,0,.56-.79A25.52,25.52,0,0,0,148,60Z" transform="translate(-26.99 -31.08)"/><path class="cls-19" d="M87.44,78.74a6.78,6.78,0,0,0-7,.8A6.94,6.94,0,0,0,78,86a.9.9,0,0,0,1.1.63.92.92,0,0,0,.63-1.11,5,5,0,0,1,6.8-5.25C87.58,80.77,88.5,79.21,87.44,78.74Z" transform="translate(-26.99 -31.08)"/><path class="cls-19" d="M116.45,72.57a7.39,7.39,0,0,0-13.22,0c-.53,1,1,2,1.55.91a5.6,5.6,0,0,1,10.12,0C115.43,74.52,117,73.61,116.45,72.57Z" transform="translate(-26.99 -31.08)"/><path class="cls-20" d="M65.19,46.94A6.08,6.08,0,0,1,62,49.68c-.86.32-.49,1.71.38,1.39a7.66,7.66,0,0,0,4-3.4A.72.72,0,0,0,65.19,46.94Z" transform="translate(-26.99 -31.08)"/><path class="cls-20" d="M92,42.75a6.74,6.74,0,0,1-1.88-4.56.72.72,0,0,0-1.44,0A8.25,8.25,0,0,0,91,43.77C91.64,44.44,92.65,43.42,92,42.75Z" transform="translate(-26.99 -31.08)"/><path class="cls-20" d="M114,53.12c-.08-.92-1.53-.93-1.44,0a5,5,0,0,1-1.8,4.39c-.71.6.31,1.61,1,1A6.36,6.36,0,0,0,114,53.12Z" transform="translate(-26.99 -31.08)"/><path class="cls-20" d="M124.12,81a8.37,8.37,0,0,1-3.29-3.63c-.4-.83-1.64-.1-1.25.73a9.77,9.77,0,0,0,3.81,4.14A.72.72,0,0,0,124.12,81Z" transform="translate(-26.99 -31.08)"/><path class="cls-20" d="M76.55,85.18A12.1,12.1,0,0,1,74,92.44c-.57.74.68,1.45,1.24.73a13.38,13.38,0,0,0,2.74-8A.72.72,0,0,0,76.55,85.18Z" transform="translate(-26.99 -31.08)"/><path class="cls-20" d="M120.54,45.47a7.55,7.55,0,0,0-1.75-2.88c-.65-.67-1.66.35-1,1a6.09,6.09,0,0,1,1.38,2.25C119.45,46.72,120.84,46.35,120.54,45.47Z" transform="translate(-26.99 -31.08)"/><path class="cls-20" d="M117.66,32.89A7.13,7.13,0,0,1,114.84,36a.72.72,0,0,0,.73,1.24,8.5,8.5,0,0,0,3.33-3.62C119.3,32.79,118.06,32.06,117.66,32.89Z" transform="translate(-26.99 -31.08)"/><path class="cls-20" d="M58.29,158.06a4.33,4.33,0,0,1-3.55,2.12c-.92,0-.93,1.47,0,1.44a5.85,5.85,0,0,0,4.8-2.83A.72.72,0,0,0,58.29,158.06Z" transform="translate(-26.99 -31.08)"/><path class="cls-20" d="M100,158.88,98.87,157a.72.72,0,0,0-1.24.72l1.11,1.94A.72.72,0,0,0,100,158.88Z" transform="translate(-26.99 -31.08)"/><path class="cls-20" d="M141.76,160.24l-3.61-.27c-.92-.06-.92,1.37,0,1.44l3.61.26C142.68,161.74,142.68,160.3,141.76,160.24Z" transform="translate(-26.99 -31.08)"/><path class="cls-20" d="M141.67,145.31l-3.33-.52c-.91-.14-1.3,1.24-.38,1.38l3.33.52C142.19,146.84,142.59,145.45,141.67,145.31Z" transform="translate(-26.99 -31.08)"/><path class="cls-21" d="M71.83,68.22a4.35,4.35,0,0,1-3.14,2c-.91.13-.53,1.52.38,1.39a5.78,5.78,0,0,0,4-2.62C73.58,68.16,72.33,67.44,71.83,68.22Z" transform="translate(-26.99 -31.08)"/><path class="cls-21" d="M80.9,35.71v5a.72.72,0,0,0,1.44,0v-5A.72.72,0,0,0,80.9,35.71Z" transform="translate(-26.99 -31.08)"/><path class="cls-21" d="M96.27,62.3a.72.72,0,0,0-1.39.38,17,17,0,0,1,.66,4.81.72.72,0,0,0,1.44,0A18.57,18.57,0,0,0,96.27,62.3Z" transform="translate(-26.99 -31.08)"/><path class="cls-21" d="M82.06,104.14a3.85,3.85,0,0,1-2.26,2c-.88.29-.5,1.67.38,1.39a5.31,5.31,0,0,0,3.13-2.67C83.72,104,82.47,103.31,82.06,104.14Z" transform="translate(-26.99 -31.08)"/><path class="cls-21" d="M72,143q-.95-2.35-1.91-4.7c-.34-.85-1.74-.48-1.39.38l1.91,4.71C71,144.27,72.36,143.9,72,143Z" transform="translate(-26.99 -31.08)"/><path class="cls-21" d="M61.67,160.19H58.62a.72.72,0,0,0,0,1.43h3.05A.72.72,0,0,0,61.67,160.19Z" transform="translate(-26.99 -31.08)"/><path class="cls-21" d="M118.87,131.33v3.87a.72.72,0,0,0,1.44,0v-3.87A.72.72,0,0,0,118.87,131.33Z" transform="translate(-26.99 -31.08)"/><path class="cls-21" d="M123.26,69.12a21,21,0,0,1-4.33-2.61c-.72-.57-1.75.44-1,1a22.15,22.15,0,0,0,4.62,2.84C123.37,70.74,124.1,69.5,123.26,69.12Z" transform="translate(-26.99 -31.08)"/><path class="cls-22" d="M78.45,57.26c-.07-.91-1.51-.92-1.44,0a10.85,10.85,0,0,1-.23,3.41c-.2.9,1.18,1.28,1.39.38A12.08,12.08,0,0,0,78.45,57.26Z" transform="translate(-26.99 -31.08)"/><path class="cls-22" d="M107.9,39.35a7.25,7.25,0,0,0-2.63-2.06c-.84-.38-1.57.85-.73,1.24a6.45,6.45,0,0,1,2.34,1.83.72.72,0,1,0,1-1Z" transform="translate(-26.99 -31.08)"/><path class="cls-22" d="M130.73,68.71l-1.29-3.35c-.32-.86-1.72-.49-1.39.38l1.29,3.35C129.67,70,131.06,69.58,130.73,68.71Z" transform="translate(-26.99 -31.08)"/><path class="cls-22" d="M96.31,159.36a8.63,8.63,0,0,0-4,.62c-.85.34-.48,1.73.38,1.38a7.94,7.94,0,0,1,3.67-.57C97.23,160.87,97.23,159.43,96.31,159.36Z" transform="translate(-26.99 -31.08)"/><path class="cls-22" d="M135.39,160.19h-2.78a.72.72,0,0,0,0,1.43h2.78A.72.72,0,0,0,135.39,160.19Z" transform="translate(-26.99 -31.08)"/><path class="cls-22" d="M70.47,121A8,8,0,0,0,69.28,124c-.17.91,1.22,1.3,1.39.39a6.91,6.91,0,0,1,1-2.59C72.23,121,71,120.25,70.47,121Z" transform="translate(-26.99 -31.08)"/><path class="cls-22" d="M128.22,102.82a5.13,5.13,0,0,1-1.59-3.55c0-.92-1.48-.92-1.45,0a6.7,6.7,0,0,0,2,4.57C127.86,104.48,128.88,103.47,128.22,102.82Z" transform="translate(-26.99 -31.08)"/><path class="cls-22" d="M62.71,79.75A45.18,45.18,0,0,1,60.19,87c-.37.84.87,1.57,1.24.73a47.58,47.58,0,0,0,2.67-7.6A.72.72,0,0,0,62.71,79.75Z" transform="translate(-26.99 -31.08)"/><path class="cls-22" d="M135.34,84.67l-2.21-2c-.69-.61-1.71.4-1,1l2.2,2C135,86.3,136,85.28,135.34,84.67Z" transform="translate(-26.99 -31.08)"/><path class="cls-23" d="M51,61.29a9.17,9.17,0,0,1-3,2.93c-.78.49-.06,1.74.73,1.24A11,11,0,0,0,52.27,62C52.76,61.24,51.52,60.51,51,61.29Z" transform="translate(-26.99 -31.08)"/><path class="cls-23" d="M75.59,131a1.78,1.78,0,0,1-1-1.27.72.72,0,1,0-1.39.38,3.11,3.11,0,0,0,1.69,2.13.74.74,0,0,0,1-.26A.71.71,0,0,0,75.59,131Z" transform="translate(-26.99 -31.08)"/><path class="cls-23" d="M58.83,116.65A4.48,4.48,0,0,0,57,120.28a.72.72,0,0,0,1.44,0,3,3,0,0,1,1.14-2.39C60.29,117.33,59.57,116.08,58.83,116.65Z" transform="translate(-26.99 -31.08)"/><path class="cls-23" d="M109.07,149.06a48.2,48.2,0,0,1-3.84-3.14c-.68-.62-1.71.39-1,1a51,51,0,0,0,4.13,3.37C109.09,150.85,109.81,149.6,109.07,149.06Z" transform="translate(-26.99 -31.08)"/><path class="cls-23" d="M120.19,84.07l-4.64-2.33c-.83-.42-1.56.82-.73,1.24l4.65,2.34C120.29,85.73,121,84.49,120.19,84.07Z" transform="translate(-26.99 -31.08)"/><path class="cls-23" d="M62.22,103.43a6.45,6.45,0,0,1-3,2.07c-.87.29-.5,1.68.38,1.38a7.78,7.78,0,0,0,3.6-2.44C63.82,103.73,62.81,102.71,62.22,103.43Z" transform="translate(-26.99 -31.08)"/><path class="cls-23" d="M55.85,157.16a9.55,9.55,0,0,0-3.53.25.72.72,0,0,0,.38,1.39,8.35,8.35,0,0,1,3.15-.2C56.76,158.71,56.76,157.27,55.85,157.16Z" transform="translate(-26.99 -31.08)"/><path class="cls-23" d="M54.92,37.26a10.55,10.55,0,0,1-2.6,3.22c-.71.6.31,1.61,1,1A11.68,11.68,0,0,0,56.16,38C56.6,37.17,55.35,36.44,54.92,37.26Z" transform="translate(-26.99 -31.08)"/><path class="cls-23" d="M133.93,34.66a14.28,14.28,0,0,1-2-3.21c-.4-.83-1.64-.1-1.25.73a16.12,16.12,0,0,0,2.26,3.5C133.51,36.39,134.52,35.37,133.93,34.66Z" transform="translate(-26.99 -31.08)"/><path class="cls-23" d="M131,160.76a5.48,5.48,0,0,1-2.31.25c-.92-.08-.91,1.36,0,1.44a6.81,6.81,0,0,0,2.69-.3C132.3,161.87,131.92,160.48,131,160.76Z" transform="translate(-26.99 -31.08)"/><path class="cls-23" d="M137.12,127.38l-1.08-2.5a.73.73,0,0,0-1-.26.74.74,0,0,0-.26,1l1.08,2.5a.72.72,0,0,0,1.25-.72Z" transform="translate(-26.99 -31.08)"/><path class="cls-23" d="M86.1,140.5a7.88,7.88,0,0,1-3,1.48.72.72,0,0,0,.38,1.39,9.48,9.48,0,0,0,3.64-1.86C87.84,140.93,86.82,139.92,86.1,140.5Z" transform="translate(-26.99 -31.08)"/><path class="cls-23" d="M126.73,143.28l-1.38-1.66a.72.72,0,0,0-1,1l1.38,1.66a.72.72,0,0,0,1-1Z" transform="translate(-26.99 -31.08)"/><path class="cls-23" d="M53.2,138.05a3.9,3.9,0,0,1-.9,1.9c-.61.69.4,1.71,1,1a5.32,5.32,0,0,0,1.27-2.54C54.76,137.53,53.37,137.14,53.2,138.05Z" transform="translate(-26.99 -31.08)"/><path class="cls-23" d="M47.48,102.35a.73.73,0,0,0-1,0L45.08,104a.74.74,0,0,0,0,1,.73.73,0,0,0,1,0l1.38-1.66A.73.73,0,0,0,47.48,102.35Z" transform="translate(-26.99 -31.08)"/><path class="cls-23" d="M143.75,95.33,142.1,92c-.41-.83-1.65-.1-1.24.73l1.64,3.32C142.92,96.88,144.16,96.15,143.75,95.33Z" transform="translate(-26.99 -31.08)"/><path class="cls-5" d="M87.39,123.37a8.67,8.67,0,0,1-6.07-3,.51.51,0,0,0-.74-.06,5.52,5.52,0,0,0-1.14-1.23c-.55-.45-1.18.47-.63.91a4.27,4.27,0,0,1,1.6,3.2c0,.7,1.12.79,1.1.07a5.5,5.5,0,0,0-.18-1.29,9.69,9.69,0,0,0,6,2.53A.55.55,0,0,0,87.39,123.37Z" transform="translate(-26.99 -31.08)"/></svg>