<svg id="Camada_1" data-name="Camada 1" xmlns="http://www.w3.org/2000/svg" viewBox="0 0 152.05 117.28"><defs><style>.cls-1{fill:#d27171;}.cls-2{fill:#b35b5b;}.cls-3{fill:#803535;}.cls-4{fill:#efe8e9;}.cls-5{fill:#ae6c90;}.cls-6{fill:#f1dee5;}.cls-7{fill:#010101;}.cls-8{fill:#b2adae;}.cls-9{fill:#fff;}.cls-10{fill:#29161c;}</style></defs><path class="cls-1" d="M53.39,89.08c-1.2-2.51.09-5.07,1.45-7.22,1.14-1.79,2.38-3.53,3.64-5.23A37.09,37.09,0,0,1,67.7,67.4a23.67,23.67,0,0,1,12.15-4c1.31,0,2.67.11,3.42,1.31a8,8,0,0,1,.78,3.45,39.71,39.71,0,0,1,0,7.15c0,.29.44.29.46,0a40,40,0,0,0,0-6.92c-.12-1.38-.18-3-1.06-4.2s-2.59-1.31-4-1.23a22,22,0,0,0-5.44,1C66.44,66.26,61.15,72,56.73,78.28c-2.14,3-5.62,7.1-3.74,11,.13.26.52,0,.4-.24Z" transform="translate(-25.21 -37.22)"/><path class="cls-1" d="M108.22,101.47c-1.12-3.53-2.11-7.1-2.93-10.7q-.62-2.7-1.11-5.41c-.35-1.94-.76-4,.31-5.77,1.29-2.17,3.92-3.26,5-5.61s-.39-5.48,1.94-7.09c.24-.17,0-.56-.24-.39-2.29,1.58-1.29,4.25-1.88,6.57-.73,2.87-4,4.05-5.33,6.55a6.58,6.58,0,0,0-.5,4.08c.26,1.94.68,3.87,1.1,5.78.88,4.09,2,8.12,3.24,12.11.09.28.53.16.44-.12Z" transform="translate(-25.21 -37.22)"/><path class="cls-1" d="M131.43,74.77c6.37,6.4,12.06,14.31,12.63,23.62,0,.29.48.29.46,0-.58-9.44-6.31-17.45-12.76-24a.23.23,0,0,0-.33.33Z" transform="translate(-25.21 -37.22)"/><path class="cls-1" d="M106.86,76.51c-.54-3.17-2-6.6-1-9.83a7.11,7.11,0,0,1,7.08-5.21c3.2.17,5.8,2.5,8.21,4.38s5,4,7.41,6.15c.22.2.55-.12.33-.32-2.82-2.55-5.8-4.91-8.8-7.24-2.42-1.89-5.2-3.79-8.44-3.38a7.59,7.59,0,0,0-6.07,5c-1.24,3.45.29,7.16.87,10.58,0,.29.49.16.44-.13Z" transform="translate(-25.21 -37.22)"/><path class="cls-1" d="M107.29,101.33a62.89,62.89,0,0,1,6.87,8.48,14.6,14.6,0,0,1,2.44,5c.4,2-.33,3.49-1.4,5.06-1.21,1.8-2.33,3.91-.4,5.67,2.21,2,5.58,1.74,8.34,1.52l-.23-.29c-.64,3.53,5.65,2.73,7.51,2.91a17,17,0,0,1,11.2,5.49c.19.22.52-.1.33-.33a16.5,16.5,0,0,0-7.84-4.9,19.61,19.61,0,0,0-4.93-.8c-1.44-.05-6.31.44-5.82-2.25a.23.23,0,0,0-.22-.29,18,18,0,0,1-5.33-.09c-1.57-.35-3.65-1.39-3.65-3.26,0-1.41,1.13-2.64,1.85-3.76a6.38,6.38,0,0,0,1.17-3.33c.07-2.86-1.82-5.48-3.39-7.71a65.68,65.68,0,0,0-6.17-7.46c-.21-.21-.53.11-.33.33Z" transform="translate(-25.21 -37.22)"/><path class="cls-1" d="M123.26,126.76c5.16-2.34,9-6.4,12.2-11,1.7-2.46,3.29-5,4.79-7.6A26,26,0,0,0,143.82,99c0-.29-.4-.41-.44-.12a25.83,25.83,0,0,1-3.53,9.07c-1.43,2.48-3,4.93-4.58,7.3-3.18,4.66-7,8.78-12.24,11.14-.27.13,0,.52.23.4Z" transform="translate(-25.21 -37.22)"/><path class="cls-1" d="M144.23,99.18c.05-.76.45-1.39,1.3-.87s.61,1.35.58,2.06a15,15,0,0,0,.08,2.68,32.44,32.44,0,0,0,1.17,5A37.52,37.52,0,0,1,149,119.67c-.06,3.68.05,7.79-1.66,11.15a9.87,9.87,0,0,1-8.53,5.36c-.29,0-.29.47,0,.46a10.26,10.26,0,0,0,7.59-3.6c2.11-2.45,2.7-5.68,2.89-8.82a47.93,47.93,0,0,0-.27-11.42c-.71-3.87-2.53-7.56-2.53-11.54,0-1.22.44-2.94-1.05-3.47a1.6,1.6,0,0,0-1.32,0c-.5.32-.35.77-.39,1.34,0,.3.45.29.46,0Z" transform="translate(-25.21 -37.22)"/><path class="cls-1" d="M107.21,100.74c-2.27,3.88-2,8.3-2.07,12.63a20.09,20.09,0,0,1-1.14,7c-.78,2-2.17,3.92-2.13,6.15.09,4.68,5.43,4.58,8.83,4.62,2.65,0,5.3,0,8,.12a22,22,0,0,1,8.13,1.91A39.1,39.1,0,0,0,143,136.3a.23.23,0,0,0,0-.46,38.21,38.21,0,0,1-14.21-2.28,44,44,0,0,0-6.36-2.33,35.76,35.76,0,0,0-6.62-.43c-2.48,0-5,0-7.45-.1s-5.51-.57-6-3.49c-.38-2.26,1-4.28,1.88-6.27a17.39,17.39,0,0,0,1.23-5.55c.35-4.88-.49-10,2.1-14.42.15-.25-.25-.48-.4-.23Z" transform="translate(-25.21 -37.22)"/><path class="cls-1" d="M53.1,90.2c-2-.35-2.85,1.32-2.47,3a39.91,39.91,0,0,0,2.93,8.11A64.45,64.45,0,0,0,63,115.94c3,3.5,7,6.1,11.77,5.41,5-.72,9.1-4.6,12.35-8.19a9.68,9.68,0,0,0,2.76-7.4c-.22-3.08-1.56-6-2.87-8.73-.12-.27-.52,0-.39.23,2.08,4.38,4.43,9.83,1.23,14.29a30.31,30.31,0,0,1-4.72,4.89,20,20,0,0,1-5.71,3.71C67.78,124,61.3,113.71,57,106.76a51.7,51.7,0,0,1-3.77-7.28q-.82-2-1.47-4C51.29,94,50,90.1,53,90.64c.29,0,.41-.39.12-.44Z" transform="translate(-25.21 -37.22)"/><path class="cls-1" d="M53.15,90.53c5.3,3,11.39,4.34,17.36,5.22,2.91.43,5.85.73,8.78,1,2.59.26,5.38.72,7.8-.5.26-.13,0-.53-.23-.39-2.51,1.26-5.58.63-8.26.37-3-.3-5.93-.62-8.88-1.08-5.62-.88-11.34-2.22-16.34-5a.23.23,0,0,0-.23.39Z" transform="translate(-25.21 -37.22)"/><path class="cls-1" d="M86.57,97.19c4.68-2.83,2.22-9.22,1-13.33A52.12,52.12,0,0,0,84.81,76c-1.09-2.28-3.78-3.74-4.38-6.22-.07-.28-.51-.16-.44.12.44,1.82,2,3,3.12,4.31,1.77,2.08,2.52,5,3.34,7.56s1.48,4.94,2,7.46c.62,2.85.66,5.91-2.14,7.61-.25.15,0,.55.23.39Z" transform="translate(-25.21 -37.22)"/><path class="cls-1" d="M52.87,97.39a1.3,1.3,0,0,0-1.75,0c-1.13.8-1.25,2.21-1.5,3.47a77.5,77.5,0,0,0-1.42,10.72c-.38,6.24-.17,13,3.46,18.31,1.52,2.24,3.53,3.67,6.33,3.15a67.42,67.42,0,0,0,9.8-3.16,73,73,0,0,1,10.22-3,35,35,0,0,1,5.3-.61,15.07,15.07,0,0,0,4.91-.63,7.33,7.33,0,0,0,4.56-5.55c.59-3.43-1.35-6.73-3-9.57a.23.23,0,0,0-.4.23c1.45,2.53,3.13,5.33,3,8.35a6.85,6.85,0,0,1-4,6c-2.59,1.14-5.76.66-8.52,1a49.2,49.2,0,0,0-8.2,2c-2.69.86-5.33,1.86-8,2.77s-6.51,2.81-9.21,1.27c-2.35-1.34-3.77-4.42-4.6-6.86a27.66,27.66,0,0,1-1.32-8,65.4,65.4,0,0,1,.45-9.59c.22-1.92.51-3.84.87-5.74.14-.76.87-5.75,2.68-4.28.23.19.55-.14.32-.32Z" transform="translate(-25.21 -37.22)"/><path class="cls-1" d="M60.62,127.85c1.62-1.23,3.62-1.73,5.44-2.57,1.49-.69,3.17-1.74,3.6-3.44a.23.23,0,0,0-.44-.12c-.44,1.73-2.32,2.71-3.83,3.36a22.28,22.28,0,0,0-5,2.38c-.23.17,0,.57.23.39Z" transform="translate(-25.21 -37.22)"/><path class="cls-1" d="M56,129.78l5.81-2.64c.27-.12,0-.51-.24-.39l-5.8,2.63c-.27.12,0,.52.23.4Z" transform="translate(-25.21 -37.22)"/><path class="cls-1" d="M149.34,108.58a22.46,22.46,0,0,0-.8-2.21l-.6-1.41c-.19-.43-.17-.39-.32-.76a18.9,18.9,0,0,1-.76-2.19l-.12-.5c0-.07-.07-.34-.07-.35a7.5,7.5,0,0,1,0-1.16,2.2,2.2,0,0,0-1.8-2.25,2.23,2.23,0,0,0-.05-.36A34,34,0,0,0,140.1,85.8c-.23-.6-.46-1.19-.71-1.76-1.51-3.54-3.8-6.79-7.2-8.58A57.69,57.69,0,0,0,124.62,68a38,38,0,0,0-8.33-5.54,9.06,9.06,0,0,0-5.9-.77,6.5,6.5,0,0,0-4,3.09c-1.56,2.84-1.12,6.3.19,9.13l0,.08a24.1,24.1,0,0,0,.13,2.94,9.69,9.69,0,0,0-1,1.16,4.71,4.71,0,0,0-.8.63,6.81,6.81,0,0,0-1.53,5.48,50.3,50.3,0,0,0,1.15,6.56,64.83,64.83,0,0,0,3.28,10.08c-2,2.9-2.35,6.65-2.35,10.16a37.08,37.08,0,0,1-.36,6.13c-.21,1.23-.55,2.44-.83,3.65a1.76,1.76,0,0,0-.34.33c-.13.16-.24.33-.36.49h0l-.05.11a7.31,7.31,0,0,0-1.28,4.46c-.18,1.58,0,3.17,1.47,4.14a7.33,7.33,0,0,0,3.84.76c1.27,0,2.54,0,3.8-.06,1.09,0,2.17-.12,3.25-.19a39.11,39.11,0,0,0,7.83,1.19l1.7.15.76.35a34.24,34.24,0,0,0,8.28,2.51c.38.19.76.37,1.16.54a11.71,11.71,0,0,0,7.49,1,8.11,8.11,0,0,0,5.3-4.71,25.66,25.66,0,0,0,1.81-7.38,33.42,33.42,0,0,0,.18-6.48A16.29,16.29,0,0,0,149.34,108.58Z" transform="translate(-25.21 -37.22)"/><path class="cls-1" d="M90.59,112.76a15.27,15.27,0,0,0-1-1.94c.08-.52.14-1,.19-1.55a19.56,19.56,0,0,0-.39-5.5A19,19,0,0,0,86.9,97.6a5.78,5.78,0,0,1,.41-.5,8.61,8.61,0,0,0,1.86-6.46,24.42,24.42,0,0,0-1.06-4.76A18.84,18.84,0,0,0,84.41,76s0,0,0-.07c0-2,.19-4,.08-6a8.36,8.36,0,0,0-.38-2.09,4.15,4.15,0,0,0-1.78-3.88A5.61,5.61,0,0,0,78.9,63a14.48,14.48,0,0,0-3.69.74A22.39,22.39,0,0,0,68,66.55a10.05,10.05,0,0,0-3.64,3.36,33.72,33.72,0,0,0-10.16,13,10.57,10.57,0,0,0-1.22,5.18,6.47,6.47,0,0,0,.59,2.15,2.4,2.4,0,0,0-2.38,3l.44,1.4a13.82,13.82,0,0,0,.6,2.56A4.63,4.63,0,0,0,50,99.53,7.54,7.54,0,0,0,49.6,101c-5.68-7.57-9.84-16.2-15.54-23.77a21.92,21.92,0,0,0-2.9-3.36,1.06,1.06,0,0,0,.06-.37,6.43,6.43,0,0,0-1.67-4.37,1.18,1.18,0,0,0-2,.68,3.65,3.65,0,0,0-.41-.18A1.22,1.22,0,0,0,26.47,72a2.16,2.16,0,0,1,.6.4l-.38,0a1.38,1.38,0,0,0,.74,2.66c1-.18,1.94.77,2.56,1.43a31.55,31.55,0,0,1,2.32,2.94c1.58,2.15,3,4.39,4.46,6.66,2.85,4.53,5.5,9.18,8.53,13.59,1.21,1.75,2.47,3.46,3.81,5.11-.15,1.27-.31,2.54-.45,3.81-.66,5.71-1,11.72,1,17.21,1,2.72,3.06,7.45,6.69,7h0a6.23,6.23,0,0,0,3.85.06A43,43,0,0,0,64.79,131c1.24-.53,2.62-1.1,4-1.64a60.41,60.41,0,0,1,8.81-2.77,29.42,29.42,0,0,1,4.17-.65c1.47-.12,2.94-.05,4.41-.1a6.51,6.51,0,0,0,6.91-6.43A9.33,9.33,0,0,0,90.59,112.76Z" transform="translate(-25.21 -37.22)"/><path class="cls-2" d="M92.5,117.11a12,12,0,0,0-2.15-4.82c.23-.8-.35-1.81-1.34-1.45-.16,0-.31.12-.46.18a1.75,1.75,0,0,0-1,.36,1.76,1.76,0,0,0-.53.7,36.35,36.35,0,0,0-3.07,3.8,16.4,16.4,0,0,1-4.5,3.75A35.31,35.31,0,0,0,74.29,121a86,86,0,0,0-14.84,7.25c-1.81,1-.3,3.78,1.5,3a2.06,2.06,0,0,0,.93-.2c2.38-1.1,4.74-2.28,7.16-3.29a21.26,21.26,0,0,1,7.37-1.63c2.68-.13,5.36,0,8-.22,2.5-.22,5.26-.6,7.26-2.24C93.55,122.09,94.24,119,92.5,117.11Z" transform="translate(-25.21 -37.22)"/><path class="cls-2" d="M138.25,133.64a68,68,0,0,0-7.95-4c-2.62-1.11-5.3-2-8-2.9-2.19-.77-4.15-1.83-5.08-4.07-.49-1.19-.76-2.47-1.16-3.69a18,18,0,0,0-4.53-7.39c-.49-.48-1-.9-1.51-1.38a3.49,3.49,0,0,1-.56-.65c-.28-.48-.13-.24-.1-.18,0-.1,0-.2,0-.17.48-2.09-2.74-3-3.25-.87a3.81,3.81,0,0,0-.06,1.53c-.69,1.49-.34,4.08-.3,5.36l.07,2.24a38.77,38.77,0,0,1-1.18,4.72,11.82,11.82,0,0,0-1.43,2.15,4.44,4.44,0,0,0,.26,4.62c1.09,1.38,3,1.61,4.63,1.73a14.85,14.85,0,0,0,4.74-.46,8.17,8.17,0,0,0,3.91.74q8.56,1.95,17,4.44a1.63,1.63,0,0,0,.84,0c.66.36,1.31.72,2,1.1A1.68,1.68,0,0,0,138.25,133.64Z" transform="translate(-25.21 -37.22)"/><path class="cls-2" d="M109.37,109.2v0Z" transform="translate(-25.21 -37.22)"/><path class="cls-2" d="M53.28,90.75a1.56,1.56,0,0,0-2.36.23c-.94,1.23-.19,3.28.32,4.5,1.5,3.56,4.29,6.7,6.66,9.71,2.7,3.41,5.54,6.72,8.53,9.89,2.51,2.67,5.27,5.22,8.88,6.22a.23.23,0,0,0,.12-.45,17.64,17.64,0,0,1-7.69-5.07c-2.3-2.32-4.45-4.79-6.55-7.28s-4.31-5.31-6.33-8.07a36.19,36.19,0,0,1-2.65-4,11.94,11.94,0,0,1-1-2.28,5.9,5.9,0,0,1-.3-1.56c0-.86.78-2.76,2-1.54.2.21.53-.11.32-.32Z" transform="translate(-25.21 -37.22)"/><path class="cls-2" d="M121.43,126.29a29,29,0,0,0,8-3.64c2.47-1.79,4-4.46,5.72-6.94l6-8.79a18.18,18.18,0,0,0,2.28-3.84c.57-1.56.22-3.52,1.41-4.81.2-.22-.13-.54-.33-.32a4.87,4.87,0,0,0-1.07,2.78,10.58,10.58,0,0,1-1.77,4.62c-1.91,2.87-3.89,5.69-5.84,8.53-1.79,2.62-3.44,5.72-5.89,7.79s-5.62,3.16-8.65,4.18c-.28.09-.16.53.12.44Z" transform="translate(-25.21 -37.22)"/><path class="cls-3" d="M84.42,97.31a5.35,5.35,0,0,0-.58-.68,3.34,3.34,0,0,0-1.58-1.09,7.33,7.33,0,0,0-1.91-.61,6.32,6.32,0,0,0-2.17,0c-1.62-.19-3.25-.39-4.84-.69-.1,0-.62-.17-.63-.16a3.82,3.82,0,0,1-.46-.21l-.09-.07-.78-.58a10,10,0,0,0-4.31-2,6.35,6.35,0,0,0-7.5,6.3c.08,3.23,2.89,5.34,5.61,6.7a21.76,21.76,0,0,0,15.4,1.19,6.73,6.73,0,0,0,4.2-3A4.86,4.86,0,0,0,84.42,97.31Z" transform="translate(-25.21 -37.22)"/><path class="cls-4" d="M79.72,95a.94.94,0,0,0-.3,0H77.94l-4.81-.64c-1.76-1.13-3.51-2.47-5.48-2.84a7,7,0,0,0-2.19-.3,1.07,1.07,0,0,0-.32.06h0a1,1,0,0,0-1.22.69,3.63,3.63,0,0,0,6.67,2.61l.12.09a.68.68,0,0,0,0,.14,1.2,1.2,0,0,0-.1.35,3,3,0,0,0,2.08,3.13,2.81,2.81,0,0,0,3.25-1.49,1.24,1.24,0,0,0,.11-.49l.13,0a1.67,1.67,0,0,0,.11.48,2.4,2.4,0,0,0,4.52-.45A1,1,0,0,0,79.72,95ZM67,94.26a1.6,1.6,0,0,1-.82-.54,6.32,6.32,0,0,0,1,.57Z" transform="translate(-25.21 -37.22)"/><path class="cls-4" d="M130.61,91.68a9.4,9.4,0,0,0-3.08.58,7.37,7.37,0,0,0-1.14.13,2.19,2.19,0,0,0-.79.11,17.61,17.61,0,0,1-2.17.53l-.53.09c-.32,0-.64.06-1,.08a18.31,18.31,0,0,1-2,0l-1-.08c.1,0-.69-.11-.77-.13a3.47,3.47,0,0,0-1.57.09c-2.2-1.22-4.93.24-5.61,2.73a6.11,6.11,0,0,0,1.77,5.91,10.94,10.94,0,0,0,5.39,2.44,30.82,30.82,0,0,0,3.45.5,15.94,15.94,0,0,0,8.88-.7c2.86-1,5.25-3,5.63-6.16A5.5,5.5,0,0,0,130.61,91.68Z" transform="translate(-25.21 -37.22)"/><path class="cls-5" d="M74.92,104a1.37,1.37,0,0,0-.19-.72,3.77,3.77,0,0,0-2.49-1.61c-1.08-.25-2.24,0-3.31-.29s-1.9-.94-2.94-1.26a4.64,4.64,0,0,0-3.42.21,1.22,1.22,0,0,0,.09,2.26c.86,1.06,3,1.6,4.27,2a39.37,39.37,0,0,0,6.38,1.47,1.63,1.63,0,0,0,1.87-.91A1.25,1.25,0,0,0,74.92,104Z" transform="translate(-25.21 -37.22)"/><path class="cls-3" d="M117.31,93.3a69.83,69.83,0,0,1-2.11,10.43.23.23,0,0,0,.44.12,70.17,70.17,0,0,0,2.13-10.55c0-.29-.42-.29-.46,0Z" transform="translate(-25.21 -37.22)"/><path class="cls-3" d="M122.79,93.54a95.4,95.4,0,0,1,1.08,11.2c0,.29.47.29.46,0a99.86,99.86,0,0,0-1.09-11.33c0-.29-.49-.16-.45.13Z" transform="translate(-25.21 -37.22)"/><path class="cls-3" d="M129.11,92.44a40.57,40.57,0,0,0,4,9,.23.23,0,0,0,.4-.23,40.28,40.28,0,0,1-3.93-8.85c-.08-.28-.53-.16-.44.12Z" transform="translate(-25.21 -37.22)"/><path class="cls-2" d="M127.27,91.85c2.27-.56,4.88-.9,6.92.48l.18-.42a12.6,12.6,0,0,0-6.22-.87c-.24,0-.33.39-.06.45a5.28,5.28,0,0,0,2.87-.12c.19-.07.24-.41,0-.45a5.43,5.43,0,0,0-2.65.26l.18.42a2.8,2.8,0,0,1,1.61-.27v-.45a6.13,6.13,0,0,0-2.17.3.23.23,0,0,0,.06.45,4.18,4.18,0,0,0,1.91-.34c.24-.1.07-.48-.18-.42l-1.8.48.13.45,1.38-.47c.28-.1.16-.54-.12-.44l-1.39.46a.23.23,0,0,0,.13.45l1.79-.48-.17-.42a3.72,3.72,0,0,1-1.68.27l.06.46a5.73,5.73,0,0,1,2-.3c.31,0,.29-.42,0-.45a3.09,3.09,0,0,0-1.84.33c-.23.11-.07.51.17.42a5,5,0,0,1,2.41-.26v-.45a4.81,4.81,0,0,1-2.63.13l-.06.45a12.24,12.24,0,0,1,6.1.86c.25.1.38-.29.18-.42-2.15-1.45-4.9-1.12-7.28-.53-.28.07-.16.51.12.44Z" transform="translate(-25.21 -37.22)"/><path class="cls-6" d="M73.71,84.31a9.61,9.61,0,0,0-.86-3.92,6.28,6.28,0,0,0-.45-1,7.26,7.26,0,0,0-2.92-2.92,16.5,16.5,0,0,0-2.16-1.15,8.06,8.06,0,0,0-4.88-.45,7.07,7.07,0,0,0-3.2,1.65,6.11,6.11,0,0,0-.94,1,7.81,7.81,0,0,0-2.38,4,8.87,8.87,0,0,0,.63,6.21A7.4,7.4,0,0,0,57.4,89,7,7,0,0,0,60,91.66a9,9,0,0,0,5.76,1.06,8.19,8.19,0,0,0,6.37-3.46A8.67,8.67,0,0,0,73.71,84.31Z" transform="translate(-25.21 -37.22)"/><path class="cls-6" d="M87.78,83.83a7.84,7.84,0,0,0-1-3.43,6.14,6.14,0,0,0-.46-.88,7.48,7.48,0,0,0-2.92-2.64,17.09,17.09,0,0,0-2.14-1.07,8.82,8.82,0,0,0-4.73-.56,6.59,6.59,0,0,0-3,1.33,5.16,5.16,0,0,0-.87.88,6.1,6.1,0,0,0-2.17,3.36,7.16,7.16,0,0,0,.82,5.42,7.32,7.32,0,0,0,.86,1.13,7.17,7.17,0,0,0,2.61,2.4,10,10,0,0,0,5.6,1.12,7.56,7.56,0,0,0,6-2.8A6.53,6.53,0,0,0,87.78,83.83Z" transform="translate(-25.21 -37.22)"/><path class="cls-6" d="M123.34,78.09a11.79,11.79,0,0,0-3.57-3.36,7.38,7.38,0,0,0-4-.94,16.7,16.7,0,0,0-2.44.13,8.39,8.39,0,0,0-4.44,2A6.92,6.92,0,0,0,107,78.91a6.39,6.39,0,0,0-.29,1.32,7.18,7.18,0,0,0-.08,4.4,8.21,8.21,0,0,0,3.63,4.76,8,8,0,0,0,1.37.62,7.11,7.11,0,0,0,3.57.88,9.43,9.43,0,0,0,5.51-2,8,8,0,0,0,3.77-6A7.9,7.9,0,0,0,123.34,78.09Z" transform="translate(-25.21 -37.22)"/><path class="cls-6" d="M138.81,81a9.39,9.39,0,0,0-1.9-3.46,6.78,6.78,0,0,0-.7-.81,7,7,0,0,0-3.54-1.93,16.71,16.71,0,0,0-2.34-.47,7.73,7.73,0,0,0-4.67,1,7,7,0,0,0-2.51,2.48,6.38,6.38,0,0,0-.57,1.26,7.77,7.77,0,0,0-1.1,4.42,8.84,8.84,0,0,0,2.35,5.7,7.94,7.94,0,0,0,1.14,1,6.84,6.84,0,0,0,3.18,1.76,8.63,8.63,0,0,0,5.66-.65,8,8,0,0,0,4.94-5.1A8.58,8.58,0,0,0,138.81,81Z" transform="translate(-25.21 -37.22)"/><path class="cls-7" d="M67.63,83a3.36,3.36,0,0,0-.7-.6c-.2-.13-.52-.28-.48-.53a.41.41,0,0,0-.28-.46v0c.09-.17.33-.37.54-.25a.53.53,0,0,0,.8-.33.36.36,0,0,0,.4-.29l0-.31h0L68,78.92c0-.2.11-.4.14-.6a1.36,1.36,0,0,0,0-.45,1.08,1.08,0,0,0-.53-.85,1.37,1.37,0,0,0-.38-.15.85.85,0,0,0-.74-.35c-.71,0-1,.76-1.23,1.29A8.74,8.74,0,0,0,64.73,80a20.11,20.11,0,0,0-.16,2.33,5,5,0,0,0,.16,1.85,1.75,1.75,0,0,0,2.89.69A1.46,1.46,0,0,0,67.63,83ZM65.81,84.1a1.17,1.17,0,0,1-.16-.36,1.65,1.65,0,0,0,.47.62A.61.61,0,0,1,65.81,84.1Z" transform="translate(-25.21 -37.22)"/><path class="cls-7" d="M81.62,82.94a3.13,3.13,0,0,0-.7-.6c-.19-.13-.51-.28-.47-.53a.4.4,0,0,0-.28-.46v0c.08-.17.33-.37.54-.25a.53.53,0,0,0,.8-.33.36.36,0,0,0,.4-.29l0-.31h0L82,78.85a4.78,4.78,0,0,0,.15-.6,1.36,1.36,0,0,0,0-.45,1.08,1.08,0,0,0-.54-.85,1.16,1.16,0,0,0-.38-.15.8.8,0,0,0-.74-.35c-.71,0-1,.76-1.23,1.29a8.72,8.72,0,0,0-.55,2.18,20.11,20.11,0,0,0-.16,2.33,4.83,4.83,0,0,0,.16,1.85,1.75,1.75,0,0,0,2.88.69A1.45,1.45,0,0,0,81.62,82.94ZM79.8,84a1.14,1.14,0,0,1-.15-.36,1.7,1.7,0,0,0,.46.62A.7.7,0,0,1,79.8,84Z" transform="translate(-25.21 -37.22)"/><path class="cls-7" d="M114.34,83.42a3.61,3.61,0,0,0-.72-.51c-.2-.12-.52-.23-.51-.48a.4.4,0,0,0-.3-.43v0c.07-.18.29-.4.5-.31a.5.5,0,0,0,.73-.41.37.37,0,0,0,.36-.33l0-.31h0l0-1.28c0-.21.07-.42.09-.62a1.61,1.61,0,0,0,0-.44,1.07,1.07,0,0,0-.59-.79,1,1,0,0,0-.38-.11.73.73,0,0,0-.73-.26c-.67.11-.9.86-1.06,1.41a9.24,9.24,0,0,0-.33,2.22,19.92,19.92,0,0,0,0,2.32,5.13,5.13,0,0,0,.32,1.82,1.63,1.63,0,0,0,2.81.37A1.49,1.49,0,0,0,114.34,83.42ZM112.7,84.7a1.11,1.11,0,0,1-.18-.34,1.48,1.48,0,0,0,.5.56A.64.64,0,0,1,112.7,84.7Z" transform="translate(-25.21 -37.22)"/><path class="cls-7" d="M129.9,84a2.94,2.94,0,0,0-.78-.42c-.21-.09-.54-.16-.55-.42a.4.4,0,0,0-.36-.38v0c0-.18.24-.43.46-.36a.51.51,0,0,0,.67-.5.35.35,0,0,0,.31-.37l-.05-.31h0l-.21-1.27c0-.21,0-.42,0-.62a1.21,1.21,0,0,0-.07-.43,1,1,0,0,0-.68-.71.84.84,0,0,0-.39-.06.75.75,0,0,0-.76-.18c-.65.2-.78,1-.87,1.53a9.43,9.43,0,0,0-.06,2.25,22,22,0,0,0,.33,2.3,5.51,5.51,0,0,0,.54,1.77,1.64,1.64,0,0,0,2.84,0A1.5,1.5,0,0,0,129.9,84Zm-1.47,1.47a1.34,1.34,0,0,1-.22-.31,1.57,1.57,0,0,0,.56.49A.63.63,0,0,1,128.43,85.43Z" transform="translate(-25.21 -37.22)"/><path class="cls-8" d="M121.41,80a6,6,0,0,0,.21,6.24c.16.25.56,0,.39-.23a5.59,5.59,0,0,1-.2-5.78.23.23,0,0,0-.4-.23Z" transform="translate(-25.21 -37.22)"/><path class="cls-8" d="M72.32,80.06a8.3,8.3,0,0,1,1.61,6.38c-.05.29.39.42.44.12a8.73,8.73,0,0,0-1.66-6.73c-.17-.23-.57,0-.39.23Z" transform="translate(-25.21 -37.22)"/><path class="cls-9" d="M59.51,87.4a4.86,4.86,0,0,1-.57-5c.4-.89-1.12-1.36-1.51-.47a6.33,6.33,0,0,0,.93,6.52C59,89.2,60.12,88.18,59.51,87.4Z" transform="translate(-25.21 -37.22)"/><path class="cls-9" d="M135.71,84.9a3.24,3.24,0,0,1-2.46,2.29.7.7,0,0,0-.54.9.72.72,0,0,0,.89.58s.05,0,.08,0a4.75,4.75,0,0,0,3.48-3.29A.76.76,0,0,0,135.71,84.9Z" transform="translate(-25.21 -37.22)"/><path class="cls-1" d="M138.71,94.3a7,7,0,0,0-.38-1.17,1,1,0,0,0-.33-.8l-.09-.07a7.79,7.79,0,0,0-3.44-3.21c-2.67-1.25-5.39-.63-8.06.29a1.17,1.17,0,0,0-.46.29,7,7,0,0,1-3.52.32c-1.44-.26-2.06,2-.61,2.21a9.26,9.26,0,0,0,4.84-.35,1.05,1.05,0,0,0,1.14.36,9.92,9.92,0,0,1,8.28,1.56,5.32,5.32,0,0,1,.41,1.18C136.82,96.35,139,95.74,138.71,94.3Z" transform="translate(-25.21 -37.22)"/><path class="cls-1" d="M109.09,94.89a16.28,16.28,0,0,1-11.79-11,46.78,46.78,0,0,1-1.67-9.77,102,102,0,0,1-.57-10.63A52.59,52.59,0,0,1,96.35,51.6,1.39,1.39,0,0,0,95,49.89a1.44,1.44,0,0,0-2.41.5c-2,6.23-1.72,12.83-1.31,19.26.4,6.26,1,12.7-.45,18.87a16.83,16.83,0,0,1-1.65,4.63,4,4,0,0,1-2.83,2.26c-1.76.11-1.78,2.87,0,2.75,3.21-.21,5.13-3,6.18-5.73a31.68,31.68,0,0,0,1.82-8.89,19.74,19.74,0,0,0,5,9,19,19,0,0,0,8.94,5C110.08,98,110.82,95.3,109.09,94.89Z" transform="translate(-25.21 -37.22)"/><path class="cls-1" d="M66.42,128.43a99.2,99.2,0,0,0-9.6,13.77c-1.38,2.4-2.65,4.87-3.86,7.39-.13.28-.25.7-.53.83a2.91,2.91,0,0,1-1,0H46.12c-1.77,0-1.78,3.12,0,3.12h4.4c1.34,0,2.8.21,3.87-.89a14.28,14.28,0,0,0,2-3.65c.67-1.33,1.37-2.65,2.09-3.94a93.92,93.92,0,0,1,9.9-14.43C69.59,129.18,67.64,127,66.42,128.43Z" transform="translate(-25.21 -37.22)"/><path class="cls-1" d="M81.23,151.24a4.55,4.55,0,0,1-1.76.06,221.15,221.15,0,0,0-1.12-24.56c-.08-.84-.57-1.56-1.37-1.56a1.48,1.48,0,0,0-1.38,1.56,224.34,224.34,0,0,1,1.1,25.8,1.58,1.58,0,0,0,1,1.5,7.42,7.42,0,0,0,4.25.21C83.69,153.84,83,150.83,81.23,151.24Z" transform="translate(-25.21 -37.22)"/><path class="cls-1" d="M156.73,151.45l-3.57-.37a12.94,12.94,0,0,1-3.1-.42c-1.62-.58-2.36-3-3.12-4.55a78.37,78.37,0,0,0-7.7-12.58c-1.1-1.47-2.93.67-1.84,2.13a77.17,77.17,0,0,1,7.91,13.23c1,2,2.12,4.08,4.17,4.71a17.06,17.06,0,0,0,3.4.46l3.85.4c.7.07,1.3-.74,1.3-1.51A1.44,1.44,0,0,0,156.73,151.45Z" transform="translate(-25.21 -37.22)"/><path class="cls-1" d="M116.28,130.28a1.38,1.38,0,0,0-1.37,1.35q-.76,9.92-.62,19.88a28.07,28.07,0,0,0-4.66.37,1.36,1.36,0,0,0-1,1.66,1.42,1.42,0,0,0,1.7.94,25,25,0,0,1,5.33-.24,1.38,1.38,0,0,0,1.38-1.35c-.15-7.09.05-14.19.59-21.26A1.37,1.37,0,0,0,116.28,130.28Z" transform="translate(-25.21 -37.22)"/><path class="cls-1" d="M176.25,70.31a5.42,5.42,0,0,0-2.34-.42c1.52-.62.8-3.13-.86-2.61a7,7,0,0,0-4.24,3.59c-9.21,5-12.89,16.23-20.74,22.9a16.55,16.55,0,0,1-8.15,3.91,1.38,1.38,0,0,0-1,1.69,1.4,1.4,0,0,0,1.69,1c5.78-.9,10.35-5,13.9-9.36s6.39-9.5,10.37-13.62a21.29,21.29,0,0,1,6-4.46,1.76,1.76,0,0,0,.83.68,14.6,14.6,0,0,1,2.84,1.58,1.4,1.4,0,0,0,1.89-.5,1.35,1.35,0,0,0-.24-1.66,1.52,1.52,0,0,0,1-1A1.41,1.41,0,0,0,176.25,70.31Z" transform="translate(-25.21 -37.22)"/><path class="cls-1" d="M75.4,92.18c-3.14-1.65-6.44-3.74-10.12-3.66-3.07.08-6.05,1.58-7.21,4.53a.87.87,0,0,0,0,.42c-.43-.19-1,0-1,.58a20.18,20.18,0,0,0,.46,2.8.58.58,0,0,0,.25.39,5.61,5.61,0,0,0,0,.58.72.72,0,0,0,.91.64,9.3,9.3,0,0,0,1.72,4.19c.53.7,1.72,0,1.19-.7A8.21,8.21,0,0,1,60,97.33a.76.76,0,0,0,.18-.24,4.35,4.35,0,0,0,.38-1.66l0-.09a12.82,12.82,0,0,1,.74-1.73A10,10,0,0,1,63.63,92h0a4.15,4.15,0,0,1,.87-.06.6.6,0,0,0,.55-.26,11.59,11.59,0,0,1,5.58.69.74.74,0,0,0,.32,0c1.13.57,2.22,1.21,3.29,1.77C75.55,94.85,76.71,92.87,75.4,92.18Z" transform="translate(-25.21 -37.22)"/><path class="cls-10" d="M69.45,71.07a7.14,7.14,0,0,0-7.26-2.42,6.71,6.71,0,0,0-4.91,5.63c-.06.56.87.56.94,0a5.75,5.75,0,0,1,4.22-4.77,6.16,6.16,0,0,1,6.21,2C69,72,69.82,71.53,69.45,71.07Z" transform="translate(-25.21 -37.22)"/><path class="cls-10" d="M85.89,72.3a6.42,6.42,0,0,0-5-4.1,5.41,5.41,0,0,0-5.54,2.49c-.22.39.52.68.74.3a4.66,4.66,0,0,1,4.74-2.09,5.53,5.53,0,0,1,4.3,3.46C85.28,72.8,86.05,72.75,85.89,72.3Z" transform="translate(-25.21 -37.22)"/><path class="cls-2" d="M64.16,106.24a7.48,7.48,0,0,1-5-4.52C58,99,58.21,95.78,58.8,92.91c.3-1.44-1.91-2.06-2.21-.61-.72,3.48-.93,7.18.53,10.51a9.68,9.68,0,0,0,6.43,5.65C65,108.79,65.61,106.58,64.16,106.24Z" transform="translate(-25.21 -37.22)"/><path class="cls-2" d="M138.8,90.17a1.19,1.19,0,0,0-1.57-.41,1.16,1.16,0,0,0-.41,1.57,9.94,9.94,0,0,1,1.33,9.12c-.5,1.4,1.72,2,2.21.61A12,12,0,0,0,138.8,90.17Z" transform="translate(-25.21 -37.22)"/><path class="cls-2" d="M108.54,92.16a5.76,5.76,0,0,0-.75,5.18c.47,1.4,2.69.8,2.21-.61a3.63,3.63,0,0,1,.52-3.41C111.38,92.12,109.39,91,108.54,92.16Z" transform="translate(-25.21 -37.22)"/><path class="cls-2" d="M126.94,108.4a15.54,15.54,0,0,1-7.56-1.16,1.2,1.2,0,0,0-1.57.42,1.15,1.15,0,0,0,.41,1.57,18,18,0,0,0,8.72,1.47C128.4,110.57,128.42,108.27,126.94,108.4Z" transform="translate(-25.21 -37.22)"/><path class="cls-2" d="M143.91,135.42a1.08,1.08,0,0,0-1.11-1c-3.17,0-6.14-1.41-9-2.57s-6.13-2.33-9.09-3.72a16,16,0,0,1-6.47-5.33,45.29,45.29,0,0,1-3.95-7.28c-1.32-2.79-2.77-5.61-5.15-7.65-1.11-1-2.75.66-1.62,1.62a20,20,0,0,1,4.68,7,48.41,48.41,0,0,0,4,7.5,18,18,0,0,0,6.56,5.79c3,1.53,6.27,2.66,9.4,3.92,1.5.6,3,1.27,4.56,1.82a.44.44,0,0,0,.14.5l.23.19a.45.45,0,0,0,.27.47,4.14,4.14,0,0,0,.77.31,7.68,7.68,0,0,0,6.13-.51C144.84,136.11,144.44,135.32,143.91,135.42Z" transform="translate(-25.21 -37.22)"/><path class="cls-2" d="M120.24,129.26q-.4,0-.81,0a1,1,0,0,0-.81-.3,29,29,0,0,1-3.23-.06c-.43-.07-.86-.15-1.29-.25a1.17,1.17,0,0,0-.65,0A27.45,27.45,0,0,1,104.9,126c-1.31-.67-2.47,1.31-1.16,2a30.23,30.23,0,0,0,11.44,3.24,30.54,30.54,0,0,0,5.06.37A1.15,1.15,0,0,0,120.24,129.26Z" transform="translate(-25.21 -37.22)"/><path class="cls-1" d="M128.58,78.46a12.43,12.43,0,0,1,2.15.44,15.44,15.44,0,0,1,6.3,2.79,21.89,21.89,0,0,1,1.75,1.4l.06,0s0,0,0,0a6.88,6.88,0,0,0,0-2.56,1.38,1.38,0,0,0-.15-.88l-.18-.3a8.44,8.44,0,0,0-.53-1.09,7.59,7.59,0,0,0-.61-1.63c-1.75-1.17-3.7-2-5.54-3a.8.8,0,0,1-1.12.06l-1-1h-1.74a.77.77,0,0,1-.42-.12,3.69,3.69,0,0,0-1.65,1,9,9,0,0,0-3.53,1.87,13.62,13.62,0,0,1-.87-1.94s0-.07,0-.11a.75.75,0,0,1-1.13.52c-.94-.62-1.91-1.18-2.86-1.78a17.33,17.33,0,0,1-3.35-.54,15.19,15.19,0,0,1-2.44.28c-.19.07-.37.16-.55.24l0,0a1.76,1.76,0,0,0-.26.81A6.76,6.76,0,0,0,109.09,74a1.81,1.81,0,0,0-.42.6,7.9,7.9,0,0,0-1,1,1.52,1.52,0,0,0-.32.65l-.06,0-.19.46c-.13.7-.19,1.42-.35,2.11A1,1,0,0,0,108,79a9.69,9.69,0,0,1,11.94,2.08c.79.84,1.84.07,2-.87A9.9,9.9,0,0,1,128.58,78.46Z" transform="translate(-25.21 -37.22)"/><path class="cls-1" d="M108.13,76.21a5.92,5.92,0,0,1,10-.5c.17.23.57,0,.39-.23a6.38,6.38,0,0,0-10.74.5c-.15.25.25.48.4.23Z" transform="translate(-25.21 -37.22)"/><path class="cls-2" d="M107.54,78.32a6.1,6.1,0,0,1,4.12-4.58,10.08,10.08,0,0,1,7.49.8c.27.12.5-.27.23-.4-2.46-1.15-5.38-1.77-8-.79a6.56,6.56,0,0,0-4.27,4.85c0,.29.39.41.44.12Z" transform="translate(-25.21 -37.22)"/><path class="cls-2" d="M121.29,79c-.46-1.8.84-3.15,2.31-4a9.85,9.85,0,0,1,5.84-1c.3,0,.3-.42,0-.46a10.2,10.2,0,0,0-6.33,1.27c-1.55.92-2.75,2.43-2.26,4.32a.23.23,0,0,0,.44-.12Z" transform="translate(-25.21 -37.22)"/><path class="cls-7" d="M113.13,69.77a12.39,12.39,0,0,1-7.54,4.14c-.68.11-.39,1.14.29,1a13.32,13.32,0,0,0,8-4.41C114.34,70,113.59,69.25,113.13,69.77Z" transform="translate(-25.21 -37.22)"/><path class="cls-1" d="M137.94,79.56a11.8,11.8,0,0,0-3.34-5.19,5.53,5.53,0,0,0-5.45-1c-.63.25-.36,1.29.28,1,3.77-1.54,6.33,2.5,7.48,5.45C137.15,80.48,138.19,80.21,137.94,79.56Z" transform="translate(-25.21 -37.22)"/><path class="cls-7" d="M134.8,73.84a12.19,12.19,0,0,1-9.14-3.28c-.5-.47-1.26.29-.76.76a13.27,13.27,0,0,0,9.9,3.59C135.48,74.86,135.49,73.79,134.8,73.84Z" transform="translate(-25.21 -37.22)"/><path class="cls-6" d="M102.41,41.78a.38.38,0,0,0,0-.39l-.06-.13h0v0a3,3,0,0,0-1-1.15l-.16-.29a.62.62,0,0,0-1,0l-.8,1.41a12,12,0,0,0-2.17-3.63,1.43,1.43,0,0,0-1.62-.19,1.17,1.17,0,0,0-.58.68,4.62,4.62,0,0,0-1,1.38c-.12-.34-.23-.68-.36-1a1.4,1.4,0,0,0-2.23-.54A9.26,9.26,0,0,0,89,41.08l-.45-.36-.09-.06,0-.06a.52.52,0,0,0-.18-.18c0-.06,0-.12,0-.18,0-.65-.92-.68-1.15-.15l0,0a1.84,1.84,0,0,0-.58,1.33l0,.1a.44.44,0,0,0,.2.56,1.48,1.48,0,0,0,.12.94l1.34,2.88.67,1.44a4.61,4.61,0,0,0,.73,1.25,2.29,2.29,0,0,0,3,.26c.69-.46,1-.89,1.75-.87s1.31.68,2,1a3.06,3.06,0,0,0,3.3-.32,6,6,0,0,0,.91-1.29l.81-1.33,1.61-2.67A1.12,1.12,0,0,0,102.41,41.78Z" transform="translate(-25.21 -37.22)"/><path class="cls-1" d="M103.92,45.94a1,1,0,0,0-.36-.21,1.81,1.81,0,0,0-1.86-.12.84.84,0,0,0-1.25-.66,3.78,3.78,0,0,0-1.67,2s0,0,0,0a5,5,0,0,0-.91,2,.82.82,0,0,0,0,.22L97.39,49a6.36,6.36,0,0,0-1.88-.45.85.85,0,0,0-.74-.49,2.83,2.83,0,0,0-1.16.13,5.66,5.66,0,0,0-1.59-.7,1,1,0,0,0-.24,0,2.23,2.23,0,0,0-.16-.43l-.17-1c-.19-1.07-1.8-.61-1.63.45l.07.42a.84.84,0,0,0,0,.44c-.29-.35-.57-.7-.83-1.07a5.22,5.22,0,0,1-.25-.59.85.85,0,0,0-.43-.48l-.08-.15c-.5-.89-1.68-.24-1.54.65a8.05,8.05,0,0,0,4.36,5.92,1,1,0,0,0,1-.16,3.11,3.11,0,0,0,1.72-.19,1,1,0,0,0,.45-.44,4.34,4.34,0,0,0,4.59.25l.19-.1a2.19,2.19,0,0,0,.74-.19A2.49,2.49,0,0,0,101,49.74a32.2,32.2,0,0,0,2.43-2.38.88.88,0,0,0,.46-.23.65.65,0,0,0,.17-.27.62.62,0,0,0,.07-.33A.87.87,0,0,0,103.92,45.94Z" transform="translate(-25.21 -37.22)"/><path class="cls-2" d="M92.76,82.35l1.08-1.61a.23.23,0,0,0-.08-.31.24.24,0,0,0-.32.08l-1.08,1.61a.23.23,0,0,0,.08.31.24.24,0,0,0,.32-.08Z" transform="translate(-25.21 -37.22)"/><path class="cls-2" d="M92.22,77.58a2.16,2.16,0,0,0,3-.6c.16-.25-.24-.48-.4-.23a1.68,1.68,0,0,1-2.33.43.23.23,0,0,0-.31.08.24.24,0,0,0,.08.32Z" transform="translate(-25.21 -37.22)"/><path class="cls-2" d="M91.64,73.26A2.14,2.14,0,0,0,94.78,73a1.75,1.75,0,0,0,.37-.95c0-.3-.44-.3-.46,0a1.65,1.65,0,0,1-2.73.89c-.19-.22-.52.11-.32.33Z" transform="translate(-25.21 -37.22)"/><path class="cls-2" d="M91.28,67.88a2,2,0,0,0,3.44-.33c.11-.27-.34-.39-.44-.12a1.54,1.54,0,0,1-2.61.22.23.23,0,0,0-.39.23Z" transform="translate(-25.21 -37.22)"/><path class="cls-2" d="M91.05,62.43a1.93,1.93,0,0,0,3.77,0c.06-.29-.38-.41-.45-.12a1.53,1.53,0,0,1-1.43,1.19,1.55,1.55,0,0,1-1.45-1.17c-.06-.29-.51-.17-.44.12Z" transform="translate(-25.21 -37.22)"/><path class="cls-2" d="M91.47,57.63a1.94,1.94,0,0,0,3.41.28c.14-.27-.26-.5-.39-.24a1.49,1.49,0,0,1-2.58-.16c-.09-.28-.54-.16-.44.12Z" transform="translate(-25.21 -37.22)"/><path class="cls-2" d="M92,54.66a1.84,1.84,0,0,0,2.62,1,1.41,1.41,0,0,0,.6-.63c.13-.26-.26-.49-.39-.23a1.35,1.35,0,0,1-2.39-.23.23.23,0,0,0-.44.12Z" transform="translate(-25.21 -37.22)"/><path class="cls-2" d="M90.41,47.54l-.3-2.07-.11.26c.76-.52,1.13.91,1.39,1.35a3.08,3.08,0,0,0,1.3,1,3.5,3.5,0,0,1,1.68,3.47l.45.06-.2-2.12a4.19,4.19,0,0,1-.09-.93c.07-.55.54-.43.88-.23.66.39,1.22,1.56,2.17,1,.74-.42.65-1.6,1.07-2.25a3,3,0,0,1,3.1-1.31l-.1-.39a10,10,0,0,0-2.57,4c-.09.28.35.4.44.12A9.44,9.44,0,0,1,102,45.73a.24.24,0,0,0-.1-.39,3.47,3.47,0,0,0-3,.77,3.35,3.35,0,0,0-.93,1.3c-.19.49-.23,1.78-1,1.57-.58-.14-.89-.87-1.43-1.13a1.18,1.18,0,0,0-1.08-.06c-.41.24-.36.71-.33,1.12.09.9.18,1.79.26,2.68,0,.23.42.34.45.06a4,4,0,0,0-1.74-3.9c-.45-.29-1-.42-1.28-.9a12,12,0,0,0-.56-1.14,1.1,1.1,0,0,0-1.46-.38.27.27,0,0,0-.11.26l.3,2.08c.05.29.49.16.45-.13Z" transform="translate(-25.21 -37.22)"/><path class="cls-2" d="M96.84,51.92a4.36,4.36,0,0,0,3-.62,6.81,6.81,0,0,0,1.87-2.12,5.77,5.77,0,0,1,.87-1.1,3.4,3.4,0,0,1,1.27-.61c.58-.2,1.55-.77.85-1.45a2.82,2.82,0,0,0-1.57-.53,4.43,4.43,0,0,0-2,.27c-.28.1-.16.54.12.44a4.18,4.18,0,0,1,1.89-.25c.3,0,1.84.34,1.15.83a6,6,0,0,1-1.24.47A3.17,3.17,0,0,0,102,48c-.64.73-1,1.65-1.72,2.34A3.9,3.9,0,0,1,97,51.48c-.29,0-.41.4-.12.44Z" transform="translate(-25.21 -37.22)"/><path class="cls-2" d="M90.4,48.13a3.27,3.27,0,0,0-1.14-2.44A2.84,2.84,0,0,0,86.73,45c-.49.18-.42.65-.23,1,.27.57.54,1.13.82,1.69A10.38,10.38,0,0,0,89,50.32,6.65,6.65,0,0,0,92.28,52a.23.23,0,0,0,.13-.44A6.23,6.23,0,0,1,89.33,50a10.74,10.74,0,0,1-1.73-2.8c-.14-.27-.27-.55-.41-.83s-.55-.84-.25-1a1.52,1.52,0,0,1,.79,0,2.66,2.66,0,0,1,.68.26,2.85,2.85,0,0,1,1.53,2.47.23.23,0,0,0,.46,0Z" transform="translate(-25.21 -37.22)"/><path class="cls-2" d="M92.15,83.18c.35-.27.94.07,1.29.2a2.57,2.57,0,0,0,1.23.16,2.87,2.87,0,0,0,2.09-1.2c.17-.25-.22-.48-.39-.23a2.43,2.43,0,0,1-2.15,1c-.8-.06-1.64-.83-2.4-.24-.23.19.1.51.33.33Z" transform="translate(-25.21 -37.22)"/><path class="cls-2" d="M93.33,81.09a5.43,5.43,0,0,1,2.84,1.33c.22.19.55-.13.33-.33a6.06,6.06,0,0,0-3-1.45.25.25,0,0,0-.28.17.24.24,0,0,0,.16.28Z" transform="translate(-25.21 -37.22)"/><path class="cls-2" d="M95.65,86.7a1.38,1.38,0,0,0,2.22-.64.23.23,0,0,0-.16-.28.21.21,0,0,0-.28.16.74.74,0,0,1-.22.38l0,0s0,0,0,0l-.12.07,0,0,0,0,0,0-.06,0-.12,0h0s0,0,0,0h-.29a.53.53,0,0,1-.12,0l-.06,0h0l-.11-.07s0,0,0,0L96,86.37c-.21-.21-.53.12-.32.33Z" transform="translate(-25.21 -37.22)"/><path class="cls-2" d="M97.59,89.6a1.31,1.31,0,0,0,2-.29,1,1,0,0,0,.15-.62.22.22,0,0,0-.23-.22.23.23,0,0,0-.23.22.38.38,0,0,1,0,.15c0-.06,0,0,0,0a.64.64,0,0,1,0,.07s0,.09,0,0l0,0-.08.12s0,0,0,0l0,.06,0,0s-.07.06,0,0l-.12.08-.07,0,0,0,0,0-.07,0-.15,0s0,0,0,0h-.26l-.07,0,0,0s0,0,0,0l0,0-.06,0s-.07-.06,0,0l-.11-.11a.23.23,0,0,0-.32,0,.25.25,0,0,0,0,.33Z" transform="translate(-25.21 -37.22)"/><path class="cls-2" d="M100.05,92.91a1.72,1.72,0,0,0,2.11-1.21.25.25,0,0,0-.16-.29.24.24,0,0,0-.29.16,1,1,0,0,1-.21.46s0,0,0,0l0,0-.11.1-.07.06-.12.07-.12.07-.1,0a1.22,1.22,0,0,1-.26.06h-.24l-.24,0c-.28-.09-.4.35-.12.44Z" transform="translate(-25.21 -37.22)"/><path class="cls-2" d="M102.36,95a1.21,1.21,0,0,0,1.13-.21,1.87,1.87,0,0,0,.59-1,3.05,3.05,0,0,0,.08-.74.24.24,0,0,0-.23-.22.22.22,0,0,0-.23.22,2,2,0,0,1-.33,1.22l0,0h0l-.06.06a.94.94,0,0,1-.1.1s0,0,0,0l-.07,0,0,0h0l-.13,0h-.21l-.19,0a.23.23,0,0,0-.12.44Z" transform="translate(-25.21 -37.22)"/><path class="cls-2" d="M105.52,96.25a2.09,2.09,0,0,0-.07-3c-.22-.19-.54.13-.32.33a1.62,1.62,0,0,1,.06,2.34c-.21.21.11.53.33.33Z" transform="translate(-25.21 -37.22)"/><path class="cls-2" d="M90.49,91a1.38,1.38,0,0,0,2.3,0,.23.23,0,0,0-.4-.23l0,0,0,0a.43.43,0,0,1-.09.1l0,0s0,0,0,0a.41.41,0,0,1-.11.07l0,0s0,0,0,0l-.12,0H91.8s-.06,0,0,0h-.3l-.06,0-.12,0-.06,0h0L91.1,91s0,0,0,0,0,0,0,0l-.09-.09h0v0l-.05-.07a.23.23,0,0,0-.39.23Z" transform="translate(-25.21 -37.22)"/><path class="cls-2" d="M91.1,87.74a1.83,1.83,0,0,0,2.47-.22.23.23,0,0,0,0-.32.24.24,0,0,0-.33,0,1.35,1.35,0,0,1-1.81.22.24.24,0,0,0-.33,0,.23.23,0,0,0,0,.32Z" transform="translate(-25.21 -37.22)"/><path class="cls-2" d="M91.63,84.8a2.42,2.42,0,0,0,2.68.32c.26-.13,0-.53-.24-.39A1.92,1.92,0,0,1,92,84.48c-.22-.2-.55.13-.33.32Z" transform="translate(-25.21 -37.22)"/><path class="cls-2" d="M88,97.22a4,4,0,0,1,2-4.07c.26-.14,0-.54-.23-.4a4.47,4.47,0,0,0-2.21,4.59c0,.29.49.17.44-.12Z" transform="translate(-25.21 -37.22)"/><path class="cls-2" d="M92.22,52.07a3.63,3.63,0,0,0,4,.08c.25-.16,0-.56-.23-.4a3.19,3.19,0,0,1-3.54-.07c-.24-.17-.47.23-.23.39Z" transform="translate(-25.21 -37.22)"/><path class="cls-2" d="M89.69,92.6a2.47,2.47,0,0,0,.86,3.33.23.23,0,0,0,.24-.4,2,2,0,0,1-.71-2.7.23.23,0,1,0-.39-.23Z" transform="translate(-25.21 -37.22)"/><path class="cls-2" d="M27.27,72a2,2,0,0,0-.87-.9c-.29-.19-.91-.6-.7-1s1-.27,1.38-.21a3.55,3.55,0,0,1,1.45.63c.24.17.46-.22.23-.4a1.08,1.08,0,0,1-.3-1.34l-.26.1A3.81,3.81,0,0,1,30.5,73c-.06.29.38.42.44.13a4.28,4.28,0,0,0-2.61-4.77.22.22,0,0,0-.26.1,1.56,1.56,0,0,0,.46,2l.23-.4a3.8,3.8,0,0,0-1.77-.7,1.87,1.87,0,0,0-1.58.29A1,1,0,0,0,25.55,71c.36.42,1.05.58,1.27,1.11.12.27.56.15.45-.12Z" transform="translate(-25.21 -37.22)"/><path class="cls-2" d="M26.85,72.51c-.81-.42-1.53.59-1.35,1.34.24,1,1.48,1.14,2.3,1.15a3.42,3.42,0,0,1,1.82.32c.25.16.48-.24.23-.39-1-.61-2.13-.19-3.16-.55-.38-.13-.82-.44-.76-.89,0-.29.34-.76.68-.58s.5-.26.24-.4Z" transform="translate(-25.21 -37.22)"/><path class="cls-2" d="M28.48,74.39c7.13,9.53,12.35,20.38,20.19,29.38.19.23.52-.1.33-.32-7.82-9-13-19.8-20.12-29.29-.18-.23-.58,0-.4.23Z" transform="translate(-25.21 -37.22)"/><path class="cls-2" d="M30.14,73.56C37.6,81.8,42,92.26,49.47,100.5c.19.22.52-.1.32-.32-7.44-8.25-11.86-18.71-19.33-26.94-.2-.22-.52.1-.32.32Z" transform="translate(-25.21 -37.22)"/><path class="cls-2" d="M145.47,96.5c4.77-2.77,7.4-7.75,10.59-12a58.75,58.75,0,0,1,13.62-13.13c.24-.16,0-.56-.23-.39a59.34,59.34,0,0,0-13,12.23c-3.5,4.48-6.16,10-11.23,12.93a.23.23,0,0,0,.23.4Z" transform="translate(-25.21 -37.22)"/><path class="cls-2" d="M146.17,98c10.91-6,14.45-20.37,26.25-25.15.27-.11.16-.55-.12-.44-11.89,4.81-15.41,19.14-26.36,25.19a.23.23,0,0,0,.23.4Z" transform="translate(-25.21 -37.22)"/><path class="cls-2" d="M83.09,123.05a196.07,196.07,0,0,0-24.62,6.5c-1.48.49-.85,2.86.65,2.36a197.8,197.8,0,0,1,24.62-6.5C85.29,125.1,84.63,122.74,83.09,123.05Z" transform="translate(-25.21 -37.22)"/></svg>