<svg id="Camada_1" data-name="Camada 1" xmlns="http://www.w3.org/2000/svg" viewBox="0 0 162.55 136.54"><defs><style>.cls-1{fill:#d966a3;}.cls-2{fill:#d15e9f;}.cls-3{fill:#9f1870;}.cls-4{fill:#d7c1d0;}.cls-5{fill:#150a12;}.cls-6{fill:#f5edf2;}.cls-7{fill:#100f10;}</style></defs><title>Cérebro Triste II</title><path class="cls-1" d="M74.73,135.43a27.75,27.75,0,0,1-2.47-2.5l-.26-.3c-.15-.19-.34-.6.07.1-.14-.24-.33-.46-.48-.7a9.94,9.94,0,0,1-.82-1.5l.29.7a6.92,6.92,0,0,1-.49-1.78l.1.78a6.74,6.74,0,0,1,0-1.27l-.1.77a5.76,5.76,0,0,1,.22-1,2.94,2.94,0,0,0-2-3.59,3,3,0,0,0-3.59,2c-1.55,4.92,2,9.3,5.44,12.38a2.92,2.92,0,0,0,4.13-4.13Z" transform="translate(-16.06 -18.56)"/><path class="cls-1" d="M71.43,125.15a12.45,12.45,0,0,1-2.39-.73l.69.29A12.56,12.56,0,0,1,67,123.1l.59.46a12.17,12.17,0,0,1-2.06-2.06l.45.59c-.19-.25-.36-.5-.53-.76A3.14,3.14,0,0,0,63.69,120a3,3,0,0,0-2.25.3,3,3,0,0,0-1,4,15.1,15.1,0,0,0,9.48,6.51,3.17,3.17,0,0,0,2.26-.3,3,3,0,0,0,1.34-1.74,2.94,2.94,0,0,0-.3-2.25,2.87,2.87,0,0,0-1.74-1.35Z" transform="translate(-16.06 -18.56)"/><path class="cls-1" d="M65.63,119.08a9.18,9.18,0,0,1-1.39-.08l.78.11a9,9,0,0,1-2.16-.61l.7.3a9.79,9.79,0,0,1-2-1.2l.59.46a9.54,9.54,0,0,1-1.65-1.65l.46.59a9.58,9.58,0,0,1-1.11-1.88l.3.7a8.08,8.08,0,0,1-.54-2l.1.78a8,8,0,0,1-.06-1,2.92,2.92,0,1,0-5.84,0c0,6.2,5.7,11.42,11.84,11.27a2.92,2.92,0,0,0,0-5.84Z" transform="translate(-16.06 -18.56)"/><path class="cls-1" d="M66.18,111a14.85,14.85,0,0,1-5.74-.87c-1-.26-2-.5-3-.81-.15,0-.58-.32-.21-.08-.28-.18-.13-.19,0,0s.26.57.15.22-.13-.44-.19-.67c-.23-1-.41-1.94-.58-2.91s-.31-1.86-.41-2.72c-.25-2.18-.38-4.37-.42-6.56a2.92,2.92,0,0,0-5.84,0A67.62,67.62,0,0,0,50.4,104c.18,1.38.38,2.75.63,4.11a17.1,17.1,0,0,0,.81,3.3,5.8,5.8,0,0,0,3.38,3.34,28.92,28.92,0,0,0,3.33,1c2.48.66,5,1.41,7.63,1.17A3,3,0,0,0,69.1,114,3,3,0,0,0,66.18,111Z" transform="translate(-16.06 -18.56)"/><path class="cls-1" d="M51.77,88.31a9.39,9.39,0,0,0,.56,11.45,9.61,9.61,0,0,0,4.89,3,16.92,16.92,0,0,0,3.1.35c.58,0,1,0,1.43.36s1,1.48,1.44,2.06A12.31,12.31,0,0,0,65,107.36a17.77,17.77,0,0,0,5.3,2.9c4.06,1.44,8.53,1.35,12.77,1,3.86-.3,8.39-1.17,11.75,1.23a2.94,2.94,0,0,0,4-1.05,3,3,0,0,0-1-4c-6.32-4.52-14.89-1.24-22-1.94a12.35,12.35,0,0,1-8-3.55c-1.14-1.27-1.77-2.88-3.34-3.78s-3.54-.72-5.34-1c-3-.46-4.06-3.47-2.31-5.94a2.94,2.94,0,0,0-1.05-4,3,3,0,0,0-4,1Z" transform="translate(-16.06 -18.56)"/><path class="cls-1" d="M70.61,130.08a12.86,12.86,0,0,0,8.31-2.41,3.23,3.23,0,0,0,1.35-1.75,3,3,0,0,0-.3-2.25,3,3,0,0,0-1.75-1.34,2.86,2.86,0,0,0-2.25.29,10.12,10.12,0,0,1-2.16,1.25l.7-.3a11,11,0,0,1-2.63.72l.77-.11a9.93,9.93,0,0,1-2,.06,3,3,0,0,0-2.06.85,3,3,0,0,0-.86,2.07,2.92,2.92,0,0,0,.86,2.07,3.24,3.24,0,0,0,2.06.85Z" transform="translate(-16.06 -18.56)"/><path class="cls-1" d="M74.47,126.06c4.33,3.35,10.89,2.27,15.78.92a9.69,9.69,0,0,0,4-2.06,10.21,10.21,0,0,0,2.43-3.86c1.19-2.88,2.32-5.78,3.48-8.68a2.94,2.94,0,0,0-2-3.59,3,3,0,0,0-3.6,2l-2.92,7.3c-.23.57-.37,1-.53,1.28s-.24.48-.38.72c0,.06-.38.52-.21.32a3.72,3.72,0,0,1-2.09,1,27.42,27.42,0,0,1-5.91.95,6.69,6.69,0,0,1-5-1.36c-1.25-1-3.27-.19-4,1a3,3,0,0,0,1,4Z" transform="translate(-16.06 -18.56)"/><path class="cls-1" d="M54.77,92.91a39.9,39.9,0,0,1,7.35-10.42,103,103,0,0,1,9.79-9.7c1.66-1.37,3.54-2.41,5.25-3.7s3.19-3.15,4.87-4.65A23.62,23.62,0,0,1,87.11,61a6.74,6.74,0,0,1,2.59-.94c.42,0,.41,0,.71.16,0,0-.21-.14-.21-.23-.14,3.76,5.7,3.75,5.84,0a5.53,5.53,0,0,0-3.32-5.14c-2.3-1.07-4.77-.59-7,.38a29.46,29.46,0,0,0-9.86,7.11,22,22,0,0,1-4.28,3.48,44,44,0,0,0-5.13,4,124.13,124.13,0,0,0-8.75,8.87,44,44,0,0,0-8,11.28,3,3,0,0,0,1.05,4,3,3,0,0,0,4-1Z" transform="translate(-16.06 -18.56)"/><path class="cls-1" d="M66.26,85l.83-2.4a2.18,2.18,0,0,0,0-1.16,2.15,2.15,0,0,0-.34-1.09,2.3,2.3,0,0,0-.76-.82,2.15,2.15,0,0,0-1-.52l-.78-.11a3.06,3.06,0,0,0-1.47.4l-.59.46a2.9,2.9,0,0,0-.75,1.29l-.83,2.4a3.2,3.2,0,0,0,.29,2.25,2.37,2.37,0,0,0,.75.82,2.34,2.34,0,0,0,1,.52l.77.1a2.86,2.86,0,0,0,1.48-.4l.59-.45A3,3,0,0,0,66.26,85Z" transform="translate(-16.06 -18.56)"/><path class="cls-1" d="M69,79.54c0-.08,0-.15,0-.23l.11.78a3.22,3.22,0,0,1,0-1l-.11.78a3.81,3.81,0,0,1,.28-1l-.3.69a4.9,4.9,0,0,1,.53-.91l-.45.59a4.27,4.27,0,0,1,.7-.71l-.59.46a4.56,4.56,0,0,1,.39-.27A3,3,0,0,0,70.9,77,2.19,2.19,0,0,0,71,75.83a2.23,2.23,0,0,0-.35-1.09,3,3,0,0,0-1.75-1.34,3,3,0,0,0-2.25.29A6.44,6.44,0,0,0,65.07,75a6.79,6.79,0,0,0-1.1,1.6,10.65,10.65,0,0,0-.48,1.22,8.94,8.94,0,0,0-.23,1.34,6.27,6.27,0,0,0,.15,2,2.24,2.24,0,0,0,.52,1,2.28,2.28,0,0,0,.82.75,2.23,2.23,0,0,0,1.09.35A2.19,2.19,0,0,0,67,83.13a2.91,2.91,0,0,0,1.75-1.34l.29-.7a2.91,2.91,0,0,0,0-1.55Z" transform="translate(-16.06 -18.56)"/><path class="cls-1" d="M67.79,89.19c4.61.27,7.08-4.49,9-7.92,2.13-3.88,3.86-8,4-12.53a2.92,2.92,0,0,0-5.84,0c0,.41,0,.81-.07,1.22-.08,1,.06-.26,0,.28,0,.2-.07.4-.11.6A21.58,21.58,0,0,1,74,73.35c-.13.39-.28.77-.43,1.16,0,.08-.17.44-.06.16-.1.24-.2.48-.31.71-.37.81-.78,1.61-1.2,2.39A44,44,0,0,1,69.53,82c-.06.09-.42.56-.08.14-.11.14-.22.27-.34.4a8.16,8.16,0,0,1-.73.71c.2-.17.22-.19,0,0-.42.3.22,0-.06.06-.07,0-.57.14-.19.08s-.29,0-.34,0a2.94,2.94,0,0,0-2.92,2.92,3,3,0,0,0,2.92,2.92Z" transform="translate(-16.06 -18.56)"/><path class="cls-1" d="M74.29,83a12.58,12.58,0,0,0,5.76,1.4,3,3,0,0,0,2.07-.85,2.92,2.92,0,0,0,0-4.14,3,3,0,0,0-2.07-.85,8.86,8.86,0,0,1-1.25-.09l.78.11A10.24,10.24,0,0,1,77,77.87l.7.29-.49-.22a3.28,3.28,0,0,0-2.25-.3,2.93,2.93,0,0,0-2,3.6A2.91,2.91,0,0,0,74.29,83Z" transform="translate(-16.06 -18.56)"/><path class="cls-1" d="M82.41,78.89a10.08,10.08,0,0,1,.7-1l-.46.6a9,9,0,0,1,1.63-1.64l-.59.46A9.62,9.62,0,0,1,85.77,76l-.7.29.42-.16a2.25,2.25,0,0,0,1-.52,2.3,2.3,0,0,0,.76-.82,2.94,2.94,0,0,0-1-4,2.91,2.91,0,0,0-2.25-.3,14.19,14.19,0,0,0-2.14,1,13.63,13.63,0,0,0-1.91,1.38A11.2,11.2,0,0,0,77.36,76a3.09,3.09,0,0,0-.29,2.25,3,3,0,0,0,1.34,1.74,3,3,0,0,0,2.25.3,3,3,0,0,0,1.75-1.35Z" transform="translate(-16.06 -18.56)"/><path class="cls-1" d="M81.85,68a8.94,8.94,0,0,0,.44,5,11.52,11.52,0,0,0,2.9,4.23c2.48,2.23,5.6,3.38,8.71,4.47a3,3,0,0,0,3.59-2,3,3,0,0,0-2-3.6l-1.66-.59L93,75.18,92.63,75c-.48-.19.47.2.13,0a17.85,17.85,0,0,1-3-1.61,2.83,2.83,0,0,0-.28-.2c.62.36.29.23.12.09s-.4-.35-.59-.54a7.68,7.68,0,0,1-.55-.59c-.14-.16-.33-.51.11.16l-.19-.26c-.15-.22-.29-.44-.42-.67s-.41-1-.12-.15a9.67,9.67,0,0,1-.41-1.49l.11.77a6.1,6.1,0,0,1,0-1.54l-.11.78.06-.31a3.14,3.14,0,0,0-.3-2.25,3,3,0,0,0-1.75-1.35c-1.42-.32-3.3.43-3.59,2Z" transform="translate(-16.06 -18.56)"/><path class="cls-1" d="M85.66,69.61A4.89,4.89,0,0,1,91,70.77c1.84,1.73,2.57,4.27,3.11,6.66a117.2,117.2,0,0,1,2.59,19.12,3,3,0,0,0,2.92,2.92,2.94,2.94,0,0,0,2.92-2.92q-.36-5.91-1.21-11.78a72.7,72.7,0,0,0-2.1-10.87,15.59,15.59,0,0,0-5.65-8.51A10.37,10.37,0,0,0,84.11,64a3,3,0,0,0-2,3.6,2.93,2.93,0,0,0,3.59,2Z" transform="translate(-16.06 -18.56)"/><path class="cls-1" d="M96.69,67.84a10.81,10.81,0,0,0-.37-4.31A12.12,12.12,0,0,0,94,59.19a2.91,2.91,0,0,0-4.13,0A2.87,2.87,0,0,0,89,61.25l.1.78a2.88,2.88,0,0,0,.76,1.29l.13.17-.46-.59a8.52,8.52,0,0,1,1.1,1.86l-.29-.7A9.46,9.46,0,0,1,91,66.35l-.1-.78a9.08,9.08,0,0,1,0,2.27,2.87,2.87,0,0,0,.86,2.06,2.91,2.91,0,0,0,4.13,0l.46-.59a3,3,0,0,0,.4-1.47Z" transform="translate(-16.06 -18.56)"/><path class="cls-1" d="M69.07,93.59a7.88,7.88,0,0,1,1.75,0l-.77-.1a7.48,7.48,0,0,1,2,.54l-.7-.3c.21.09.41.19.61.3a3.09,3.09,0,0,0,2.25.29A3,3,0,0,0,75.93,93a2.94,2.94,0,0,0-1.05-4,10.32,10.32,0,0,0-2.79-1,11,11,0,0,0-3-.24,2.19,2.19,0,0,0-1.13.26,2.06,2.06,0,0,0-.94.6,2.91,2.91,0,0,0,0,4.13,2.88,2.88,0,0,0,2.07.86Z" transform="translate(-16.06 -18.56)"/><path class="cls-1" d="M77.66,95.39c-.2-.1-.38-.21-.58-.33-.38-.24.57.51.26.19a2.39,2.39,0,0,1-.23-.22c-.07-.07-.13-.17-.2-.24.09.09.48.68.21.25a3.6,3.6,0,0,1-.29-.55l.29.7A5.83,5.83,0,0,1,76.78,94l.11.78a5.67,5.67,0,0,1,0-1.54l-.11.77a7,7,0,0,1,.39-1.41l-.29.7a5.26,5.26,0,0,1,.44-.85c.07-.13.41-.58.06-.13s0,0,.15-.13l.33-.31c.26-.24-.26.22-.29.22s.18-.13.24-.16A6.93,6.93,0,0,1,79,91.28l-.7.29a8.55,8.55,0,0,1,1.94-.52l-.78.1a10.6,10.6,0,0,1,2.64,0l-.78-.1a11.81,11.81,0,0,1,2.85.78l-.7-.3.79.37a2.92,2.92,0,0,0,3-5c-3.65-1.84-8.12-2.33-11.81-.32a8.6,8.6,0,0,0-4.16,9.29,6.72,6.72,0,0,0,3.51,4.6,3.11,3.11,0,0,0,2.25.3,3,3,0,0,0,1.75-1.34,3,3,0,0,0-1-4Z" transform="translate(-16.06 -18.56)"/><path class="cls-1" d="M77.85,96.31a22.69,22.69,0,0,0,20.69,3.18A2.92,2.92,0,0,0,97,93.85a19.3,19.3,0,0,1-2.22.63c-.37.09-.75.15-1.13.22h-.08l-.57.06a22.15,22.15,0,0,1-2.3.06c-.39,0-.77,0-1.15-.06L89,94.71c.42,0,0,0-.22,0a21.13,21.13,0,0,1-2.23-.5c-.37-.1-.73-.22-1.09-.34l-.54-.19-.3-.12c.24.1-.26-.12-.3-.14s-.35-.16-.51-.25c-.34-.17-.67-.35-1-.54a18.6,18.6,0,0,1-2-1.34,2.93,2.93,0,0,0-4,1,3,3,0,0,0,1,4Z" transform="translate(-16.06 -18.56)"/><path class="cls-1" d="M95.29,98.65l4,8.67s.53.92.31.71a1.34,1.34,0,0,1,.42-1.54c.36-.31.38-.36.06-.16.36-.16.39-.1.78-.08-.33-.1-.41-.12-.25-.06s.09,0-.21-.14-.56-.44-1-.83-1.27-1-1.93-1.5a24.89,24.89,0,0,0-16-4.32,3,3,0,0,0-2.92,2.92,2.94,2.94,0,0,0,2.92,2.92,19.72,19.72,0,0,1,8.77,1.21,19.25,19.25,0,0,1,3.87,2c1.18.79,2.15,1.91,3.52,2.7a5.5,5.5,0,0,0,5.44.2,4.37,4.37,0,0,0,2.15-5.07,17.4,17.4,0,0,0-1.2-2.69L102.79,101l-2.46-5.27a2.94,2.94,0,0,0-4-1,3,3,0,0,0-1,4Z" transform="translate(-16.06 -18.56)"/><path class="cls-1" d="M107.16,96.11q-2.1-5.7-4.21-11.41c-1.12-3.06-1.93-6,.4-8.68a3,3,0,0,0,0-4.14,3,3,0,0,0-4.13,0,12.71,12.71,0,0,0-2.46,12.78c1.42,4.39,3.18,8.68,4.77,13a3,3,0,0,0,3.59,2,2.93,2.93,0,0,0,2-3.59Z" transform="translate(-16.06 -18.56)"/><path class="cls-1" d="M102.47,74.64c-1.52-2.86-1.21-5.65-1-8.84a16.64,16.64,0,0,0-.25-4.62,9.22,9.22,0,0,0-.92-2.44c-.17-.32-.39-.61-.59-.91a3,3,0,0,1-.25-.37,1.41,1.41,0,0,1,0,1.31c-.17.19-.13.15.12-.11l-.08.07a2.48,2.48,0,0,1,.85-.39,5.22,5.22,0,0,1,1.81-.31,13.68,13.68,0,0,1,4.37.68c3.44,1,6.78,2.36,10.14,3.57a2.94,2.94,0,0,0,3.59-2,3,3,0,0,0-2-3.59c-3.79-1.37-7.61-3-11.55-3.94s-9.63-1-12.09,2.87a4.56,4.56,0,0,0-.64,3.59,9.19,9.19,0,0,0,1.36,2.52c.15.32.18.37.08.15a5.76,5.76,0,0,1,.18.59c0,.2.09.4.13.61,0-.26,0-.21,0,.16a25.06,25.06,0,0,1,0,2.6,31.42,31.42,0,0,0-.16,5.4,16.87,16.87,0,0,0,2,6.38,2.92,2.92,0,1,0,5-2.94Z" transform="translate(-16.06 -18.56)"/><path class="cls-1" d="M106.9,72a7.7,7.7,0,0,0,1.31-1.11,8.08,8.08,0,0,0,1-1.37,7.31,7.31,0,0,0,.9-3.27,2.11,2.11,0,0,0-.25-1.13,2.2,2.2,0,0,0-.6-.94,2.3,2.3,0,0,0-.94-.6,2.18,2.18,0,0,0-1.13-.25l-.77.1a2.9,2.9,0,0,0-1.29.75l-.46.6a2.9,2.9,0,0,0-.4,1.47,1.87,1.87,0,0,1,0,.34l.11-.77a4.31,4.31,0,0,1-.29,1l.3-.7a4.32,4.32,0,0,1-.56,1l.46-.59a4.86,4.86,0,0,1-.78.79l.59-.46-.12.09a2.12,2.12,0,0,0-.82.75,2.2,2.2,0,0,0-.53,1,3.28,3.28,0,0,0,.3,2.25,3,3,0,0,0,1.74,1.34l.78.1A2.89,2.89,0,0,0,106.9,72Z" transform="translate(-16.06 -18.56)"/><path class="cls-1" d="M105.77,68.77l3.8,1.65a2.15,2.15,0,0,0,1.09.34,3,3,0,0,0,2.91-1.39,2.91,2.91,0,0,0,.29-2.25l-.29-.7a2.94,2.94,0,0,0-1-1l-3.8-1.65a2.15,2.15,0,0,0-1.09-.34,2.18,2.18,0,0,0-1.16,0,2.24,2.24,0,0,0-1,.52,2.37,2.37,0,0,0-.75.82,2.91,2.91,0,0,0-.29,2.25l.29.7a2.94,2.94,0,0,0,1,1Z" transform="translate(-16.06 -18.56)"/><path class="cls-1" d="M109.55,62.37a2.47,2.47,0,0,0,.46.15l-.26-.11.14.08c.14.07.27.16.41.24.48.27-.46-.43-.09-.07l.35.32.21.23-.26-.34c.22.22.28.57.48.8-.19-.47-.23-.55-.12-.25l0,.16c.06.16.1.33.15.49.09.33.18.65.3,1a6,6,0,0,0,1.93,2.72c2.74,2.11,6.43,1,9.21-.43a3,3,0,0,0,1-4,3,3,0,0,0-4-1c-.08,0-.81.37-.8.38s.78-.31.13-.06l-.36.13a7.53,7.53,0,0,1-.81.24,3.13,3.13,0,0,1-.44.1c-.31.06-.57,0,.2,0-.25,0-.52,0-.77,0-.57,0,.32,0,.31.05a2.85,2.85,0,0,1-.38-.09c-.2-.07-.16,0,.11.06s.31.14.12,0l-.11-.06c-.25-.16-.15-.08.27.24a1.67,1.67,0,0,0-.23-.23c-.15-.16-.07-.06.22.29a2.39,2.39,0,0,1-.13-.21c-.24-.44,0,0,.06.16a3,3,0,0,0-.16-.48c-.08-.3-.16-.61-.26-.9a7.52,7.52,0,0,0-1.07-2.16,8.24,8.24,0,0,0-4.36-3,2.92,2.92,0,0,0-1.55,5.63Z" transform="translate(-16.06 -18.56)"/><path class="cls-1" d="M116.78,62.74c.31.11.63.28,1,.36-.74-.19-.31-.13-.07,0l.46.22a18,18,0,0,1,1.76,1q.44.27.84.57c.13.09.26.21.4.3-.19-.12-.48-.39-.13-.1a19.22,19.22,0,0,1,1.49,1.36,17.29,17.29,0,0,1,1.27,1.43c.39.47-.4-.56,0-.06l.29.4c.19.28.37.56.55.84a16.26,16.26,0,0,1,.93,1.75c.1.2.24.72,0-.09,0,.13.1.25.15.38.13.34.24.68.35,1a2.92,2.92,0,0,0,5.64-1.55,21.12,21.12,0,0,0-13.26-13.43,2.93,2.93,0,0,0-3.59,2,3,3,0,0,0,2,3.59Z" transform="translate(-16.06 -18.56)"/><path class="cls-1" d="M126.78,66.59c.56-.7-.53.12-.54.16-.25,0-.18,0,.19.06l.32.11a17,17,0,0,1,1.58,1,43,43,0,0,1,3.86,2.88,33.46,33.46,0,0,1,6.66,7.39,75.29,75.29,0,0,1,5,9.46c1.15,2.48,2.85,6,1.58,8.7a3,3,0,0,0,1.05,4,3,3,0,0,0,4-1c2.17-4.69.8-9.32-1.22-13.8a69.12,69.12,0,0,0-6.06-11.36,41.81,41.81,0,0,0-9.08-9.27c-2.81-2.14-8.25-6.4-11.42-2.42a3,3,0,0,0,0,4.13c1,1,3.15,1.24,4.13,0Z" transform="translate(-16.06 -18.56)"/><path class="cls-1" d="M115,110.86c-.06.69,0,0,0-.18s.14-.45.21-.67c-.2.62,0,0,.11-.16s.25-.4.39-.6c-.28.42,0,0,.15-.16s.28-.3.43-.44.38-.34.57-.5-.33.21.11-.1a20.78,20.78,0,0,1,2.74-1.59c.24-.12.48-.23.73-.33-.38.17-.06,0,.15-.06.48-.2,1-.37,1.46-.56,4.11-1.52,8.77-3.34,10.79-7.57a3,3,0,0,0-1-4,3,3,0,0,0-4,1,7.94,7.94,0,0,1-.76,1.29c.38-.51-.08.06-.18.17s-.35.35-.53.51-.6.48-.2.18l-.63.44c-.44.28-.9.54-1.36.78s-1,.46-1.45.68c.53-.23-.19.08-.3.12l-.75.29c-1,.4-2.07.76-3.08,1.18-4.56,1.89-9,4.91-9.43,10.23a2.93,2.93,0,0,0,2.92,2.92,3,3,0,0,0,2.92-2.92Z" transform="translate(-16.06 -18.56)"/><path class="cls-1" d="M128.24,99.2a5.81,5.81,0,0,0,2.34,1.27,6.76,6.76,0,0,0,2.76,0,7.35,7.35,0,0,0,3.72-1.93c2.26-2.11,2.62-5.37,2.75-8.29a2.94,2.94,0,0,0-2.92-2.92A3,3,0,0,0,134,90.3c0,.76-.08,1.51-.18,2.26l.11-.78a9.33,9.33,0,0,1-.59,2.28l.29-.7a5.79,5.79,0,0,1-.71,1.23l.46-.59a4.62,4.62,0,0,1-.78.75l.6-.45a5.35,5.35,0,0,1-1,.59l.7-.29a4.71,4.71,0,0,1-1,.28l.77-.1a3.78,3.78,0,0,1-.95,0l.78.11a3.46,3.46,0,0,1-.65-.18l.69.29a2.91,2.91,0,0,1-.59-.34l.6.46-.07-.06a3.2,3.2,0,0,0-2.07-.85,3,3,0,0,0-2.06.85,2.9,2.9,0,0,0-.86,2.07,2.81,2.81,0,0,0,.86,2.07Z" transform="translate(-16.06 -18.56)"/><path class="cls-1" d="M138.06,92.45a8.34,8.34,0,0,0,2-.14,5.19,5.19,0,0,0,1.27-.34,8.73,8.73,0,0,0,1.76-.87,8.45,8.45,0,0,0,1.51-1.29,3.12,3.12,0,0,0,.86-2.06,3,3,0,0,0-.86-2.07,2.93,2.93,0,0,0-2.07-.85,2.89,2.89,0,0,0-2.06.85,5.47,5.47,0,0,1-.7.66l.59-.45a5.64,5.64,0,0,1-1.19.7l.7-.3a5.31,5.31,0,0,1-1.4.39l.77-.1a5.72,5.72,0,0,1-1.17,0,2.11,2.11,0,0,0-1.13.25,2.3,2.3,0,0,0-.94.6,3,3,0,0,0-.85,2.07,2.93,2.93,0,0,0,.85,2.06l.59.46a3,3,0,0,0,1.48.4Z" transform="translate(-16.06 -18.56)"/><path class="cls-1" d="M107.42,106.5a33.27,33.27,0,0,1-.88-3.54c0-.21,0-.21,0,0l0-.31c0-.32,0-.63,0-1s0-.63,0-1c0,.66,0,0,0-.17a5.66,5.66,0,0,1,.15-.59c0-.09.31-.78.15-.45s.14-.24.18-.31.25-.41.39-.61c-.36.52.09-.06.17-.15s.67-.5.15-.16c.17-.11.36-.19.52-.31s.14-.08-.09,0l.42-.13c.23-.07.47-.12.71-.17.92-.2-.53,0,.4-.07.71-.09,1.41-.16,2.11-.27a13.23,13.23,0,0,0,3-.84,16.07,16.07,0,0,0,5.9-4,2.92,2.92,0,1,0-4.13-4.13c-.39.44-.84.81-1.26,1.22-.15.13-.13.12.07,0l-.33.24-.68.45a13,13,0,0,1-1.57.82c.47-.2-.2.06-.32.1l-.78.24c-.26.08-.53.14-.8.2,0,0-.87.15-.35.07-.75.11-1.5.17-2.25.29a8.42,8.42,0,0,0-3.65,1.35,9.49,9.49,0,0,0-3.87,6.16,19.25,19.25,0,0,0,1,8.57,2.92,2.92,0,1,0,5.63-1.56Z" transform="translate(-16.06 -18.56)"/><path class="cls-1" d="M106.93,90a24.23,24.23,0,0,0,4.34-.2,8.7,8.7,0,0,0,3.78-1.42,8.2,8.2,0,0,0,3-3.78,5.59,5.59,0,0,0,.36-2.06,6.07,6.07,0,0,0-.67-2.64A3,3,0,0,0,116,78.51a3,3,0,0,0-2.25.3,2.93,2.93,0,0,0-1.35,1.74,3.32,3.32,0,0,0,.3,2.25l0,.1-.3-.69a2.74,2.74,0,0,1,.2.73l-.1-.77a3.76,3.76,0,0,1,0,.75l.1-.78a3.64,3.64,0,0,1-.23.86l.3-.7a4.74,4.74,0,0,1-.58,1l.46-.59a5.72,5.72,0,0,1-.91.93l.59-.46a6.07,6.07,0,0,1-1.18.69l.7-.3a8.54,8.54,0,0,1-2,.54l.78-.1a23.66,23.66,0,0,1-3.57.1,2.92,2.92,0,0,0,0,5.84Z" transform="translate(-16.06 -18.56)"/><path class="cls-1" d="M117.83,86.33a6.71,6.71,0,0,1,1.7-.47l-.78.1a7.87,7.87,0,0,1,2,0l-.78-.1a8.07,8.07,0,0,1,2,.55l-.7-.3a8.8,8.8,0,0,1,1.1.57c.18.11.34.24.51.35-.84-.54-.2-.16,0,0s.29.28.43.43l.2.23c.28.33-.38-.54-.2-.26a9.26,9.26,0,0,1,.62,1.11l-.29-.7c0,.11.09.22.13.34A3.14,3.14,0,0,0,125.18,90a3,3,0,0,0,2.25.3,3,3,0,0,0,2-3.6,9.86,9.86,0,0,0-5.55-5.75,10.06,10.06,0,0,0-7.64-.22A3.23,3.23,0,0,0,114.53,82a2.92,2.92,0,0,0,1,4,2.84,2.84,0,0,0,2.25.3Z" transform="translate(-16.06 -18.56)"/><path class="cls-1" d="M124.83,87.28a8.56,8.56,0,0,0,2.25-.33,8.73,8.73,0,0,0,3.81-2.35,7.59,7.59,0,0,0,1.28-1.84,2.19,2.19,0,0,0,.35-1.08,2.33,2.33,0,0,0-.06-1.17,2.93,2.93,0,0,0-3.59-2,2.87,2.87,0,0,0-1.75,1.35,5.44,5.44,0,0,1-.57,1l.45-.59a5.57,5.57,0,0,1-.94.94l.59-.46a5.57,5.57,0,0,1-1.29.75l.7-.29a5.34,5.34,0,0,1-1.37.37l.78-.1a4.49,4.49,0,0,1-.64,0,2.94,2.94,0,0,0-2.92,2.92,2.92,2.92,0,0,0,.86,2.07,3,3,0,0,0,2.06.86Z" transform="translate(-16.06 -18.56)"/><path class="cls-1" d="M118.19,75.22l-2-1.38a3.33,3.33,0,0,0-2.25-.29,2.15,2.15,0,0,0-1,.52,2.3,2.3,0,0,0-.76.82l-.29.7a2.91,2.91,0,0,0,0,1.55l.29.7a2.94,2.94,0,0,0,1,1l2,1.38a2.12,2.12,0,0,0,1.09.34,2.19,2.19,0,0,0,1.16,0,2.15,2.15,0,0,0,1-.52,2.3,2.3,0,0,0,.76-.82l.29-.7a2.91,2.91,0,0,0,0-1.55l-.29-.7a2.94,2.94,0,0,0-1-1Z" transform="translate(-16.06 -18.56)"/><path class="cls-1" d="M113.4,78.49a5.67,5.67,0,0,0,1.53.29,6.43,6.43,0,0,0,1.51-.13,3.56,3.56,0,0,0,.79-.22,7.48,7.48,0,0,0,1.37-.65,8.07,8.07,0,0,0,2.18-2.14,4.23,4.23,0,0,0,.39-.69,6.27,6.27,0,0,0,.51-1.39,5.43,5.43,0,0,0,.13-1.61,6.4,6.4,0,0,0-.18-1.15,8,8,0,0,0-.44-1.09,2.22,2.22,0,0,0-.76-.82,2.15,2.15,0,0,0-1-.52,3.18,3.18,0,0,0-2.25.29,2.91,2.91,0,0,0-1.34,1.75l-.11.77a3,3,0,0,0,.4,1.48.36.36,0,0,1,0,.09l-.29-.69a2.34,2.34,0,0,1,.18.64l-.1-.77a3.28,3.28,0,0,1,0,.7l.1-.77a3.21,3.21,0,0,1-.22.79l.3-.7a4.26,4.26,0,0,1-.52.87l.46-.59a4.32,4.32,0,0,1-.77.77l.59-.46a4.12,4.12,0,0,1-.88.53l.7-.3a3.71,3.71,0,0,1-.92.26l.78-.11a3.05,3.05,0,0,1-.74,0l.78.11a2.62,2.62,0,0,1-.68-.18,2.19,2.19,0,0,0-1.16,0,2.13,2.13,0,0,0-1.09.35,2.92,2.92,0,0,0-1,4l.46.59a2.83,2.83,0,0,0,1.29.76Z" transform="translate(-16.06 -18.56)"/><path class="cls-1" d="M118.36,75.66l.4,0c.33,0,.27,0-.17,0a2.78,2.78,0,0,1,.79.13c.53.1,1.06.22,1.58.35s1,.29,1.54.46q.38.12.75.27l.4.14c-.45-.15.3.14.38.18l.72.34c.48.24.94.5,1.4.77s.9.56,1.33.87a4.21,4.21,0,0,1,.64.47c-.58-.58,0,0,.18.16a3.1,3.1,0,0,0,2.06.85,3,3,0,0,0,2.07-.85,3,3,0,0,0,0-4.13,25.84,25.84,0,0,0-14.07-5.87,2.93,2.93,0,0,0-2.92,2.92,3,3,0,0,0,2.92,2.93Z" transform="translate(-16.06 -18.56)"/><path class="cls-1" d="M124.25,110a5.69,5.69,0,0,1,1,0l-.78-.1a5.57,5.57,0,0,1,1.33.36l-.7-.29a6.12,6.12,0,0,1,1.18.7l-.59-.46a5.75,5.75,0,0,1,.78.78l-.46-.59a4.94,4.94,0,0,1,.63,1.06l-.3-.7c.24.6.39,1.23.63,1.82a5.93,5.93,0,0,0,2.11,2.84,4.48,4.48,0,0,0,5.72-.4,2.92,2.92,0,1,0-4.14-4.13.67.67,0,0,1-.15.14l.59-.45a2.07,2.07,0,0,1-.25.15l.7-.3a1.57,1.57,0,0,1-.29.08l.78-.1a2.17,2.17,0,0,1-.51,0l.77.1a2.46,2.46,0,0,1-.51-.15l.7.29a3.47,3.47,0,0,1-.46-.27l.59.45a2.16,2.16,0,0,1-.37-.37l.46.59a4.24,4.24,0,0,1-.4-.72l.3.7c-.38-.91-.6-1.86-1-2.75a6.63,6.63,0,0,0-1.67-2.12,8.11,8.11,0,0,0-5.67-2,2.92,2.92,0,0,0,0,5.84Z" transform="translate(-16.06 -18.56)"/><path class="cls-1" d="M127.94,111.09a14.07,14.07,0,0,0,12.4-7.4,2.92,2.92,0,0,0-5.05-3c-.14.28-.29.55-.45.82s-.81,1.07-.17.29a11,11,0,0,1-1.23,1.32l-.33.29c-.2.17-.67.4.07,0-.25.15-.48.34-.72.5a11.89,11.89,0,0,1-1.7.88l.7-.3a11.09,11.09,0,0,1-2.83.77l.78-.1a12,12,0,0,1-1.47.09,2.92,2.92,0,1,0,0,5.84Z" transform="translate(-16.06 -18.56)"/><path class="cls-1" d="M137.12,100.92a5.59,5.59,0,0,1,.45.52l-.45-.59a6.65,6.65,0,0,1,.73,1.27l-.29-.69a7.1,7.1,0,0,1,.44,1.64l-.11-.78a7,7,0,0,1,0,1.71l.1-.77a6.72,6.72,0,0,1-.45,1.65l.3-.7a6.24,6.24,0,0,1-.76,1.3,2.91,2.91,0,0,0-.29,2.25,3,3,0,0,0,1.34,1.75,2.91,2.91,0,0,0,2.25.29l.7-.29a2.94,2.94,0,0,0,1-1,8.92,8.92,0,0,0,1.65-5.68,9.37,9.37,0,0,0-2.52-6,2.93,2.93,0,1,0-4.14,4.14Z" transform="translate(-16.06 -18.56)"/><path class="cls-1" d="M142,104.26a6.68,6.68,0,0,0,1.51-1,6.83,6.83,0,0,0,1.19-1.38,7,7,0,0,0,.78-1.63,3.18,3.18,0,0,0,.13-.51,8.12,8.12,0,0,0,.17-1.3,2.18,2.18,0,0,0-.26-1.12,2.06,2.06,0,0,0-.6-.94,2.16,2.16,0,0,0-.94-.61,2.27,2.27,0,0,0-1.12-.25,3,3,0,0,0-2.07.86l-.46.59a3,3,0,0,0-.4,1.47c0,.11,0,.22,0,.33L140,98a3.81,3.81,0,0,1-.25.92l.29-.7a4.22,4.22,0,0,1-.51.87l.45-.59a4,4,0,0,1-.68.69l.59-.46a4,4,0,0,1-.85.5,2.28,2.28,0,0,0-.82.75,2.24,2.24,0,0,0-.52,1,2.18,2.18,0,0,0,0,1.16,2.15,2.15,0,0,0,.34,1.09,3,3,0,0,0,1.75,1.34l.78.1a2.94,2.94,0,0,0,1.47-.39Z" transform="translate(-16.06 -18.56)"/><path class="cls-1" d="M140.84,102.08l.75,1a2.19,2.19,0,0,0,.75.82,2.14,2.14,0,0,0,1,.52,2.18,2.18,0,0,0,1.16,0,2.25,2.25,0,0,0,1.09-.34l.59-.46a3,3,0,0,0,.75-1.29l.1-.78a2.83,2.83,0,0,0-.4-1.47l-.75-1a2.12,2.12,0,0,0-.75-.82,2.27,2.27,0,0,0-1-.53,2.33,2.33,0,0,0-1.17,0,2.19,2.19,0,0,0-1.08.35l-.59.46a2.83,2.83,0,0,0-.76,1.29l-.1.77a2.86,2.86,0,0,0,.4,1.48Z" transform="translate(-16.06 -18.56)"/><path class="cls-1" d="M108.4,110.35c.16,5.65,4.44,10.05,9.63,11.75,5.94,2,12.48-.08,17.74-3,3.3-1.81.36-6.86-2.94-5-3.74,2-8.34,3.71-12.62,2.57a9.2,9.2,0,0,1-4.16-2.39,6.6,6.6,0,0,1-1.37-2c-.23-.47.17.58-.12-.3-.07-.2-.13-.39-.18-.59a2.62,2.62,0,0,1-.14-1.08,2.92,2.92,0,0,0-5.84,0Z" transform="translate(-16.06 -18.56)"/><path class="cls-1" d="M134.59,119.7a11.56,11.56,0,0,0,7.89-3.08,10.92,10.92,0,0,0,3.62-7.5,2.94,2.94,0,0,0-2.93-2.92,3,3,0,0,0-2.92,2.92c0,.2,0,.39-.05.59l.1-.78a7.47,7.47,0,0,1-.5,1.81l.3-.7a8.82,8.82,0,0,1-1.09,1.85l.45-.6a9.2,9.2,0,0,1-1.62,1.62l.59-.46a9.52,9.52,0,0,1-2,1.17l.7-.3a8.39,8.39,0,0,1-2.1.58l.78-.1a8.31,8.31,0,0,1-1.22.06,2.94,2.94,0,0,0-2.92,2.92,3,3,0,0,0,2.92,2.92Z" transform="translate(-16.06 -18.56)"/><path class="cls-1" d="M141.06,112a11.38,11.38,0,0,0,8.35-4.79,10.37,10.37,0,0,0,1.72-8.72A2.92,2.92,0,0,0,145.5,100a8.38,8.38,0,0,1,.18.87l-.11-.78a6.83,6.83,0,0,1,0,1.75l.11-.78a8.35,8.35,0,0,1-.58,2.08l.3-.7a9,9,0,0,1-.74,1.36l-.22.32c-.29.42.45-.55.14-.18-.19.21-.37.42-.57.63l-.58.53c-.43.39.44-.31.19-.14l-.32.23a8.61,8.61,0,0,1-1.43.78l.7-.3a7.78,7.78,0,0,1-1.89.51l.78-.1-.4,0A3.09,3.09,0,0,0,139,107a3,3,0,0,0-.85,2.06,2.94,2.94,0,0,0,2.92,2.92Z" transform="translate(-16.06 -18.56)"/><path class="cls-1" d="M89,125.74a8,8,0,0,0,2.79,4.9,14.3,14.3,0,0,0,4.78,2.22c.32.11.09,0,0,0a4,4,0,0,1,.52.28c-.06.08-.36-.49-.35-.49-.2-.09-.12.12-.21.43a10.79,10.79,0,0,0-.34,1.27c-.45,2.43.66,4.24,2.23,6,2.66,2.93,6.16,5.49,10.32,4.6,3.7-.78,6.39-4.4,8.1-7.54,2.18-4,1-9.34-3.39-11.26v5a17.87,17.87,0,0,0,8.44-9.68,3,3,0,0,0-2-3.6,3,3,0,0,0-3.6,2,11.85,11.85,0,0,1-5.75,6.19c-1.8,1-2,4.17,0,5,.21.09.86.45.84.43s.52.57.41.43a1.92,1.92,0,0,1,.42,1.36,6.71,6.71,0,0,1-.8,1.77c-.41.64-.84,1.32-1.29,1.91-.83,1.08-1.88,2.18-3,2.21s-2.35-1-3.29-1.85c-.59-.57-1.11-1.2-1.69-1.79,0,0-.23-.48-.17-.16a6.43,6.43,0,0,0,.21-.68c.63-2.1.63-4.28-1-5.93-1.27-1.26-3-1.58-4.63-2.16a2.78,2.78,0,0,1-1.81-2.51c-.21-1.57-2.22-2.42-3.6-2-1.69.46-2.25,2-2,3.59Z" transform="translate(-16.06 -18.56)"/><path class="cls-1" d="M117.4,138.77a32.39,32.39,0,0,1,10.31-4.18c3.71-.81,7.54-1.27,10.88-3.2a15.33,15.33,0,0,0,7-17.14c-1.06-3.6-6.7-2.07-5.64,1.56a8.77,8.77,0,0,1-.56,6.4,9.63,9.63,0,0,1-5.41,4.9c-3.15,1.18-6.56,1.43-9.79,2.32a37.41,37.41,0,0,0-9.78,4.29c-3.19,2-.26,7,3,5.05Z" transform="translate(-16.06 -18.56)"/><path class="cls-1" d="M118.85,129.3a34.71,34.71,0,0,1,17.58-5.19,2.92,2.92,0,0,0,0-5.84,40.78,40.78,0,0,0-20.53,6,2.92,2.92,0,0,0,2.95,5.05Z" transform="translate(-16.06 -18.56)"/><path class="cls-1" d="M74.46,132.81l17.18-.46a2.92,2.92,0,0,0,0-5.84L74.46,127a2.92,2.92,0,1,0,0,5.84Z" transform="translate(-16.06 -18.56)"/><path class="cls-2" d="M147.2,89.14A69.65,69.65,0,0,0,134.68,68.3c-1.42-1.61-2.94-3.37-5-4.07a5.19,5.19,0,0,0-3.76.12,8.29,8.29,0,0,0-1.2.72,25.22,25.22,0,0,0-4.43-3.54,29.62,29.62,0,0,0-4-2.83,31.39,31.39,0,0,0-13-4.35A2.65,2.65,0,0,0,101,55.42a6,6,0,0,0-3.44.91A2.8,2.8,0,0,0,96,59.17,2.74,2.74,0,0,0,98,61.35c0,.16.11.4.12.49s0,.45.06.68c-.05-.62,0,0,0,.19,0,.67-.09,1.34-.12,2a32.81,32.81,0,0,0,1,9.52,3.4,3.4,0,0,0,.81,1.48c0,.08,0,.16-.05.24-.06.32-.31,1.06-.45,1.58a13.56,13.56,0,0,0-.55,2.51c-.31,3.19.91,6.24,2.32,9,.58,3.24,2,6.21,3.37,9.27a15.43,15.43,0,0,0-1.08,5.06,16.55,16.55,0,0,0-1.75-2.83l-2.17-3C98.78,91.73,98.19,85.83,97.3,80a26.14,26.14,0,0,0-1-4.1,24.12,24.12,0,0,0-2.39-7.78c-.06-.14-.12-.28-.19-.42A5.33,5.33,0,0,0,93,63.82a4.48,4.48,0,0,0,.65-3,4.21,4.21,0,0,0-3.36-3.37,7.94,7.94,0,0,0-4.61.51,21.41,21.41,0,0,0-7.53,5.07c-1,1-1.92,2-2.85,3a3.4,3.4,0,0,0-.75.4,24.4,24.4,0,0,0-6.42,6.19,67.71,67.71,0,0,0-5.3,4.56A69.7,69.7,0,0,0,56,84.76a48.65,48.65,0,0,0-2.89,4,9.39,9.39,0,0,0-1.56,5.71,10.71,10.71,0,0,0,1.54,5.16,3.25,3.25,0,0,0-.7,1.08c-1.23,3-.25,6.6,1.65,9a9.91,9.91,0,0,0,2.71,2.4c0,.11,0,.23,0,.37a16.85,16.85,0,0,0,.14,3.48,8.54,8.54,0,0,0,3.5,5.38,10.11,10.11,0,0,0,2.68,1.32,11.57,11.57,0,0,0,5.16,4.46,9.61,9.61,0,0,0,.13,5.76,9.73,9.73,0,0,0,5.53,5.44c2.74,1.15,5.78,1.08,8.67.81,1.52-.15,3-.36,4.56-.42a12.91,12.91,0,0,1,3.81.46,2.82,2.82,0,0,0,1.65,0,5.82,5.82,0,0,0,3.45-.14,5.59,5.59,0,0,0,3.16-7.33,6.33,6.33,0,0,0-3-2.85c-.44-.22-.89-.41-1.34-.6l-.68-.29C94,128,93.92,128,94,128l-.22-.14a7.36,7.36,0,0,1-.63-.47l-.2-.18c.06,0,0,0-.16-.18l-.49-.62-.11-.14s0-.1-.08-.17c-.12-.24-.24-.48-.34-.72,0-.07-.16-.47-.17-.48a5.84,5.84,0,0,1-.13-.63c0-.11-.06-1.1-.06-.61,0-.08,0-.17,0-.26a7.8,7.8,0,0,0,.92-.79,8.3,8.3,0,0,0,2.21-3.74,9.13,9.13,0,0,0,1.56-7.18c2.11.74,4.58,1.14,6-1a3.33,3.33,0,0,0,.61-2.15,3.12,3.12,0,0,0,.44-.45,4.26,4.26,0,0,0,.6-1.07,13,13,0,0,0,1.51,3.92,2.74,2.74,0,0,0,2.08,1.55,2.55,2.55,0,0,0,2.39-1.09,11.37,11.37,0,0,0,1.64-4.7,3.92,3.92,0,0,0,1,.21,4.46,4.46,0,0,0,1,0,7.64,7.64,0,0,0-2,6,2.63,2.63,0,0,0,2.48,2.24,6.26,6.26,0,0,0,2.6,3.41,8.48,8.48,0,0,0,3,1.16q-1.62,3.22-3.41,6.38a4,4,0,0,0-2.54,1.36,1.44,1.44,0,0,0-.19,1.94,1.4,1.4,0,0,0,1.39.47,2.78,2.78,0,0,0-.11.86,2.86,2.86,0,0,0,.24,1,4.71,4.71,0,0,0-.42,2.4,2,2,0,0,0,2.81,1.61c1.1-.43,2.08-1.09,3.21-1.46,4.11-1.35,8.64-1.37,12.32-3.76.47,0,.94,0,1.41-.08a10.08,10.08,0,0,0,7.44-4,7.86,7.86,0,0,0,1.18-6.72,8.09,8.09,0,0,0,.37-2,5.88,5.88,0,0,0-.69-3.5,3.19,3.19,0,0,0-.74-.92,13,13,0,0,0,1.37-4.45A10.59,10.59,0,0,0,148.19,98a9.11,9.11,0,0,0,.61-5.24A6.76,6.76,0,0,0,147.2,89.14ZM56.72,94a4.55,4.55,0,0,1,.05-.76C56.75,93.49,56.73,93.74,56.72,94ZM67,114.24l-1.31-.65.55,0c.28.15.55.3.82.47Zm22.26-8.54a.79.79,0,0,0-.1-.16c.09,0,.13.09.12.16S89.39,106.1,89.23,105.7Zm29-2.1.07.15-.3.1Z" transform="translate(-16.06 -18.56)"/><path class="cls-2" d="M117.85,123a1.29,1.29,0,0,0,.28-.67,2.48,2.48,0,0,0,.33-1.9c-.36-1.55-2-1.78-3.1-2.67a5.59,5.59,0,0,1-1.85-3.35,1.42,1.42,0,0,0-.32-.71,30.38,30.38,0,0,0,.14-5.31,1.35,1.35,0,0,0-2.18-.85,7.83,7.83,0,0,0-1.83,2.7c-.31.66-.62,1.72-1.28,2.11s-1.6-.37-2.07-.95c-.77-1-1.11-2.27-2.19-2.94a2,2,0,0,0-3,1.26c-.07.2-.1.4-.15.59a1.23,1.23,0,0,0-.7.92c-.51.28-1.11.4-1.6.73l-.17.12A1.36,1.36,0,0,0,96,113.64,6,6,0,0,1,95,119a14.72,14.72,0,0,1-2.42,2,5.09,5.09,0,0,0-1.8,2.78c-.51,2.36,1.37,3.9,3.36,4.52,1.36.43,3.17.53,4.4,1.41a6.78,6.78,0,0,1,1.66,4.37c0,.48-.08.92-.12,1.27a4.71,4.71,0,0,0-.87,1.27c-.6,1.56.62,2.88,1.73,3.75a8.33,8.33,0,0,0,2.54,1.32,5.66,5.66,0,0,0,5.65.74,9,9,0,0,0,5.38-6,6.78,6.78,0,0,0-.36-4.41,18.25,18.25,0,0,0-1.43-3.75,1.48,1.48,0,0,0,1.34-.55,17.1,17.1,0,0,0,1.09-1.33L117,124C117.31,123.68,117.58,123.34,117.85,123Zm-24.08,2.16a.87.87,0,0,1-.22-1.28c0,.14,0,.27,0,.41a1.47,1.47,0,0,0,.27.89ZM115,121.47a1.13,1.13,0,0,0-.13-.75,5.78,5.78,0,0,0,.72.42A1.13,1.13,0,0,0,115,121.47Zm-4.5-7.78-.06.52a2.26,2.26,0,0,0-.26-.16A3.73,3.73,0,0,0,110.5,113.69ZM103,111.76v0a3.73,3.73,0,0,0,.23.45,2.33,2.33,0,0,0,.17.26l-.4-.21c0-.08-.09-.16-.13-.25Zm5.46,26.8,0-.17.12.09Zm2-2.22-.1-.69a1.56,1.56,0,0,0,.43-.21A4.86,4.86,0,0,1,110.5,136.34Z" transform="translate(-16.06 -18.56)"/><path class="cls-3" d="M91.22,109.32a47.83,47.83,0,0,0-7.9-2.54,18.06,18.06,0,0,0-4.15-.37c-1.44,0-2.83.43-4.26.52-1.92.13-3.58-1.07-5.14-2.06-1.93-1.21-4-2.35-6.27-2.37-1.53,0-3.06.46-4.58.36a2.19,2.19,0,0,1-2.13-1.22,1.66,1.66,0,0,0-1.16-1l-.05-.09a.27.27,0,0,0-.5,0,1.82,1.82,0,0,0-.66.15,1.89,1.89,0,0,0-.89,2.44c.94,2.61,3.81,3.47,6.27,3.35a22.46,22.46,0,0,1,4.24-.29,7.2,7.2,0,0,1,2.58,1c1.91,1.09,3.67,2.51,5.82,3.09,2.77.76,5.49-.43,8.3-.19a32.93,32.93,0,0,1,9.18,2.64C92.08,113.6,93.38,110.17,91.22,109.32Z" transform="translate(-16.06 -18.56)"/><path class="cls-3" d="M79.77,89.34a4.42,4.42,0,0,0-5,2.32c-1.23,2.21-.64,4.84.17,7.08.48,1.33,2.44.42,2-.91s-1-3.16-.46-4.67c.36-1,1.44-2,2.54-1.76C80.32,91.75,81.11,89.69,79.77,89.34Z" transform="translate(-16.06 -18.56)"/><path class="cls-3" d="M93.9,78.26c-.55-2.36-3.19-3.22-5.28-2.74A12.92,12.92,0,0,0,85.4,77a8.11,8.11,0,0,1-3.61-6.63c0-.93-1.43-1.1-1.42-.16a9.79,9.79,0,0,0,.36,2.61L77,73.44a.73.73,0,0,0,.22,1.45l4-.65a9.62,9.62,0,0,0,2.7,3.49,4.09,4.09,0,0,1-2.67.27c-1.34-.35-1.79,1.81-.45,2.16,2.29.6,4.32-.59,6.27-1.66,1.32-.72,4.24-1.83,4.77.47C92.18,80.34,94.22,79.64,93.9,78.26Z" transform="translate(-16.06 -18.56)"/><path class="cls-3" d="M73.27,73.22a16.21,16.21,0,0,1-8.93,10.69.74.74,0,0,0,.6,1.34,17.64,17.64,0,0,0,9.67-11.49C74.85,72.85,73.51,72.31,73.27,73.22Z" transform="translate(-16.06 -18.56)"/><path class="cls-3" d="M74.83,82a1.51,1.51,0,0,1-1.39-1.07.72.72,0,0,0-1-.37.76.76,0,0,0-.35,1,2.89,2.89,0,0,0,2.53,1.92A.73.73,0,0,0,74.83,82Z" transform="translate(-16.06 -18.56)"/><path class="cls-3" d="M111.05,64.06a3.66,3.66,0,0,0-4,0,8.39,8.39,0,0,0-2.91,3.86c-.4.85.94,1.38,1.34.53.77-1.64,2.59-4.69,4.76-3.18A.73.73,0,0,0,111.05,64.06Z" transform="translate(-16.06 -18.56)"/><path class="cls-3" d="M125.3,64.34c-.63-.7-1.74.23-1.11.93a9.91,9.91,0,0,1,2.56,6.94c0,.94,1.39,1.11,1.42.16A11.4,11.4,0,0,0,125.3,64.34Z" transform="translate(-16.06 -18.56)"/><path class="cls-3" d="M142,87.27a4.64,4.64,0,0,1-2.75,4.19.85.85,0,0,0-.17.06l-.2.07a.75.75,0,0,0-.51.5,2.17,2.17,0,0,0-.21,1.87,2.91,2.91,0,0,1-3.75,3.52,1.34,1.34,0,0,0-1.06.21,1.74,1.74,0,0,0-2.15,1,3.83,3.83,0,0,1-2.28,1.79c-1.32.53-2.71.85-4.06,1.29a39.89,39.89,0,0,0-9,4.27,15.19,15.19,0,0,0-1.74,1.26c-.79-1.13-2.64-1-3.57,0a6.91,6.91,0,0,0-1.32,2.57c-.36,1-.89,2.23-2.14,2-2.53-.39-2.5-4.2-2.59-6.15a43.29,43.29,0,0,1,.21-6.83.7.7,0,0,0,.4-.36,8.79,8.79,0,0,1,2.94-3.26,17,17,0,0,1,4.74-1.71c2.4-.68,5-2.12,5.25-5a.72.72,0,0,0-1.43-.16c-.29,3.25-4.4,3.66-6.76,4.4a10.17,10.17,0,0,0-5.37,4,.7.7,0,0,0-.14-.42,9.08,9.08,0,0,1-1.06-2.94A8.4,8.4,0,0,0,102,91a12.9,12.9,0,0,1-2.62-5.89,14.25,14.25,0,0,1,.58-6.32,50.24,50.24,0,0,0,1.94-6c.18-.93-1.25-1.08-1.43-.16a13.14,13.14,0,0,1-.42,1.64c-1.65-4.72-3-10.31.48-14.45.61-.71-.56-1.57-1.16-.86-4.24,5-2.09,12-.08,17.44-.23.6-.45,1.21-.65,1.82-1.45-2.95-3-5.84-4.74-8.65a.72.72,0,0,0,.64-.82c-.25-2.17-.59-4.56-2.08-6.25a4.74,4.74,0,0,0-4.78-1.67c-.88.26-.66,1.71.22,1.45a3.48,3.48,0,0,1,3.78,1.57,10.28,10.28,0,0,1,1.41,4.84.64.64,0,0,0-.32.07.59.59,0,0,0-.31-.51,9.2,9.2,0,0,0-9.73-.09c-.78.48-.2,1.83.59,1.34a7.82,7.82,0,0,1,8.3-.06.69.69,0,0,0,.69,0,.88.88,0,0,0,.12.43,107.08,107.08,0,0,1,5.38,9.88.67.67,0,0,0,.32.34,15.3,15.3,0,0,0-.12,5.48,12.69,12.69,0,0,0,1.23,3.73.76.76,0,0,0-.06.46A15.06,15.06,0,0,1,99,96.28a9,9,0,0,0-1.37-1.12,4.62,4.62,0,0,0-3.91-.33,22.58,22.58,0,0,1-4,.9,15.71,15.71,0,0,1-9.17-1.93c-1.22-.67-2,1.4-.78,2.06a17.57,17.57,0,0,0,13.29,1.45c1.41-.42,2.67-1,3.91.13,2.29,2,4.66,4.74,5,7.94.28,2.72-1.59,5.78-4.55,5.15a.87.87,0,0,0-.9.29c-2.48-1.93-4.95-3.89-7.47-5.77-2.13-1.6-4.88-3-7.44-1.52-.8.45-.22,1.79.59,1.33,2.53-1.41,5,.62,7,2.14l7.13,5.51a.62.62,0,0,0,.58.13,1.71,1.71,0,0,0,.27.09,5.85,5.85,0,0,0,6.11-3.12l.1-.2a5.64,5.64,0,0,0,1.47,2.94,3.15,3.15,0,0,0,4.84-.18,12.8,12.8,0,0,0,1.22-2.75,2.31,2.31,0,0,1,1-1.35.78.78,0,0,1,1.11.41,5.92,5.92,0,0,0-.49.82,6.88,6.88,0,0,0-.49,4.06,8.9,8.9,0,0,0,5.65,6.42,14.58,14.58,0,0,0,2.86.83l-.23.07a1.89,1.89,0,0,0-1.49,2.1,1.81,1.81,0,0,0,2,1.53,57,57,0,0,0,10.83-4.14,3.54,3.54,0,0,1,2.21-.39,8.23,8.23,0,0,0,2.57-.16,8.57,8.57,0,0,0,4.39-2.48,1.92,1.92,0,0,0,.25-2.58,1.77,1.77,0,0,0-2.52-.26,5.38,5.38,0,0,1-3.5,1.83c-.82.07-1.63-.13-2.44-.08a6.39,6.39,0,0,0-2.44.77l-.84.41a1.87,1.87,0,0,0-2.19-.58,12.18,12.18,0,0,1-7.82-.15c-1.83-.68-3.76-2-3.88-4.22-.13-2.41,2.75-3.51,4.47-4.43a40.32,40.32,0,0,1,7.85-3.17c2.33-.68,4.7-1.52,6.08-3.56h0a6.41,6.41,0,0,0,6.31-2.19,7,7,0,0,0,1.11-6.5,1.42,1.42,0,0,0-.27-.48,6,6,0,0,0,2.27-4.53C143.48,86.49,142.05,86.32,142,87.27ZM103.1,101.55A16.05,16.05,0,0,0,100.67,98l-.48-.54a16.9,16.9,0,0,0,.71-5.61,8.6,8.6,0,0,1,1.22,2.74,8,8,0,0,0,1.14,2.77.89.89,0,0,0,.2.19C103.28,98.9,103.17,100.23,103.1,101.55Z" transform="translate(-16.06 -18.56)"/><path class="cls-3" d="M137.65,106.15a11.09,11.09,0,0,1-8.42,2.64.68.68,0,0,0-.76.61,7.45,7.45,0,0,0-2.17-.14c-.92.08-.69,1.54.22,1.46a5.45,5.45,0,0,1,4.37,1.59c.65.66,1.76-.26,1.1-.93a7.83,7.83,0,0,0-1.32-1.07,12.53,12.53,0,0,0,7.89-3C139.27,106.69,138.36,105.55,137.65,106.15Z" transform="translate(-16.06 -18.56)"/><path class="cls-3" d="M133.7,125c-6.9-4-14.17,1-20.7,3.29-.88.3-.28,1.64.59,1.34,5.88-2,13-7.1,19.27-3.44C133.65,126.64,134.5,125.45,133.7,125Z" transform="translate(-16.06 -18.56)"/><path class="cls-3" d="M126.77,82.22a15.83,15.83,0,0,1-3,3,6.86,6.86,0,0,0-8-2.36c-.86.35-.27,1.69.59,1.34a5.54,5.54,0,0,1,6.4,2,.79.79,0,0,0,.41.7,5.12,5.12,0,0,1,.3.77c.26.89,1.68.68,1.41-.23a6.24,6.24,0,0,0-.36-1,17.48,17.48,0,0,0,3.44-3.38C128.51,82.34,127.35,81.48,126.77,82.22Z" transform="translate(-16.06 -18.56)"/><path class="cls-4" d="M128,108.15a14.64,14.64,0,0,0-3.79-10.58,14.32,14.32,0,0,0-9.9-4.89,13.93,13.93,0,0,0-10.18,4.11,14.68,14.68,0,0,0-4.45,10.12,16.23,16.23,0,0,0,4.4,11,16.54,16.54,0,0,0,4.54,3.49,4.43,4.43,0,0,0,3.67.24l.34,0a13.57,13.57,0,0,0,10.54-3.65A15,15,0,0,0,128,108.15Z" transform="translate(-16.06 -18.56)"/><path class="cls-4" d="M96.27,96.38a13.78,13.78,0,0,0-10.7-2.54,14.4,14.4,0,0,0-9.41,5.82,14.84,14.84,0,0,0-2.23,11A14.56,14.56,0,0,0,79.74,120a15.28,15.28,0,0,0,11.41,2.28,16.46,16.46,0,0,0,5.33-2,4.6,4.6,0,0,0,2.21-3l.22-.27a14.47,14.47,0,0,0,2.8-11.05A14.94,14.94,0,0,0,96.27,96.38Z" transform="translate(-16.06 -18.56)"/><path class="cls-5" d="M89.52,98.93a2.63,2.63,0,0,0-3.17-.58c-1.26.72-1.24,2.18-1.1,3.47.17,1.55.35,3.1.52,4.65s.32,3.1.52,4.65c.16,1.22.76,2.49,2.11,2.61,3.46.29,1.73-5.2,1.14-6.91a1.1,1.1,0,0,0-1.12-.81c-.09-.83-.18-1.65-.28-2.47a1.33,1.33,0,0,0,2.24-.83A4.64,4.64,0,0,0,89.52,98.93Z" transform="translate(-16.06 -18.56)"/><path class="cls-5" d="M115.77,98.76a2.65,2.65,0,0,0-3.17-.57c-1.26.72-1.24,2.18-1.1,3.47.17,1.55.35,3.1.52,4.65s.32,3.1.52,4.64c.16,1.22.76,2.5,2.11,2.61,3.46.3,1.73-5.19,1.14-6.9a1.11,1.11,0,0,0-1.12-.82c-.09-.82-.18-1.64-.28-2.47a1.32,1.32,0,0,0,2.24-.83A4.64,4.64,0,0,0,115.77,98.76Z" transform="translate(-16.06 -18.56)"/><path class="cls-6" d="M83.66,116.44a8,8,0,0,1-1.82-8.15c.52-1.44-1.65-2.31-2.17-.86A10.32,10.32,0,0,0,81.86,118C82.91,119,84.72,117.53,83.66,116.44Z" transform="translate(-16.06 -18.56)"/><path class="cls-6" d="M109.52,116.45a8.61,8.61,0,0,1-4.72-5.78c-.36-1.48-2.66-1.12-2.3.38a11.16,11.16,0,0,0,6.18,7.63C110.05,119.31,110.88,117.08,109.52,116.45Z" transform="translate(-16.06 -18.56)"/><path class="cls-3" d="M129.26,76.58c-1.63,0-2.88-1.13-4-2.21a17.32,17.32,0,0,0-3.8-3.2c-4-2.13-8.15.8-11.91,2.09a.83.83,0,0,0,.52,1.57c3.65-1.26,7.92-4.4,11.6-1.58,2.44,1.87,4.28,5,7.68,5C130.38,78.21,130.29,76.56,129.26,76.58Z" transform="translate(-16.06 -18.56)"/><path class="cls-7" d="M88.8,89.1a22.34,22.34,0,0,1-13.16,6.3c-1.3.15-1.32,2.24,0,2.09a24.59,24.59,0,0,0,14.61-6.91A1,1,0,0,0,88.8,89.1Z" transform="translate(-16.06 -18.56)"/><path class="cls-3" d="M93.16,89a6.05,6.05,0,0,0-7-4.73c-1.3.24-.75,2.26.55,2a4,4,0,0,1,4.48,3.28C91.42,90.84,93.4,90.28,93.16,89Z" transform="translate(-16.06 -18.56)"/><path class="cls-3" d="M70.24,135.84A219.86,219.86,0,0,1,33.3,150.16a3,3,0,0,0-.79-.7,44.59,44.59,0,0,0-11-4.79,2.42,2.42,0,0,0-1.63,0c-1.62,0-3.18.54-3.7,2.17-.68,2.11,1.59,3.45,3.23,4.47a27,27,0,0,0,11.46,3.75,1.76,1.76,0,0,0,1.35-.49,226.21,226.21,0,0,0,40.41-15.37C75.25,137.94,72.87,134.53,70.24,135.84Z" transform="translate(-16.06 -18.56)"/><path class="cls-3" d="M169.71,143.53a2.92,2.92,0,0,0-4-1.34q-5.64,3.19-11.47,6.17a5.62,5.62,0,0,1-1.32-.46c-3.05-1.48-5.92-3.3-8.8-5q-8.81-5.18-17.22-10.77a3.19,3.19,0,0,0-3.82,0,2,2,0,0,0,0,3.17q9.85,6.54,20.18,12.57c1.71,1,3.44,2,5.17,2.95a15.13,15.13,0,0,0,5.22,2.08h.1a1.71,1.71,0,0,0,1,.21,20.84,20.84,0,0,0,3.36-.4,7.65,7.65,0,0,0,5.18-1.76,19.49,19.49,0,0,0,6-4.58,2.15,2.15,0,0,0,.38-.61A2.21,2.21,0,0,0,169.71,143.53Zm-5.33.6c.07-.31.49-.15,0,0Z" transform="translate(-16.06 -18.56)"/><path class="cls-3" d="M38.74,86.55c4.7-1.6,9.92-1.2,14.79-.59a2.38,2.38,0,0,0,2-.55,10.54,10.54,0,0,0,6.32-2.62A1.07,1.07,0,0,0,60.74,81a7.46,7.46,0,0,0,.53-1c.36-.86-.91-1.67-1.73-1.19a18.64,18.64,0,0,0-4.71,3.89,1.31,1.31,0,0,0-.27-.06c-5.22-.65-10.65-1.12-15.78.27-4,1.08-7.84,3.43-9.9,6.75-2.35,3.79-1.78,8.07.36,11.82A29.13,29.13,0,0,0,33.5,107a23.38,23.38,0,0,0,5.33,4.27c4.63,2.6,10.33,3,15.66,2.71a1.72,1.72,0,1,0,0-3.42c-4,.17-8.15.12-11.84-1.34s-6.59-4.45-8.78-7.42c-2.06-2.81-3.61-6.24-2.1-9.55C33,89.57,35.8,87.54,38.74,86.55Z" transform="translate(-16.06 -18.56)"/><path class="cls-5" d="M122.77,92.71A11.59,11.59,0,0,1,109,86.83c-.59-1.21-2.37-.15-1.78,1a13.62,13.62,0,0,0,16.07,6.84C124.57,94.31,124,92.29,122.77,92.71Z" transform="translate(-16.06 -18.56)"/><path class="cls-3" d="M176.62,138.16l-7.15,0c-1.13,0-2.28.08-3.4,0-.95-.06-1.35-.6-2-1.26a64.63,64.63,0,0,1-7.43-9.82,78.77,78.77,0,0,1-5.44-10.82,46.69,46.69,0,0,0-5.74-10.71,2.19,2.19,0,0,0-2.81-.69,1.88,1.88,0,0,0-.74,2.65c4.17,5.35,5.91,12,9.05,17.84a67.7,67.7,0,0,0,5.52,8.65c1,1.38,2.12,2.72,3.25,4s2.23,2.82,3.87,3.52c1.83.78,4.1.48,6.05.47l6.93,0A1.94,1.94,0,1,0,176.62,138.16Z" transform="translate(-16.06 -18.56)"/><path class="cls-7" d="M107.29,124.25l-12.24.47c-1.32,0-1.33,2.14,0,2.09l12.24-.47C108.61,126.29,108.61,124.2,107.29,124.25Z" transform="translate(-16.06 -18.56)"/><path class="cls-3" d="M70.37,127.11a16,16,0,0,1,13.46,3.19c.71.59,1.62-.55.9-1.14a17.28,17.28,0,0,0-14.5-3.5C69.32,125.86,69.45,127.31,70.37,127.11Z" transform="translate(-16.06 -18.56)"/><path class="cls-3" d="M70.64,113.45a15.83,15.83,0,0,1-3,3,6.86,6.86,0,0,0-8-2.36c-.86.35-.27,1.69.59,1.34a5.54,5.54,0,0,1,6.4,2,.78.78,0,0,0,.41.7,5.12,5.12,0,0,1,.3.77c.26.9,1.68.68,1.41-.23a6.64,6.64,0,0,0-.36-1,17.48,17.48,0,0,0,3.44-3.38C72.38,113.57,71.22,112.71,70.64,113.45Z" transform="translate(-16.06 -18.56)"/><path class="cls-5" d="M94.32,22a39.71,39.71,0,0,1,12.33-1.37c1.76.08,1.75-2,0-2a43.15,43.15,0,0,0-11.53,1c-3.25.77-6.88,1.88-9.26,3.78-2.06,1.65-2.83,4-1.15,6a10.17,10.17,0,0,0,4.55,2.75,11.59,11.59,0,0,0-.85.87c-1,1.11-2,2.73-1.46,4.07s2.23,1.74,3.69,2.2c.58.19,1.16.36,1.75.52-1.28,2.52,1,5.63,4.58,6.15,1.71.25,2.44-1.72.72-2-2-.29-3.63-2.09-2.67-3.58a14,14,0,0,0,7.1-.45.89.89,0,0,0,.27-1.6,8.15,8.15,0,0,0-8.34-.26l-1.41-.38c-1.07-.31-3.25-.66-3-1.75a5.54,5.54,0,0,1,1.73-2.5c.22-.2.45-.39.69-.58l.22.05a48.62,48.62,0,0,0,6,.82,23.91,23.91,0,0,0,5.48,0c2.62-.41,5-2.59,1.91-3.92a16.47,16.47,0,0,0-14.27.75C89,30,86.48,28.9,86.49,27,86.49,24.32,91.6,22.78,94.32,22Zm9.8,9.57c-1.32.73-6.62.11-9.12-.25A13.44,13.44,0,0,1,104.12,31.59Z" transform="translate(-16.06 -18.56)"/></svg>